<svg width="107" height="106" viewBox="0 0 107 106" fill="none" xmlns="http://www.w3.org/2000/svg">
<path fill-rule="evenodd" clip-rule="evenodd" d="M75.1863 14.7556C75.1863 6.60629 68.58 0 60.4307 0L47.4755 0C39.3262 0 32.7199 6.6063 32.7199 14.7556V22.4763C32.7199 27.6073 28.5604 31.7668 23.4294 31.7668H15.7087C7.55942 31.7668 0.953125 38.3731 0.953125 46.5224L0.953125 59.4776C0.953125 67.6269 7.55943 74.2332 15.7087 74.2332H23.4294C28.5604 74.2332 32.7199 78.3927 32.7199 83.5237V91.2444C32.7199 99.3937 39.3262 106 47.4755 106H60.4307C68.58 106 75.1863 99.3937 75.1863 91.2444V83.5237C75.1863 78.3927 79.3458 74.2332 84.4769 74.2332H92.1976C100.347 74.2332 106.953 67.6269 106.953 59.4776V46.5224C106.953 38.3731 100.347 31.7668 92.1975 31.7668H84.4768C79.3458 31.7668 75.1863 27.6073 75.1863 22.4763V14.7556Z" fill="#58C4D9"/>
<path d="M61.6731 52.28C63.0598 52.9733 64.1131 53.88 64.8331 55C65.5798 56.12 65.9531 57.4133 65.9531 58.88C65.9531 60.6133 65.4598 62.1333 64.4731 63.44C63.4865 64.72 62.0998 65.72 60.3131 66.44C58.5265 67.1333 56.4598 67.48 54.1131 67.48C51.7665 67.48 49.6998 67.1333 47.9131 66.44C46.1531 65.72 44.7798 64.72 43.7931 63.44C42.8331 62.1333 42.3531 60.6133 42.3531 58.88C42.3531 57.4133 42.7131 56.12 43.4331 55C44.1798 53.88 45.2331 52.9733 46.5931 52.28C45.5531 51.64 44.7531 50.84 44.1931 49.88C43.6331 48.8933 43.3531 47.7733 43.3531 46.52C43.3531 44.8933 43.8065 43.48 44.7131 42.28C45.6198 41.08 46.8865 40.16 48.5131 39.52C50.1398 38.8533 52.0065 38.52 54.1131 38.52C56.2465 38.52 58.1265 38.8533 59.7531 39.52C61.4065 40.16 62.6865 41.08 63.5931 42.28C64.4998 43.48 64.9531 44.8933 64.9531 46.52C64.9531 47.7733 64.6731 48.8933 64.1131 49.88C63.5531 50.84 62.7398 51.64 61.6731 52.28ZM54.1131 43.28C52.8065 43.28 51.7531 43.6 50.9531 44.24C50.1798 44.8533 49.7931 45.7067 49.7931 46.8C49.7931 47.8667 50.1798 48.7067 50.9531 49.32C51.7265 49.9333 52.7798 50.24 54.1131 50.24C55.4465 50.24 56.5131 49.9333 57.3131 49.32C58.1131 48.7067 58.5131 47.8667 58.5131 46.8C58.5131 45.7067 58.1131 44.8533 57.3131 44.24C56.5131 43.6 55.4465 43.28 54.1131 43.28ZM54.1131 62.72C55.7398 62.72 57.0198 62.36 57.9531 61.64C58.9131 60.8933 59.3931 59.9067 59.3931 58.68C59.3931 57.4533 58.9131 56.48 57.9531 55.76C57.0198 55.04 55.7398 54.68 54.1131 54.68C52.5131 54.68 51.2465 55.04 50.3131 55.76C49.3798 56.48 48.9131 57.4533 48.9131 58.68C48.9131 59.9333 49.3798 60.92 50.3131 61.64C51.2465 62.36 52.5131 62.72 54.1131 62.72Z" fill="white"/>
</svg>
