<svg width="32" height="32" viewBox="0 0 32 32" fill="none" xmlns="http://www.w3.org/2000/svg">
<path d="M7 22.2949V31.2949H31.5V6.79492M31.5 6.79492L26 0.794922M31.5 6.79492H26V0.794922M26 0.794922H7V3.79492" stroke="black"/>
<path d="M28.5 9.79492H21M28.5 12.7949H21M27.5 15.2949H26.5M25 15.2949H21" stroke="black"/>
<path d="M11 13.2949H4C4.28062 16.7708 4.74363 18.826 8.08459 19.7885C9.97783 20.3339 12.0234 20.3461 13.9145 19.7935C15.7224 19.2652 16.8203 18.3517 17.5382 16.821C18.5697 14.6215 18.554 11.9889 17.62 9.74622C17.3246 9.03689 16.9597 8.43827 16.5 7.9247M11 13.2949V5.29492C13.6606 5.91091 15.3678 6.65983 16.5 7.9247M11 13.2949L16.5 7.9247" stroke="black"/>
<path d="M8.5 3.79492V10.7949H1C2.38181 6.34575 3.97314 4.78571 8.5 3.79492Z" stroke="black"/>
<circle cx="27.5" cy="21.2949" r="1.5" stroke="black"/>
<circle cx="21.5" cy="27.2949" r="1.5" stroke="black"/>
<circle cx="16.5" cy="23.2949" r="1.5" stroke="black"/>
<circle cx="11.5" cy="27.2949" r="1.5" stroke="black"/>
<path d="M23 26.2949L26.5 22.2949M20.5 26.2949L17.5 23.7949M15 24.2949L12.5 26.7949" stroke="black"/>
</svg>
