<svg width="33" height="34" viewBox="0 0 33 34" fill="none" xmlns="http://www.w3.org/2000/svg">
<path d="M9.7374 10.4571L7.85884 13.8385C7.65078 14.213 7.20547 14.3862 6.79901 14.2507C6.35074 14.1013 6.09728 13.6277 6.22161 13.1718L7.19766 9.59294C7.39321 8.87595 7.83028 8.24846 8.43502 7.8165L9.97877 6.71383C10.5466 6.30825 11.3343 6.43014 11.753 6.98837C12.1693 7.54341 12.0696 8.32871 11.5278 8.76212L10.4222 9.64658C10.1434 9.86963 9.9108 10.1449 9.7374 10.4571Z" stroke="black"/>
<path d="M21.3333 5.48438H18.25C17.5596 5.48438 17 6.04402 17 6.73438C17 7.42473 17.5596 7.98438 18.25 7.98438H19.8284C20.5786 7.98438 21.298 8.28237 21.8284 8.8128L23.1789 10.1633C23.6501 10.6344 24.3959 10.6874 24.9289 10.2877C25.5205 9.84403 25.6404 9.00484 25.1967 8.41331L24 6.81771C23.3705 5.97836 22.3825 5.48438 21.3333 5.48438Z" stroke="black"/>
<path d="M29.5 18.8923V17.0675C29.5 16.1931 28.7912 15.4844 27.9169 15.4844C27.1103 15.4844 26.4326 16.0909 26.3435 16.8926L26.0312 19.7036C26.0105 19.8903 25.9701 20.0742 25.9107 20.2524L25.3998 21.7849C25.1842 22.4319 25.565 23.1256 26.2266 23.291C26.6933 23.4077 27.1838 23.2271 27.4634 22.8357L28.8652 20.8731C29.2781 20.2951 29.5 19.6025 29.5 18.8923Z" stroke="black"/>
<path d="M19.7773 20.3366L21.1874 19.1615C21.6637 18.7646 22.3502 18.7471 22.8462 19.119C23.4689 19.586 23.5628 20.484 23.0503 21.0698L21.482 22.8621C20.858 23.5753 19.9564 23.9844 19.0087 23.9844H16.6136C15.7788 23.9844 15.1527 23.2207 15.3165 22.4021C15.4264 21.8522 15.8713 21.4313 16.4265 21.352L17.9983 21.1275C18.6532 21.0339 19.2691 20.7601 19.7773 20.3366Z" stroke="black"/>
<path d="M12.7164 21.5889L13.7811 20.258C13.926 20.0769 14.1004 19.9216 14.2971 19.7987L15.7786 18.8727C16.6636 18.3196 16.5049 16.986 15.5149 16.656C15.1868 16.5466 14.8279 16.58 14.5256 16.748L11.1173 18.6414C10.718 18.8632 10.4074 19.2159 10.2377 19.6401L10.0741 20.0491C9.75703 20.8418 10.1426 21.7414 10.9352 22.0585C11.5676 22.3114 12.2909 22.1207 12.7164 21.5889Z" stroke="black"/>
<path d="M14.0352 26.9844H13.8333C13.097 26.9844 12.5 27.5813 12.5 28.3177C12.5 28.7374 12.6976 29.1326 13.0333 29.3844L13.7 29.8844C14.2193 30.2738 14.8509 30.4844 15.5 30.4844H18C18.6491 30.4844 19.2807 30.2738 19.8 29.8844L20.4667 29.3844C20.8024 29.1326 21 28.7374 21 28.3177C21 27.5813 20.403 26.9844 19.6667 26.9844H19.5858C19.2107 26.9844 18.851 27.1334 18.5858 27.3986L18.5 27.4844C18.1799 27.8045 17.7456 27.9844 17.2929 27.9844H16.8446C16.2939 27.9844 15.7555 27.8214 15.2973 27.5159L14.8868 27.2422C14.6346 27.0741 14.3383 26.9844 14.0352 26.9844Z" stroke="black"/>
<path d="M9 24.2166V24.3559C9 25.2553 8.27091 25.9844 7.37153 25.9844C6.82705 25.9844 6.31859 25.7123 6.01656 25.2592L5.20904 24.0479C4.74671 23.3544 4.5 22.5396 4.5 21.7061V18.9844C4.5 18.1559 5.17157 17.4844 6 17.4844C6.82843 17.4844 7.5 18.1559 7.5 18.9844V20.9237C7.5 21.6028 7.76978 22.2542 8.25 22.7344L8.48223 22.9666C8.81375 23.2981 9 23.7478 9 24.2166Z" stroke="black"/>
<path d="M17.7865 10.4844H15.5C14.6716 10.4844 14 11.1559 14 11.9844C14 12.8128 14.6716 13.4844 15.5 13.4844H16.8284C17.5786 13.4844 18.298 13.7824 18.8284 14.3128L19.4697 14.954C19.8092 15.2936 20.2698 15.4844 20.75 15.4844H20.7929C21.2456 15.4844 21.6799 15.3045 22 14.9844L22.027 14.9574C22.3299 14.6545 22.5 14.2438 22.5 13.8154C22.5 13.2939 22.2481 12.8045 21.8237 12.5013L19.9874 11.1897C19.3452 10.731 18.5757 10.4844 17.7865 10.4844Z" stroke="black"/>
<circle cx="16.5" cy="17.4844" r="16" stroke="black"/>
</svg>
