<svg width="83" height="39" viewBox="0 0 83 39" fill="none" xmlns="http://www.w3.org/2000/svg">
<path d="M7.41306 5.99703C7.80656 6.31113 8.06567 6.685 8.19039 7.11862C8.31798 7.54478 8.28849 8.00054 8.10191 8.48592C7.83783 9.17291 7.36521 9.59975 6.68404 9.76645C6.01321 9.92855 5.16629 9.81297 4.14327 9.41973L0.088515 7.8611L3.10245 0.0204176L6.93318 1.49294C7.88899 1.86035 8.55046 2.3246 8.91759 2.88569C9.29219 3.44964 9.35893 4.04525 9.11781 4.6725C8.97142 5.05334 8.74748 5.35722 8.44598 5.58415C8.15194 5.81395 7.80764 5.95158 7.41306 5.99703ZM4.38052 2.08014L3.67009 3.9283L5.47345 4.6215C5.92148 4.79373 6.29139 4.84593 6.58315 4.77809C6.87492 4.71026 7.07964 4.52327 7.19733 4.21711C7.31502 3.91095 7.28682 3.6387 7.11274 3.40038C6.94153 3.15458 6.63191 2.94557 6.18387 2.77334L4.38052 2.08014ZM4.53414 8.00154C5.01205 8.18525 5.40062 8.24462 5.69985 8.17966C6.00655 8.11757 6.22305 7.92225 6.34935 7.59368C6.59907 6.94403 6.24229 6.43406 5.27901 6.06378L3.16203 5.25001L2.41716 7.18778L4.53414 8.00154ZM15.5826 10.3844C15.574 10.4068 15.5025 10.5593 15.3682 10.8419L10.8094 9.08956C10.748 9.4945 10.8288 9.86408 11.0517 10.1983C11.2746 10.5326 11.6138 10.7872 12.0693 10.9623C12.383 11.0829 12.6765 11.1443 12.9499 11.1465C13.2336 11.1442 13.5188 11.0824 13.8053 10.9611L14.3475 12.3266C13.5303 12.7581 12.5765 12.7643 11.4863 12.3452C10.8068 12.084 10.2559 11.7223 9.83366 11.26C9.41428 10.7902 9.15313 10.2656 9.05021 9.68608C8.94729 9.10657 9.01065 8.51812 9.24028 7.92073C9.46704 7.33081 9.80899 6.85374 10.2661 6.4895C10.7336 6.12067 11.2602 5.89886 11.8461 5.82408C12.4422 5.74471 13.0428 5.82127 13.6476 6.05377C14.2375 6.28054 14.7226 6.61272 15.103 7.05031C15.4833 7.48791 15.716 7.99732 15.8011 8.57857C15.8966 9.15521 15.8237 9.75716 15.5826 10.3844ZM13.1508 7.37979C12.755 7.22766 12.3796 7.21194 12.0247 7.33262C11.6698 7.45331 11.3878 7.69632 11.1788 8.06166L14.147 9.20264C14.2337 8.79885 14.1857 8.43327 14.003 8.10592C13.8231 7.7711 13.5391 7.52906 13.1508 7.37979ZM19.595 15.0251C19.3745 15.086 19.1243 15.1013 18.8446 15.0709C18.5752 15.0359 18.3024 14.9653 18.0261 14.8591C17.3092 14.5835 16.8233 14.1867 16.5681 13.6687C16.3205 13.1536 16.333 12.5413 16.6057 11.8319L17.5572 9.35647L16.6276 8.9991L17.1442 7.65499L18.0739 8.01235L18.6379 6.54503L20.3853 7.2167L19.8213 8.68403L21.3222 9.26098L20.8055 10.6051L19.3046 10.0281L18.3617 12.4812C18.2641 12.735 18.2515 12.9573 18.3239 13.148C18.4066 13.3341 18.5675 13.473 18.8064 13.5649C19.0827 13.6711 19.3466 13.6869 19.5982 13.6121L19.595 15.0251ZM24.3314 16.8457C24.1108 16.9066 23.8607 16.9219 23.581 16.8915C23.3116 16.8565 23.0387 16.7859 22.7625 16.6797C22.0456 16.4042 21.5596 16.0074 21.3045 15.4893C21.0568 14.9742 21.0694 14.3619 21.342 13.6525L22.2936 11.1771L21.3639 10.8197L21.8806 9.47562L22.8103 9.83299L23.3743 8.36566L25.1216 9.03734L24.5576 10.5047L26.0585 11.0816L25.5419 12.4257L24.0409 11.8488L23.098 14.3018C23.0004 14.5557 22.9878 14.778 23.0602 14.9686C23.143 15.1547 23.3038 15.2937 23.5428 15.3855C23.8191 15.4917 24.083 15.5075 24.3345 15.4328L24.3314 16.8457ZM32.0669 16.7209C32.0582 16.7433 31.9868 16.8958 31.8524 17.1784L27.2936 15.426C27.2322 15.831 27.313 16.2006 27.5359 16.5348C27.7588 16.8691 28.0981 17.1237 28.5536 17.2988C28.8672 17.4194 29.1607 17.4808 29.4341 17.483C29.7178 17.4807 30.003 17.4189 30.2896 17.2976L30.8318 18.6631C30.0145 19.0946 29.0608 19.1008 27.9706 18.6817C27.291 18.4205 26.7401 18.0588 26.3179 17.5965C25.8985 17.1267 25.6374 16.6021 25.5344 16.0226C25.4315 15.4431 25.4949 14.8546 25.7245 14.2572C25.9513 13.6673 26.2932 13.1902 26.7503 12.826C27.2178 12.4572 27.7445 12.2354 28.3303 12.1606C28.9265 12.0812 29.527 12.1578 30.1318 12.3903C30.7218 12.617 31.2069 12.9492 31.5872 13.3868C31.9675 13.8244 32.2002 14.3338 32.2853 14.9151C32.3808 15.4917 32.308 16.0937 32.0669 16.7209ZM29.635 13.7163C29.2392 13.5642 28.8639 13.5484 28.5089 13.6691C28.154 13.7898 27.872 14.0328 27.663 14.3981L30.6313 15.5391C30.7179 15.1353 30.6699 14.7698 30.4872 14.4424C30.3074 14.1076 30.0233 13.8655 29.635 13.7163ZM35.7602 15.5694C36.0813 15.3586 36.446 15.2459 36.8543 15.2315C37.2702 15.2199 37.7096 15.3031 38.1726 15.4811L37.5526 17.094C37.3641 17.0045 37.2363 16.9468 37.1691 16.9209C36.6688 16.7286 36.2223 16.7198 35.8294 16.8945C35.4395 17.0617 35.1368 17.4253 34.9216 17.9854L33.8279 20.8304L32.0806 20.1587L34.397 14.1326L36.0659 14.7742L35.7602 15.5694ZM42.9544 24.4414C42.3122 24.1946 41.7837 23.8415 41.3689 23.382C40.9645 22.918 40.7071 22.3948 40.5967 21.8124C40.4938 21.2329 40.5571 20.6445 40.7868 20.0471C41.0164 19.4497 41.3635 18.9703 41.8281 18.609C42.3002 18.2505 42.8403 18.0381 43.4485 17.972C44.0671 17.9012 44.6975 17.9893 45.3397 18.2361C45.9744 18.4801 46.4753 18.8269 46.8424 19.2766C47.2199 19.7216 47.4222 20.2322 47.4493 20.8083L45.8141 21.0154C45.7129 20.3422 45.3673 19.8923 44.7774 19.6655C44.3219 19.4904 43.8874 19.4948 43.4739 19.6787C43.0603 19.8626 42.7546 20.2121 42.5565 20.7274C42.3584 21.2426 42.3514 21.707 42.5352 22.1205C42.7191 22.534 43.0388 22.8283 43.4943 23.0034C44.0917 23.2331 44.6497 23.1304 45.1682 22.6955L46.2394 23.9558C45.8391 24.3504 45.3484 24.5903 44.7671 24.6754C44.1934 24.7634 43.5891 24.6854 42.9544 24.4414ZM52.6642 21.0516C53.4109 21.3387 53.9259 21.7937 54.2092 22.4169C54.4999 23.0429 54.476 23.7965 54.1372 24.6776L52.8111 28.1275L51.0638 27.4558L52.2866 24.2747C52.4703 23.7968 52.5021 23.402 52.382 23.0901C52.2647 22.7708 52.0082 22.535 51.6125 22.3829C51.1719 22.2136 50.7678 22.2168 50.4003 22.3926C50.0356 22.561 49.7499 22.914 49.5432 23.4516L48.3979 26.4311L46.6506 25.7594L49.8454 17.4483L51.5927 18.12L50.4732 21.0322C50.7937 20.8897 51.1412 20.8219 51.5157 20.8287C51.893 20.828 52.2759 20.9024 52.6642 21.0516ZM57.2936 29.9534C56.6589 29.7094 56.1379 29.3592 55.7306 28.9026C55.3336 28.4415 55.0837 27.9211 54.9807 27.3416C54.8778 26.7621 54.9412 26.1737 55.1708 25.5763C55.4004 24.9789 55.7476 24.4995 56.2121 24.1382C56.6767 23.7768 57.2094 23.5616 57.8102 23.4925C58.4213 23.4189 59.0442 23.5041 59.6789 23.7481C60.3137 23.9921 60.8295 24.3446 61.2265 24.8058C61.6263 25.2594 61.8777 25.776 61.9806 26.3555C62.0836 26.9351 62.0202 27.5235 61.7906 28.1209C61.5609 28.7183 61.2138 29.1977 60.7492 29.559C60.2846 29.9204 59.7505 30.1393 59.1469 30.2158C58.5461 30.2849 57.9284 30.1974 57.2936 29.9534ZM57.8448 28.5197C58.2928 28.6919 58.7161 28.6832 59.1147 28.4936C59.5236 28.2994 59.8256 27.9484 60.0208 27.4406C60.216 26.9328 60.2254 26.4736 60.049 26.063C59.8829 25.6478 59.5759 25.354 59.1278 25.1818C58.6798 25.0096 58.2513 25.0206 57.8424 25.2148C57.4364 25.4015 57.1357 25.7488 56.9406 26.2566C56.7454 26.7643 56.7345 27.2273 56.9081 27.6454C57.0845 28.056 57.3967 28.3475 57.8448 28.5197ZM64.6333 32.7748C63.9986 32.5308 63.4776 32.1805 63.0703 31.724C62.6733 31.2628 62.4234 30.7425 62.3204 30.163C62.2175 29.5835 62.2809 28.995 62.5105 28.3976C62.7401 27.8003 63.0872 27.3209 63.5518 26.9595C64.0164 26.5981 64.5491 26.3829 65.1499 26.3139C65.761 26.2403 66.3839 26.3254 67.0186 26.5694C67.6534 26.8134 68.1692 27.166 68.5662 27.6271C68.966 28.0808 69.2174 28.5974 69.3203 29.1769C69.4233 29.7564 69.3599 30.3449 69.1303 30.9423C68.9006 31.5396 68.5535 32.019 68.0889 32.3804C67.6243 32.7417 67.0902 32.9607 66.4866 33.0372C65.8858 33.1062 65.2681 33.0188 64.6333 32.7748ZM65.1845 31.341C65.6325 31.5133 66.0558 31.5046 66.4544 31.315C66.8633 31.1207 67.1653 30.7697 67.3605 30.262C67.5557 29.7542 67.5651 29.295 67.3887 28.8843C67.2226 28.4691 66.9156 28.1754 66.4675 28.0032C66.0195 27.8309 65.591 27.8419 65.1821 28.0361C64.7761 28.2229 64.4754 28.5701 64.2803 29.0779C64.0851 29.5857 64.0742 30.0486 64.2478 30.4667C64.4242 30.8774 64.7364 31.1688 65.1845 31.341ZM71.133 35.2732C70.6326 35.0809 70.1665 34.8331 69.7345 34.5299C69.3054 34.2193 68.9849 33.9161 68.7729 33.6203L69.8375 32.5897C70.0403 32.8648 70.3106 33.1315 70.6484 33.3899C70.9891 33.6409 71.3423 33.8367 71.7082 33.9773C72.4475 34.2615 72.8874 34.2206 73.0281 33.8547C73.0941 33.683 73.0407 33.521 72.8678 33.3688C72.6948 33.2167 72.4093 33.0341 72.0113 32.8211C71.5471 32.5569 71.1732 32.3146 70.8894 32.0941C70.6056 31.8736 70.3916 31.5942 70.2474 31.256C70.1106 30.9206 70.1298 30.5251 70.3049 30.0696C70.4513 29.6888 70.6887 29.3944 71.0172 29.1864C71.356 28.9738 71.7661 28.8657 72.2474 28.8622C72.7362 28.8615 73.2681 28.9717 73.8431 29.1927C74.2687 29.3563 74.672 29.5671 75.0528 29.8249C75.444 30.0781 75.7462 30.3399 75.9593 30.6104L74.899 31.6299C74.4836 31.1274 73.9623 30.7556 73.335 30.5144C72.9617 30.3709 72.6616 30.3156 72.4347 30.3483C72.2078 30.3811 72.0628 30.4796 71.9997 30.6439C71.9279 30.8306 71.9785 31 72.1514 31.1522C72.3243 31.3044 72.6181 31.4988 73.0329 31.7353C73.4941 32.0069 73.8629 32.2515 74.1392 32.4691C74.4184 32.6793 74.6264 32.9521 74.7631 33.2875C74.8999 33.6229 74.8836 34.0109 74.7143 34.4515C74.5707 34.8248 74.331 35.1141 73.995 35.3192C73.6591 35.5243 73.243 35.6257 72.7467 35.6235C72.2608 35.6167 71.7229 35.5 71.133 35.2732ZM82.1431 35.97C82.1344 35.9924 82.063 36.1449 81.9286 36.4276L77.3698 34.6752C77.3084 35.0801 77.3892 35.4497 77.6121 35.7839C77.835 36.1182 78.1743 36.3728 78.6298 36.5479C78.9434 36.6685 79.2369 36.7299 79.5103 36.7321C79.794 36.7298 80.0792 36.668 80.3658 36.5468L80.908 37.9122C80.0907 38.3437 79.137 38.3499 78.0468 37.9308C77.3672 37.6696 76.8163 37.3079 76.3941 36.8456C75.9747 36.3759 75.7136 35.8512 75.6106 35.2717C75.5077 34.6922 75.5711 34.1037 75.8007 33.5063C76.0275 32.9164 76.3694 32.4394 76.8265 32.0751C77.294 31.7063 77.8207 31.4845 78.4065 31.4097C79.0027 31.3303 79.6032 31.4069 80.208 31.6394C80.798 31.8662 81.2831 32.1983 81.6634 32.6359C82.0437 33.0735 82.2764 33.5829 82.3615 34.1642C82.457 34.7408 82.3842 35.3428 82.1431 35.97ZM79.7112 32.9654C79.3154 32.8133 78.9401 32.7976 78.5851 32.9182C78.2302 33.0389 77.9482 33.2819 77.7392 33.6473L80.7075 34.7883C80.7941 34.3845 80.7461 34.0189 80.5634 33.6915C80.3836 33.3567 80.0995 33.1147 79.7112 32.9654Z" fill="white"/>
</svg>
