<svg width="47" height="24" viewBox="0 0 47 24" fill="none" xmlns="http://www.w3.org/2000/svg">
<path d="M26.5 17.0156H32.5C32.5 17.0156 33.8828 16.3357 34 15.5156C34.1381 14.5491 32.5 13.5156 32.5 13.5156H26" stroke="black"/>
<path d="M27 13.5156H33C33 13.5156 35 12.8441 35 12.0156C35 11.0156 33.5 9.51562 33.5 9.51562H27" stroke="black"/>
<path d="M10 19.0156H12.3141C13.7452 19.0156 15.1299 19.4404 16.421 20.0577C16.9384 20.3051 17.4198 20.5017 17.9261 20.678C18.6314 20.9237 19.379 21.0156 20.1258 21.0156H30C30 21.0156 32 20.1202 32 19.0156C32 17.9111 30 17.0156 30 17.0156H24.5" stroke="black"/>
<path d="M0 21.5156H9C9.55228 21.5156 10 21.0679 10 20.5156V7.51558M0 5.51558H9C9.55228 5.51558 10 5.9633 10 6.51558V7.51558M10 7.51558V7.51558C12.136 7.51558 14.0456 6.25036 15.2838 4.50985C16.5949 2.6669 18.4915 0.712872 20.5 1.01558C22.0737 1.25276 23.5757 2.85413 24.5153 4.07974C24.9852 4.69261 24.5291 5.51558 23.7569 5.51558H22H40C40 5.51558 41.5 6.53927 41.5 7.51558C41.5 8.49189 40 9.51558 40 9.51558H34H26.5" stroke="black"/>
<path d="M36.5999 15.6904L39.6573 11.822L42.7151 15.6903C43.8163 17.0833 43.6998 19.0801 42.4443 20.3357L42.1326 20.6474C40.7658 22.0142 38.5497 22.0142 37.1828 20.6474L36.8709 20.3355C35.6155 19.08 35.499 17.0833 36.5999 15.6904Z" stroke="black"/>
</svg>
