<svg width="35" height="35" viewBox="0 0 35 35" fill="none" xmlns="http://www.w3.org/2000/svg">
<path d="M1.3748 27.8906H1.31251C1.15918 27.8906 1.01213 27.8297 0.903709 27.7213C0.795292 27.6129 0.734383 27.4658 0.734383 27.3125V23.8438C0.734383 23.6904 0.795292 23.5434 0.903709 23.435C1.01213 23.3265 1.15918 23.2656 1.31251 23.2656H2.46876V22.1094H1.89063C1.7373 22.1094 1.59026 22.0485 1.48183 21.94C1.37342 21.8316 1.31251 21.6846 1.31251 21.5313C1.31251 21.3779 1.37342 21.2309 1.48183 21.1225C1.59026 21.014 1.7373 20.9531 1.89063 20.9531H6.51563C6.66896 20.9531 6.81601 21.014 6.92443 21.1225C7.03285 21.2309 7.09376 21.3779 7.09376 21.5313C7.09376 21.6846 7.03285 21.8316 6.92443 21.94C6.81601 22.0485 6.66896 22.1094 6.51563 22.1094H5.93751V23.7087C6.15416 23.9027 6.31874 24.1479 6.41619 24.4219H9.65709L10.8539 22.4769C12.2944 20.1359 14.8358 18.6983 17.5842 18.6698L20.3906 18.6406V16.9404C19.6033 16.5487 18.9277 15.9643 18.427 15.2414C17.9262 14.5185 17.6164 13.6807 17.5265 12.8059C16.8683 12.6771 16.2753 12.3238 15.8487 11.8063C15.4221 11.2889 15.1884 10.6394 15.1875 9.96875V5.34375C15.1891 3.96427 15.7377 2.64174 16.7132 1.6663C17.6886 0.690857 19.0112 0.142174 20.3906 0.140625H25.0156C26.3951 0.142174 27.7176 0.690857 28.6931 1.6663C29.6685 2.64174 30.2172 3.96427 30.2188 5.34375V9.96875C30.2178 10.6394 29.9841 11.2889 29.5575 11.8063C29.1309 12.3238 28.5379 12.6771 27.8798 12.8059C27.7899 13.6807 27.4801 14.5185 26.9793 15.2414C26.4785 15.9643 25.803 16.5487 25.0156 16.9404V18.6406L28.1608 18.7006C30.5753 18.7466 32.6119 20.5117 33.0004 22.8952L34.837 34.1621C34.8497 34.2445 34.8444 34.3287 34.8215 34.4088C34.7986 34.4889 34.7587 34.5632 34.7044 34.6264C34.6501 34.6897 34.5828 34.7405 34.5071 34.7753C34.4313 34.8101 34.349 34.8281 34.2656 34.8281H15.7656C15.6123 34.8281 15.4653 34.7672 15.3568 34.6588C15.2484 34.5504 15.1875 34.4033 15.1875 34.25V27.449L13.9702 29.8836C13.9222 29.9796 13.8484 30.0603 13.757 30.1168C13.6657 30.1732 13.5605 30.2031 13.4531 30.2031H8.20802C8.30755 30.8881 8.2297 31.5872 7.98193 32.2336C7.73416 32.8799 7.32475 33.4519 6.79282 33.8948C6.2609 34.3378 5.62425 34.6369 4.94374 34.7635C4.26323 34.8902 3.5616 34.8402 2.90593 34.6183C2.25025 34.3964 1.66246 34.0101 1.19872 33.4962C0.734993 32.9822 0.410828 32.358 0.257221 31.683C0.103615 31.0081 0.125698 30.305 0.321362 29.6411C0.517025 28.9771 0.879726 28.3744 1.3748 27.8906ZM1.89063 26.7344H4.78126C4.93453 26.7342 5.08148 26.6732 5.18986 26.5649C5.29824 26.4565 5.35921 26.3095 5.35938 26.1563V25C5.35921 24.8467 5.29824 24.6998 5.18986 24.5914C5.08148 24.483 4.93453 24.4221 4.78126 24.4219H1.89063V26.7344ZM4.78126 22.1094H3.62501V23.2656H4.78126V22.1094ZM25.825 20.4906L26.75 19.7969H24.7948L23.2813 22.8239V25.5781L25.5938 22.4948V20.9531C25.5938 20.8634 25.6147 20.7749 25.6548 20.6946C25.6949 20.6143 25.7532 20.5445 25.825 20.4906ZM22.125 22.8239L20.6115 19.7969H18.6563L19.5813 20.4906C19.6531 20.5445 19.7113 20.6143 19.7515 20.6946C19.7916 20.7749 19.8125 20.8634 19.8125 20.9531V22.4948L22.125 25.5781V22.8239ZM26.75 8.23438H18.6563V11.2134L21.2207 11.6408L21.6079 10.8664C21.656 10.7704 21.7298 10.6897 21.8211 10.6332C21.9124 10.5768 22.0176 10.5469 22.125 10.5469H23.2813C23.3886 10.5469 23.4938 10.5768 23.5852 10.6332C23.6765 10.6897 23.7503 10.7704 23.7983 10.8664L24.1855 11.6408L26.75 11.2134V8.23438ZM24.8791 7.07813L20.5886 4.93285L19.1584 7.07813H24.8791ZM17.5 11.6037V8.33381C17.162 8.45347 16.8694 8.67493 16.6625 8.96771C16.4556 9.2605 16.3445 9.61022 16.3445 9.96875C16.3445 10.3273 16.4556 10.677 16.6625 10.9698C16.8694 11.2626 17.162 11.484 17.5 11.6037ZM25.0156 1.29688H20.3906C19.3177 1.29808 18.2891 1.72483 17.5304 2.48351C16.7717 3.24218 16.345 4.27082 16.3438 5.34375V7.65784C16.7558 7.34732 17.2438 7.15342 17.7565 7.09648L19.9096 3.86679C19.9878 3.74955 20.1061 3.66491 20.2423 3.62875C20.3785 3.5926 20.5232 3.60742 20.6492 3.67044L27.4719 7.08181C28.0479 7.10996 28.6021 7.31066 29.0625 7.65784V5.34375C29.0613 4.27082 28.6345 3.24218 27.8759 2.48351C27.1172 1.72483 26.0886 1.29808 25.0156 1.29688ZM29.0625 9.96875C29.062 9.61023 28.9507 9.26064 28.7437 8.96792C28.5366 8.6752 28.2441 8.45371 27.9063 8.33381V11.6037C28.2441 11.4838 28.5366 11.2623 28.7437 10.9696C28.9507 10.6769 29.062 10.3273 29.0625 9.96875ZM26.7473 12.386L23.9544 12.8515C23.8325 12.8719 23.7072 12.8527 23.597 12.7966C23.4868 12.7404 23.3975 12.6505 23.3423 12.5398L22.924 11.7031H22.4823L22.0639 12.5398C22.0086 12.6504 21.9194 12.7403 21.8092 12.7964C21.699 12.8525 21.5738 12.8718 21.4519 12.8515L18.6589 12.386C18.6857 13.4409 19.1235 14.4435 19.879 15.1801C20.6345 15.9167 21.648 16.329 22.7031 16.329C23.7583 16.329 24.7717 15.9167 25.5272 15.1801C26.2827 14.4435 26.7206 13.4409 26.7473 12.386ZM22.7031 17.4844C22.314 17.4841 21.9262 17.4401 21.5469 17.3533V19.0823L22.7031 21.3948L23.8594 19.0823V17.3533C23.4801 17.4401 23.0922 17.4841 22.7031 17.4844ZM31.8799 22.5447C31.6367 20.9638 30.2765 19.7969 28.677 19.7969L26.75 21.2422V22.6875C26.75 22.8126 26.7094 22.9343 26.6344 23.0344L23.2813 27.5052V33.6719H29.0625V25C29.0625 24.8467 29.1234 24.6996 29.2318 24.5912C29.3403 24.4828 29.4873 24.4219 29.6406 24.4219C29.794 24.4219 29.941 24.4828 30.0494 24.5912C30.1578 24.6996 30.2188 24.8467 30.2188 25V33.6719H33.5918L31.8799 22.5447ZM13.0958 29.0469L15.2486 24.7414C15.3068 24.625 15.4027 24.5316 15.5206 24.4764C15.6386 24.4212 15.7717 24.4075 15.8985 24.4374C16.0252 24.4673 16.1381 24.5391 16.219 24.6413C16.2998 24.7434 16.3437 24.8698 16.3438 25V33.6719H22.125V27.5052L18.7719 23.0344C18.6968 22.9343 18.6563 22.8126 18.6563 22.6875V21.2422L16.7292 19.7969C14.8998 19.7969 13.2045 20.7567 12.2633 22.3255L10.4801 25.2974C10.4288 25.3831 10.3561 25.4539 10.2692 25.5031C10.1823 25.5523 10.0842 25.5781 9.98438 25.5781H6.51563V26.1563C6.51593 26.5461 6.38413 26.9246 6.14173 27.23C6.89035 27.6407 7.49099 28.2763 7.85876 29.0469H13.0958ZM4.20313 33.6719C4.77484 33.6719 5.33372 33.5023 5.80908 33.1847C6.28444 32.8671 6.65493 32.4156 6.87372 31.8874C7.0925 31.3593 7.14975 30.778 7.03821 30.2173C6.92668 29.6566 6.65137 29.1415 6.24711 28.7373C5.84285 28.333 5.32779 28.0577 4.76707 27.9462C4.20634 27.8346 3.62513 27.8919 3.09694 28.1107C2.56874 28.3295 2.11729 28.6999 1.79966 29.1753C1.48204 29.6507 1.31251 30.2095 1.31251 30.7813C1.31337 31.5476 1.61819 32.2824 2.1601 32.8243C2.70201 33.3662 3.43675 33.671 4.20313 33.6719Z" fill="black"/>
</svg>
