<svg width="37" height="37" viewBox="0 0 37 37" fill="none" xmlns="http://www.w3.org/2000/svg">
<path d="M34.9396 29.1184L32.9531 27.4638V22.5312C32.9531 21.8936 32.4345 21.375 31.7969 21.375H30.6406C30.003 21.375 29.4844 21.8936 29.4844 22.5312V27.4638L27.4979 29.1184C27.1574 29.4023 26.8736 29.7405 26.6429 30.1122L26.0156 29.2762V23.5407C28.9565 21.1137 30.6406 17.5582 30.6406 13.7351V12.5973C31.3118 12.358 31.7969 11.722 31.7969 10.9693V8.65683C31.7969 7.70061 31.0187 6.92245 30.0625 6.92245C29.859 6.92245 29.6659 6.96408 29.4844 7.02883V4.60938C29.4844 3.65316 28.7062 2.875 27.75 2.875C26.7938 2.875 26.0156 3.65316 26.0156 4.60938V7.02825C25.8341 6.9635 25.641 6.92188 25.4375 6.92188C24.4813 6.92188 23.7031 7.70003 23.7031 8.65625C23.7031 9.61247 24.4813 10.3906 25.4375 10.3906C25.641 10.3906 25.8341 10.349 26.0156 10.2842V10.3906C26.0156 15.1723 22.1254 19.0625 17.3438 19.0625H14.3537L14.1219 17.838C15.925 17.5345 17.3692 16.1719 17.7918 14.4115C19.8129 14.1872 21.3906 12.4707 21.3906 10.3906C21.3906 9.55986 21.1345 8.75453 20.6605 8.07812C21.1345 7.40172 21.3906 6.59639 21.3906 5.76562C21.3906 3.33981 19.2348 1.38864 16.7529 1.76442C15.9944 0.996672 14.9642 0.5625 13.875 0.5625C13.0442 0.5625 12.2395 0.819187 11.5625 1.29267C10.8855 0.819187 10.0808 0.5625 9.25 0.5625C7.20228 0.5625 5.50491 2.09164 5.23897 4.06767C3.26352 4.33303 1.73438 6.03041 1.73438 8.07812C1.73438 9.32977 2.31366 10.4987 3.28086 11.259C3.02648 11.6955 2.89062 12.1915 2.89062 12.7031C2.89062 14.1161 3.90986 15.2954 5.25169 15.5452C5.50144 16.887 6.68081 17.9062 8.09375 17.9062C8.28916 17.9062 8.48225 17.8802 8.67188 17.8415V19.1284C4.09312 19.7268 0.578125 23.6632 0.578125 28.3333V30.0469C0.578125 33.5532 3.43117 36.4062 6.9375 36.4062H14.4531C14.7867 36.4062 15.1024 36.3322 15.3891 36.2045C15.6342 36.3322 15.906 36.4062 16.1875 36.4062H19.6562C19.8817 36.4062 20.0956 36.36 20.2933 36.2814C20.5049 36.3612 20.7287 36.4062 20.957 36.4062H27.6055C27.976 36.4062 28.32 36.2947 28.6114 36.1085C29.0947 36.301 29.6145 36.4062 30.1371 36.4062H32.3004C34.573 36.4062 36.4219 34.5574 36.4219 32.2848C36.4219 31.058 35.8813 29.9035 34.9396 29.1184ZM31.7969 22.5312V24.8438H30.6406V22.5312H31.7969ZM28.2391 30.0064L30.6406 28.0049V26H31.7969V28.0049L34.1984 30.0064C34.7141 30.436 35.061 31.0193 35.1986 31.6616C35.0026 31.5789 34.8384 31.4604 34.6488 31.3188C34.2366 31.0095 33.7232 30.625 32.7595 30.625C31.7957 30.625 31.2829 31.01 30.8707 31.3188C30.5123 31.587 30.2539 31.7812 29.6757 31.7812C29.0982 31.7812 28.8398 31.5876 28.4819 31.3188C28.2426 31.139 27.9651 30.932 27.5841 30.7909C27.7558 30.4961 27.9726 30.2284 28.2391 30.0064ZM26.5065 31.857C26.3053 31.8107 26.081 31.7812 25.822 31.7812C24.8582 31.7812 24.3454 32.1663 23.9332 32.475C23.5748 32.7433 23.3164 32.9375 22.7382 32.9375C22.178 32.9375 21.9167 32.7537 21.5756 32.4981L23.7031 29.6613V28.3125H24.8594V29.6613L26.5065 31.857ZM19.0781 26.4741L20.4159 26.2064C21.1449 26.0607 21.8577 25.8485 22.5469 25.5803V29.2762L21.3906 30.8181V29.4688C21.3906 28.8311 20.872 28.3125 20.2344 28.3125H19.0781V26.4741ZM24.8594 27.1562H23.7031V26H24.8594V27.1562ZM24.8594 24.8438H23.7031V22.5312H24.8594V24.8438ZM30.0625 8.07812C30.3816 8.07812 30.6406 8.3377 30.6406 8.65625V10.9688C30.6406 11.2873 30.3816 11.5469 30.0625 11.5469C29.7434 11.5469 29.4844 11.2873 29.4844 10.9688V8.65625C29.4844 8.3377 29.7434 8.07812 30.0625 8.07812ZM27.75 4.03125C28.0691 4.03125 28.3281 4.29083 28.3281 4.60938V6.92188H27.1719V4.60938C27.1719 4.29083 27.4309 4.03125 27.75 4.03125ZM25.4375 9.23438C25.1184 9.23438 24.8594 8.9748 24.8594 8.65625C24.8594 8.3377 25.1184 8.07812 25.4375 8.07812C25.7566 8.07812 26.0156 8.3377 26.0156 8.65625C26.0156 8.9748 25.7566 9.23438 25.4375 9.23438ZM27.1719 8.07812H28.3281V12.125C28.3281 12.4435 28.0691 12.7031 27.75 12.7031C27.4309 12.7031 27.1719 12.4435 27.1719 12.125V8.07812ZM26.6701 13.4715C26.9672 13.7102 27.3395 13.8594 27.75 13.8594C28.5495 13.8594 29.2179 13.313 29.4173 12.5759C29.4387 12.5846 29.4624 12.5887 29.4844 12.5967V13.7351C29.4844 16.9217 28.1969 19.9037 25.9225 22.0786C25.7462 21.6652 25.3363 21.375 24.8594 21.375H23.7031C23.0655 21.375 22.5469 21.8936 22.5469 22.5312V24.3269C21.7918 24.6564 21.0021 24.9097 20.1893 25.0727L19.0781 25.2947V24.2656C19.0781 23.9463 18.8193 23.6875 18.5 23.6875C18.1807 23.6875 17.9219 23.9463 17.9219 24.2656V28.3125H15.6094V20.2188H17.3438C21.6866 20.2188 25.3739 17.3848 26.6701 13.4715ZM14.4531 31.7812H14.3774C14.2583 31.4008 14.0016 31.084 13.6692 30.8771L12.7442 24.4021L13.3501 23.4932L14.4531 24.0448V31.7812ZM11.3272 31.5373L11.2052 31.7812H10.4947L11.4856 24.8438H11.6388L12.4713 30.6712C11.9816 30.7713 11.5579 31.0765 11.3272 31.5373ZM9.03956 20.2477L10.5866 21.7947L8.67188 22.7521V20.2922C8.79328 20.2737 8.91642 20.2604 9.03956 20.2477ZM14.1143 20.2188H14.4531V22.7521L12.5384 21.7947L14.1143 20.2188ZM11.8313 23.6875H11.2937L10.8167 22.9724L11.5625 22.5995L12.3083 22.9724L11.8313 23.6875ZM8.67188 24.0448L9.77494 23.4932L10.3808 24.4021L9.32631 31.7812H8.67188V24.0448ZM16.7656 13.3489C16.7656 15.2243 15.24 16.75 13.3645 16.75C12.998 16.75 12.6361 16.691 12.2892 16.5754L11.1676 16.2014L10.8017 17.2981L11.9233 17.6721C12.2574 17.7831 12.6031 17.8409 12.9517 17.8727L13.25 19.4475L11.5625 21.1357L9.82812 19.4013V12.3458L7.98564 11.4249C7.696 11.2798 7.51562 10.9878 7.51562 10.6635C7.51562 10.1946 7.89719 9.8125 8.36662 9.8125H8.67188C8.67188 11.0878 9.70903 12.125 10.9844 12.125C12.2597 12.125 13.2969 11.0878 13.2969 9.8125H14.4531C14.4531 11.0878 15.4903 12.125 16.7656 12.125V13.3489ZM16.1875 6.34375C16.5066 6.34375 16.7656 6.60333 16.7656 6.92188V7.5C15.9135 7.5 15.1758 7.96828 14.7746 8.65625H12.9749C12.5736 7.96828 11.836 7.5 10.9838 7.5C10.5716 7.5 10.19 7.61736 9.85472 7.80698C9.98711 6.97969 10.6988 6.34375 11.5625 6.34375H16.1875ZM16.7656 10.9688C16.128 10.9688 15.6094 10.4502 15.6094 9.8125C15.6094 9.17483 16.128 8.65625 16.7656 8.65625C17.4033 8.65625 17.9219 9.17483 17.9219 9.8125C17.9219 10.4502 17.4033 10.9688 16.7656 10.9688ZM10.9844 8.65625C11.622 8.65625 12.1406 9.17483 12.1406 9.8125C12.1406 10.4502 11.622 10.9688 10.9844 10.9688C10.3467 10.9688 9.82812 10.4502 9.82812 9.8125C9.82812 9.17483 10.3467 8.65625 10.9844 8.65625ZM8.09375 16.75C7.13753 16.75 6.35938 15.9718 6.35938 15.0156V14.4375H5.78125C4.82503 14.4375 4.04688 13.6593 4.04688 12.7031C4.04688 12.262 4.21742 11.8394 4.52614 11.5133L5.04067 10.9711L4.38623 10.6097C3.46355 10.0998 2.89062 9.12973 2.89062 8.07812C2.89062 6.48423 4.18736 5.1875 5.78125 5.1875H6.35938V4.60938C6.35938 3.01548 7.65611 1.71875 9.25 1.71875C9.95936 1.71875 10.6433 1.9818 11.1769 2.45933L11.5625 2.80505L11.9481 2.45933C12.4817 1.9818 13.1656 1.71875 13.875 1.71875C14.7364 1.71875 15.5469 2.09916 16.099 2.76284L16.328 3.03861L16.6772 2.95594C18.5821 2.50789 20.2344 3.95667 20.2344 5.76562C20.2344 6.47556 19.9713 7.16006 19.4938 7.69194L19.1469 8.07812L19.4938 8.46431C19.9713 8.99619 20.2344 9.68069 20.2344 10.3906C20.2344 11.7862 19.2394 12.954 17.9219 13.2229V11.8036C18.6098 11.4023 19.0781 10.6647 19.0781 9.8125C19.0781 8.96034 18.6098 8.22266 17.9219 7.82144V6.92188C17.9219 5.96566 17.1437 5.1875 16.1875 5.1875H13.875C13.5559 5.1875 13.2969 4.92792 13.2969 4.60938C13.2969 4.29083 13.5559 4.03125 13.875 4.03125H14.4531V2.875H13.875C12.9188 2.875 12.1406 3.65316 12.1406 4.60938C12.1406 4.81287 12.1823 5.00597 12.247 5.1875H11.5625C9.96861 5.1875 8.67188 6.48423 8.67188 8.07812V8.65625H8.36662C7.26009 8.65625 6.35938 9.55697 6.35938 10.6635C6.35938 11.4289 6.7843 12.1169 7.4688 12.4586L8.67188 13.0604V16.6378C8.4863 16.7037 8.29378 16.75 8.09375 16.75ZM1.73438 30.0469V28.3333C1.73438 24.7015 4.16366 21.5762 7.51562 20.5546V31.7812H6.9375C5.98128 31.7812 5.20312 31.0031 5.20312 30.0469V26.5781C5.20312 26.2588 4.94429 26 4.625 26C4.30571 26 4.04688 26.2588 4.04688 26.5781V30.0469C4.04688 31.6408 5.34361 32.9375 6.9375 32.9375H10.9844V35.25H6.9375C4.06827 35.25 1.73438 32.9155 1.73438 30.0469ZM12.1406 35.25V32.4958L12.3615 32.0541C12.4453 31.8859 12.6147 31.7812 12.8032 31.7812C13.0749 31.7812 13.2969 32.0027 13.2969 32.275V32.9375H14.4531C15.0908 32.9375 15.6094 33.4561 15.6094 34.0938C15.6094 34.7314 15.0908 35.25 14.4531 35.25H12.1406ZM16.4442 35.25C16.6431 34.9083 16.7656 34.5169 16.7656 34.0938C16.7656 33.2416 16.2973 32.5039 15.6094 32.1027V29.4688H20.2344V30.625H17.9219V31.7812H20.2344V32.9375H19.0781V34.0938H20.2344V34.6719C20.2344 34.9904 19.9754 35.25 19.6562 35.25H16.4442ZM27.6055 35.25H21.2843C21.349 35.0685 21.3906 34.8754 21.3906 34.6719V33.7631C21.7236 33.9475 22.1451 34.0938 22.7382 34.0938C23.702 34.0938 24.2148 33.7087 24.627 33.4C24.9854 33.1317 25.2438 32.9375 25.822 32.9375C26.4007 32.9375 26.6591 33.1317 27.0175 33.4C27.2869 33.6023 27.6228 33.8405 28.0969 33.9781L28.1836 34.0938C28.2767 34.2186 28.3281 34.3724 28.3281 34.5273C28.3281 34.9257 28.0038 35.25 27.6055 35.25ZM32.3004 35.25H30.1371C29.874 35.25 29.6191 35.213 29.3711 35.1471C29.4399 34.9523 29.4844 34.7459 29.4844 34.5273C29.4844 34.1238 29.3514 33.7232 29.1086 33.4L28.6149 32.7415C28.8987 32.8566 29.2393 32.9375 29.6757 32.9375C30.6395 32.9375 31.1523 32.5525 31.5645 32.2437C31.9229 31.9755 32.1813 31.7812 32.7595 31.7812C33.3382 31.7812 33.5966 31.9749 33.955 32.2437C34.2649 32.4762 34.6326 32.7513 35.2061 32.8733C34.932 34.2273 33.7336 35.25 32.3004 35.25Z" fill="black"/>
</svg>
