<svg width="48" height="48" viewBox="0 0 48 48" fill="none" xmlns="http://www.w3.org/2000/svg">
<path d="M4.61328 24C4.61328 26.2091 6.40414 28 8.61328 28C10.8224 28 12.6133 26.2091 12.6133 24C12.6133 21.7909 10.8224 20 8.61328 20C6.40415 20 4.61328 21.7909 4.61328 24Z" fill="#178A9F"/>
<path d="M35.4933 43.68C39.1919 37.77 41.1533 30.9386 41.1533 23.9667C41.1533 16.9947 39.1919 10.1634 35.4933 4.25333C35.3531 4.02382 35.1684 3.82471 34.95 3.66778C34.7316 3.51084 34.484 3.39925 34.2217 3.33959C33.9595 3.27993 33.688 3.27342 33.4232 3.32044C33.1584 3.36745 32.9057 3.46705 32.68 3.61333L32.4533 3.76C32.0288 4.04121 31.7285 4.47468 31.6144 4.97091C31.5002 5.46714 31.581 5.98826 31.84 6.42667C35.1352 11.6713 36.8833 17.7394 36.8833 23.9333C36.8833 30.1272 35.1352 36.1954 31.84 41.44C31.581 41.8784 31.5002 42.3995 31.6144 42.8958C31.7285 43.392 32.0288 43.8255 32.4533 44.1067L32.68 44.2533C32.9016 44.4026 33.1508 44.5063 33.4129 44.5583C33.6751 44.6103 33.9449 44.6097 34.2068 44.5563C34.4687 44.5029 34.7173 44.3979 34.9382 44.2475C35.1591 44.0971 35.3478 43.9041 35.4933 43.68Z" fill="#178A9F"/>
<path d="M27.4133 38.4267C30.107 34.0822 31.5342 29.0718 31.5342 23.96C31.5342 18.8482 30.107 13.8379 27.4133 9.49333C27.2709 9.26782 27.0852 9.07283 26.8669 8.91969C26.6486 8.76655 26.402 8.6583 26.1415 8.60124C25.881 8.54418 25.6117 8.53943 25.3494 8.58729C25.0871 8.63514 24.8368 8.73464 24.6133 8.88L24.3866 9.02667C23.9621 9.30788 23.6618 9.74134 23.5476 10.2376C23.4335 10.7338 23.5143 11.2549 23.7733 11.6933C26.0554 15.368 27.2648 19.6076 27.2648 23.9333C27.2648 28.2591 26.0554 32.4986 23.7733 36.1733C23.5143 36.6117 23.4335 37.1329 23.5476 37.6291C23.6618 38.1253 23.9621 38.5588 24.3866 38.84L24.6133 38.9867C24.8336 39.1345 25.0811 39.2373 25.3413 39.2892C25.6016 39.3411 25.8695 39.341 26.1297 39.2889C26.3899 39.2369 26.6373 39.1339 26.8576 38.9859C27.0778 38.838 27.2667 38.6479 27.4133 38.4267Z" fill="#178A9F"/>
<path d="M19.3468 33.1733C21.0195 30.3912 21.9033 27.2062 21.9033 23.96C21.9033 20.7138 21.0195 17.5288 19.3468 14.7467C19.2057 14.5216 19.0212 14.3269 18.8041 14.1739C18.5869 14.0209 18.3415 13.9127 18.0821 13.8556C17.8227 13.7985 17.5545 13.7937 17.2932 13.8414C17.0319 13.889 16.7827 13.9883 16.5601 14.1333L16.3468 14.2667C15.9132 14.5601 15.6099 15.0099 15.5005 15.5219C15.3912 16.0339 15.4842 16.5684 15.7601 17.0133C16.9994 19.1186 17.653 21.5171 17.653 23.96C17.653 26.4029 16.9994 28.8014 15.7601 30.9067C15.4855 31.3532 15.3946 31.8888 15.5064 32.401C15.6183 32.9131 15.9243 33.362 16.3601 33.6533L16.5735 33.7867C16.795 33.9314 17.0431 34.0304 17.3034 34.0779C17.5637 34.1254 17.8308 34.1205 18.0891 34.0633C18.3475 34.0062 18.5918 33.8981 18.8078 33.7452C19.0237 33.5924 19.207 33.398 19.3468 33.1733Z" fill="#178A9F"/>
</svg>
