<svg width="68" height="68" viewBox="0 0 68 68" fill="none" xmlns="http://www.w3.org/2000/svg">
<g clip-path="url(#clip0)">
<mask id="mask0" mask-type="alpha" maskUnits="userSpaceOnUse" x="0" y="0" width="68" height="68">
<path d="M34.1992 68C52.8669 68 68 52.8669 68 34.1992C68 15.5316 52.8669 0.398438 34.1992 0.398438C15.5316 0.398438 0.398438 15.5316 0.398438 34.1992C0.398438 52.8669 15.5316 68 34.1992 68Z" fill="#C0E8EF"/>
</mask>
<g mask="url(#mask0)">
<path d="M34.1992 68C52.8669 68 68 52.8669 68 34.1992C68 15.5316 52.8669 0.398438 34.1992 0.398438C15.5316 0.398438 0.398438 15.5316 0.398438 34.1992C0.398438 52.8669 15.5316 68 34.1992 68Z" fill="#58C4D9"/>
<path d="M63.75 63.6371V68.9529H27.7412L26.0105 67.2098L24.2549 68.9529H15.7383L14.0117 67.2098L12.2519 68.9529H4.25V63.6371C4.25 57.9207 8.58815 53.1363 14.2778 52.5796L18.2883 52.1868L20.0675 53.8742L21.7746 51.8463L25.5003 51.4814H42.4997L46.2254 51.8463L47.8709 53.8673L49.7117 52.1868L53.7222 52.5796C59.4118 53.1363 63.75 57.9207 63.75 63.6371Z" fill="#E6E9ED"/>
<path fill-rule="evenodd" clip-rule="evenodd" d="M63.75 66.031H30.5303H27.7412L27.7412 66.0311H63.75V66.031ZM24.2549 66.031H18.5273H15.7382L15.7383 66.0311H24.2549L24.2549 66.031ZM12.252 66.031L12.2519 66.0311H4.25V63.6371C4.25 57.9207 8.58815 53.1363 14.2778 52.5796L18.2883 52.1868L18.5495 52.4346L17.0669 52.5796C11.3772 53.1363 7.03906 57.9207 7.03906 63.6371V66.031H12.252ZM21.5244 52.1436L24.5637 51.8463L28.2892 51.4814H25.5003L21.7746 51.8463L21.5244 52.1436Z" fill="#CFD2D5"/>
<path d="M48.0781 23.3078V27.2266L34 33.668L19.9219 27.2266V23.3078C19.9219 16.1561 26.2254 10.3594 34 10.3594C41.7746 10.3594 48.0781 16.1561 48.0781 23.3078Z" fill="#E6E9ED"/>
<path fill-rule="evenodd" clip-rule="evenodd" d="M35.2361 10.4085C28.0404 10.9834 22.3941 16.53 22.3941 23.2885V27.2014L30.6409 30.4059L19.9219 27.2014V23.2885C19.9219 16.1475 26.2254 10.3594 34 10.3594C34.4165 10.3594 34.8288 10.376 35.2361 10.4085Z" fill="#CFD2D5"/>
<path d="M42.3665 43.0312V51.46L33.8669 59.2415L25.3672 51.46V43.0312H42.3665Z" fill="#FFCBBE"/>
<path fill-rule="evenodd" clip-rule="evenodd" d="M33.8669 59.2415L35.4606 57.7824L28.5547 51.46V43.0312H25.3672V51.46L33.8669 59.2415Z" fill="#EAAC9D"/>
<path d="M21.7746 55.4983V51.8231L18.2883 52.1636V55.4821C14.8374 56.2624 12.252 59.3512 12.252 63.0346V66.0078H15.7383V63.0346C15.7383 60.6865 17.6486 58.7763 19.9966 58.7763C22.3446 58.7763 24.2549 60.6865 24.2549 63.0346V68H27.7412V63.0346C27.7412 59.3761 25.1905 56.3042 21.7746 55.4983Z" fill="#92E5EB"/>
<path d="M23.1726 32.9375C21.304 32.9375 19.7891 31.4199 19.7891 29.5479C19.7891 29.2902 19.8178 29.0393 19.8721 28.7981C20.311 26.8507 23.1726 27.1701 23.1726 29.1666H44.8274C44.8274 27.1701 47.689 26.8507 48.1279 28.7981C48.1822 29.0393 48.2109 29.2902 48.2109 29.5479C48.2109 31.4199 46.696 32.9375 44.8274 32.9375" fill="#EAAC9D"/>
<path d="M23.3036 30.9453C23.1141 30.9453 22.9276 30.8524 22.8102 30.6787C22.7956 30.6577 22.2519 29.8865 21.6804 30.1272C21.3717 30.2571 21.0201 30.1014 20.8955 29.779C20.7709 29.4568 20.9203 29.0901 21.2292 28.9601C21.8459 28.7004 22.5172 28.8049 23.1193 29.2539C23.5243 29.5559 23.7709 29.9158 23.7976 29.9559C23.9883 30.2408 23.9214 30.6331 23.6483 30.832C23.5431 30.9086 23.4227 30.9453 23.3036 30.9453Z" fill="#EDD1A1"/>
<path d="M44.829 30.9453C44.7088 30.9453 44.5877 30.908 44.4824 30.8303C44.2114 30.6303 44.145 30.241 44.3349 29.957C44.3616 29.9168 44.6082 29.5566 45.0132 29.2543C45.6153 28.8047 46.2866 28.7004 46.9036 28.9602C47.2125 29.0904 47.3619 29.4574 47.2373 29.78C47.1127 30.1025 46.7613 30.2585 46.4523 30.1285C45.8758 29.8855 45.3276 30.673 45.3221 30.6809C45.2041 30.8531 45.0178 30.9453 44.829 30.9453Z" fill="#EDD1A1"/>
<path d="M45.0321 24.8657V35.6743L34.1118 37.5093L23.1914 35.6743V24.8657C23.1914 23.327 23.8155 21.9325 24.8242 20.9238C25.8329 19.9151 27.2251 19.291 28.7649 19.291C29.1158 19.291 29.4598 19.3607 29.7782 19.4921C30.0967 19.6245 30.3884 19.8186 30.637 20.0673C31.5969 21.026 32.8543 21.506 34.1118 21.506C35.3692 21.506 36.6266 21.026 37.5865 20.0673C37.8352 19.8186 38.1268 19.6245 38.4453 19.4921C38.7637 19.3607 39.1077 19.291 39.4586 19.291C40.9984 19.291 42.3906 19.9151 43.3993 20.9238C44.408 21.9325 45.0321 23.327 45.0321 24.8657Z" fill="#FFCBBE"/>
<path fill-rule="evenodd" clip-rule="evenodd" d="M35.5081 37.2747L25.9839 35.6743V24.8656C25.9839 23.327 26.6079 21.9325 27.6167 20.9238C28.2457 20.2947 29.0239 19.8153 29.8939 19.5435C29.8558 19.5254 29.8172 19.5083 29.7782 19.4921C29.4598 19.3607 29.1158 19.291 28.7649 19.291C27.2251 19.291 25.8329 19.9151 24.8242 20.9238C23.8155 21.9325 23.1914 23.327 23.1914 24.8657V35.6743L34.1118 37.5093L35.5081 37.2747Z" fill="#EAAC9D"/>
<path d="M49.7108 56.777V52.1636L46.2244 51.8231V56.777C44.4469 57.4738 43.1875 59.2031 43.1875 61.2277C43.1875 63.8677 45.3276 66.0078 47.9676 66.0078C50.6076 66.0078 52.7477 63.8677 52.7477 61.2277C52.7477 59.2031 51.4883 57.4736 49.7108 56.777Z" fill="#2070A1"/>
<path d="M40.2172 40.3443C40.2172 40.3443 36.7624 47.3269 34.0004 47.3269C30.9847 47.3269 28.255 46.0254 26.2782 43.9219C24.3026 41.8185 23.0801 38.9121 23.0801 35.7023V35.6408H27.4717C28.9429 35.6408 30.3642 35.1155 31.4821 34.1602L34.0004 32.008L40.2172 40.3443Z" fill="#CFD2D5"/>
<path d="M44.9203 35.6408V35.7023C44.9203 42.1218 40.0313 47.3269 34 47.3269V32.008L36.5183 34.1602C37.6362 35.1155 39.0575 35.6408 40.5287 35.6408H44.9203Z" fill="#E6E9ED"/>
<path d="M39.2462 30.9453C38.0188 30.9453 36.9176 30.237 36.4405 29.1408C36.3047 28.8287 36.4557 28.469 36.7779 28.3374C37.1 28.2058 37.4713 28.3522 37.6071 28.6643C37.8858 29.3049 38.5292 29.7187 39.2461 29.7187C39.963 29.7187 40.6064 29.3049 40.8851 28.6643C41.0209 28.3522 41.3921 28.2059 41.7143 28.3374C42.0365 28.469 42.1875 28.8287 42.0517 29.1408C41.5749 30.237 40.4736 30.9453 39.2462 30.9453Z" fill="#EDD1A1"/>
<path d="M28.754 30.9453C27.5266 30.9453 26.4254 30.237 25.9483 29.1408C25.8125 28.8287 25.9635 28.469 26.2857 28.3374C26.6079 28.2058 26.9791 28.3522 27.1149 28.6643C27.3937 29.3049 28.037 29.7187 28.7539 29.7187C29.4708 29.7187 30.1142 29.3049 30.3929 28.6643C30.5287 28.3522 30.8999 28.2059 31.2221 28.3374C31.5443 28.469 31.6953 28.8287 31.5595 29.1408C31.0826 30.237 29.9813 30.9453 28.754 30.9453Z" fill="#EDD1A1"/>
</g>
<mask id="mask1" mask-type="alpha" maskUnits="userSpaceOnUse" x="0" y="0" width="68" height="69">
<path d="M34.1992 68.0005C52.8669 68.0005 68 52.8674 68 34.1997C68 15.5321 52.8669 0.398926 34.1992 0.398926C15.5316 0.398926 0.398438 15.5321 0.398438 34.1997C0.398438 52.8674 15.5316 68.0005 34.1992 68.0005Z" fill="#C0E8EF"/>
</mask>
<g mask="url(#mask1)">
<path d="M34.1992 68.0005C52.8669 68.0005 68 52.8674 68 34.1997C68 15.5321 52.8669 0.398926 34.1992 0.398926C15.5316 0.398926 0.398438 15.5321 0.398438 34.1997C0.398438 52.8674 15.5316 68.0005 34.1992 68.0005Z" fill="#58C4D9"/>
<g clip-path="url(#clip1)">
<path d="M4.92938 57.717C12.0815 58.7828 19.2587 53.674 20.5749 46.541L3.75592 39.4903L4.92938 57.717Z" fill="#E55D48"/>
<path d="M4.77447 55.3395L4.78465 55.9637C9.81466 56.4878 17.1277 52.9005 18.9895 45.8133L18.3955 45.6441C16.5843 51.4718 10.874 55.5365 4.77447 55.3395Z" fill="#58C4D9"/>
<path d="M4.78609 55.9638L4.88413 57.7094C12.0549 58.8014 19.2583 53.674 20.5821 46.4962L18.9909 45.8133C17.2615 51.9776 11.132 56.3405 4.78609 55.9638Z" fill="#208699"/>
<path d="M6.36939 52.0343C6.127 51.6938 6.14038 50.3819 6.14038 50.3819C6.14038 50.3819 7.42917 50.8064 7.67155 51.1469C7.91394 51.4875 7.83845 51.9358 7.47173 52.1969C7.10501 52.4579 6.61178 52.3749 6.36939 52.0343Z" fill="#404150"/>
<path d="M10.4749 50.9273C10.2325 50.5868 10.2458 49.2749 10.2458 49.2749C10.2458 49.2749 11.5346 49.6994 11.777 50.0399C12.0194 50.3805 11.9439 50.8289 11.5772 51.0899C11.2105 51.3509 10.7172 51.2679 10.4749 50.9273Z" fill="#404150"/>
<path d="M10.4338 46.3786C10.1915 46.0381 10.2048 44.7262 10.2048 44.7262C10.2048 44.7262 11.4936 45.1506 11.736 45.4912C11.9784 45.8317 11.9029 46.2801 11.5362 46.5411C11.1695 46.8021 10.6762 46.7191 10.4338 46.3786Z" fill="#404150"/>
<path d="M14.6331 47.731C14.3907 47.3905 14.4041 46.0786 14.4041 46.0786C14.4041 46.0786 15.6928 46.5031 15.9352 46.8436C16.1776 47.1841 16.1021 47.6325 15.7354 47.8935C15.35 48.1284 14.8754 48.0715 14.6331 47.731Z" fill="#404150"/>
<path d="M6.02173 45.336C5.77935 44.9955 5.79273 43.6836 5.79273 43.6836C5.79273 43.6836 7.05532 44.1267 7.29771 44.4673C7.54009 44.8078 7.4646 45.2562 7.09788 45.5172C6.73871 45.7334 6.26412 45.6766 6.02173 45.336Z" fill="#404150"/>
<path d="M12.584 54.0032L13.9078 55.863C14.5999 55.4493 15.2548 54.9832 15.8724 54.4647L14.5486 52.6049C13.9572 53.1047 13.2761 53.5895 12.584 54.0032Z" fill="#116878"/>
<path d="M6.98643 55.8964L7.49157 57.8258C8.30268 57.801 9.11024 57.6603 9.89916 57.4934L9.34564 55.4405C8.59401 55.6598 7.78645 55.8005 6.98643 55.8964Z" fill="#116878"/>
<path d="M18.198 47.9163C17.8455 48.6408 17.4481 49.3577 16.9686 50.0148L18.7271 51.21C19.1431 50.5192 19.5405 49.8022 19.8295 49.044L18.198 47.9163Z" fill="#116878"/>
</g>
<path d="M14.3062 24.0057C14.0956 23.8225 13.8647 23.6714 13.7021 23.4661C13.4202 23.1057 13.1031 22.7416 12.9398 22.3251C12.7299 21.781 13.0341 21.3278 13.6921 21.01C13.5306 20.7677 13.3026 20.547 13.2233 20.282C13.0762 19.793 12.9081 19.2718 12.9413 18.7774C12.9878 18.0733 13.4352 17.8733 14.4327 17.979C14.5712 17.2546 14.4864 16.3199 15.463 16.1338C16.3713 15.9606 16.6945 16.7576 17.0975 17.406C17.2304 17.3215 17.339 17.2515 17.453 17.185C18.0444 16.836 18.6978 16.9856 18.9248 17.6798C19.1442 18.3504 19.132 19.0952 19.2234 19.8308C20.4171 19.8472 20.5809 20.5049 19.8461 22.6477C20.1553 22.924 20.5517 23.1167 20.6757 23.4178C20.873 23.9049 20.522 24.3018 20.1498 24.6139C19.4038 25.2406 19.0445 26.0575 18.9907 27.0091C18.948 27.8134 18.9476 28.6222 19.028 29.4224C19.3849 28.5324 19.6672 27.6062 20.1149 26.7628C20.6228 25.8074 21.2552 24.9163 21.8841 24.0306C22.0382 23.8127 22.3932 23.7457 22.6435 23.5893C22.8451 23.462 23.0385 23.3182 23.2122 23.158C23.7909 22.6165 24.0508 22.5866 24.7056 23.0232C25.2418 22.6427 25.7541 22.5593 26.1577 23.242C26.1951 23.3073 26.3572 23.3128 26.462 23.3195C26.5783 23.326 26.693 23.2937 26.809 23.2887C27.4342 23.2585 28.0748 23.2984 28.3865 23.9187C28.7175 24.5739 28.3922 25.1604 27.9671 25.6794C27.8589 25.8136 27.739 25.9366 27.6306 26.0594C28.1661 26.7773 28.0381 27.2375 27.2015 27.558C26.8434 27.6946 26.4521 27.7535 26.0755 27.8483C26.1738 29.0097 25.883 29.2119 24.249 29.0952C24.0286 29.9894 23.7004 30.1677 22.7972 29.8963C22.0171 29.6621 21.5698 29.7381 21.1415 30.4508C20.8044 31.0147 20.6633 31.696 20.4623 32.3355C20.402 32.5303 20.4373 32.7523 20.3545 32.7936L17.9115 33.3199C17.7327 33.0515 17.4752 32.5938 17.1487 32.1973C16.9321 31.935 16.6382 31.7174 16.3408 31.5465C15.568 31.1062 15.1733 31.1705 14.5023 31.7623C13.8357 32.3531 13.3693 32.3114 12.9588 31.6394C12.5053 31.8017 12.0681 32.027 11.6049 32.1041C11.0067 32.2042 10.7811 31.7969 10.7861 31.2582C10.233 31.323 9.71649 31.4602 9.21504 31.4263C8.49948 31.38 8.33706 31.0506 8.5851 30.3019C8.38616 30.2127 8.17772 30.1324 7.97758 30.0273C7.42605 29.7357 6.93594 29.3478 6.9547 28.6636C6.97073 28.019 7.46821 27.6816 8.01226 27.4717C8.39736 27.3223 8.69604 27.208 8.81994 26.7188C8.95606 26.181 9.47577 26.2039 9.92387 26.2979C10.3161 25.6299 10.5607 25.5413 11.2693 25.7638C11.6023 25.8671 11.9054 26.1056 12.3062 25.8608C12.4314 25.7826 12.7174 25.9123 12.9049 26.0018C14.6075 26.8132 16.1149 27.8952 17.3513 29.3312C17.4631 29.4627 17.5844 29.5853 17.7013 29.7088C17.7076 29.7165 17.7356 29.7081 17.841 29.6963C17.095 28.0576 16.6033 26.2801 14.5595 25.744C14.3958 25.6998 14.227 25.6223 14.0911 25.5167C13.5018 25.0543 13.5632 24.5628 14.3062 24.0057Z" fill="#404150"/>
<path d="M23.3386 31.7036C20.8274 30.7264 16.9376 32.1285 15.1631 34.1198C12.5326 36.7392 13.3 39.6597 14.3239 42.4729C14.3902 42.6581 14.6005 42.7471 14.7812 42.6704C15.4513 42.3867 16.1466 42.1228 16.8661 41.8856C17.2429 41.7609 17.4883 42.2788 17.1511 42.4889C16.4367 42.9363 15.7573 43.3759 15.1113 43.8105C14.9793 43.8994 14.9247 44.0678 14.9814 44.2206C16.2215 47.4915 17.5209 50.74 18.8115 53.9905C18.8829 54.1677 19.0808 54.2526 19.2564 54.184C19.6965 54.0132 20.1446 53.8475 20.6027 53.6956C20.9856 53.5673 21.2347 54.0912 20.8913 54.305C20.435 54.5897 19.9946 54.8731 19.5629 55.1547C19.4265 55.2445 19.3745 55.4146 19.4339 55.5691C20.2317 57.5984 20.985 59.6443 21.7994 61.6652C22.9326 64.4841 24.9911 67.6223 26.4807 67.5641C27.8412 67.5138 29.4046 63.9126 29.038 60.3108C28.9381 59.3289 28.926 58.3391 28.8823 57.3516C28.8754 57.1854 28.7513 57.0498 28.587 57.024C28.1148 56.9561 27.6322 56.8928 27.138 56.8297C26.741 56.7797 26.7453 56.2066 27.1422 56.1625C27.5899 56.1095 28.0362 56.0706 28.4757 56.0424C28.6638 56.0306 28.8058 55.8729 28.7958 55.6821C28.6225 52.1961 28.4694 48.7079 28.3533 45.2207C28.3491 45.0563 28.2293 44.9196 28.065 44.8939C27.2722 44.7682 26.4443 44.6503 25.5797 44.5427C25.1853 44.4944 25.1896 43.9213 25.5838 43.8755C26.3881 43.7827 27.1843 43.7262 27.9627 43.7035C28.1544 43.6978 28.3035 43.5408 28.2962 43.3517C28.2709 42.4889 28.2411 41.627 28.2202 40.7632C28.1235 36.8444 27.0757 33.5908 23.3386 31.7036Z" fill="#E55D48"/>
<path d="M49.0104 39.9283C49.3594 40.7214 48.8518 43.3863 48.8518 43.3863C48.8518 43.3863 46.4724 41.9904 46.1234 41.1973C45.7744 40.4041 46.1234 39.4841 46.9165 39.1351C47.7097 38.7862 48.6614 39.1351 49.0104 39.9283Z" fill="#404150"/>
<path d="M49.612 43.545H48.7871C48.7871 42.1808 49.5485 39.8649 52.5941 39.8649V40.6897C49.834 40.6897 49.612 43.2912 49.612 43.545Z" fill="#404150"/>
<path d="M49.2003 43.3863C46.8844 41.0386 40 40.9434 40 47.6692C40 51.9203 45.0126 58.0433 47.2016 58.0433C48.1851 58.0433 48.5341 57.4088 49.1369 57.4088C49.7079 57.4088 49.8983 58.0433 51.1673 58.0433C53.3563 58.0433 58.4006 51.9521 58.4006 47.6692C58.4006 40.9434 51.5162 41.0386 49.2003 43.3863Z" fill="#E55D48"/>
<path d="M63.4795 37.2271C63.4148 37.2776 63.4417 37.808 63.4639 37.8531C64.0055 38.9965 63.3631 41.8457 63.2507 42.2442C62.9931 43.1645 63.2606 44.2825 63.7222 44.221C64.167 44.162 64.9385 42.327 65.1083 41.9678C65.5204 41.0824 65.7158 39.9193 65.6232 38.9108C65.5277 37.8461 64.5115 36.4458 63.4795 37.2271Z" fill="#404150"/>
<path d="M65.2026 52.0418C66.5928 52.0418 67.7197 50.9148 67.7197 49.5247C67.7197 48.1346 66.5928 47.0076 65.2026 47.0076C63.8125 47.0076 62.6855 48.1346 62.6855 49.5247C62.6855 50.9148 63.8125 52.0418 65.2026 52.0418Z" fill="#116878"/>
<path d="M58.7422 43.1281C58.7422 43.4588 58.8074 43.7863 58.934 44.0918C59.0606 44.3974 59.2461 44.6749 59.4801 44.9087C59.714 45.1425 59.9917 45.3279 60.2973 45.4543C60.6029 45.5807 60.9304 45.6457 61.2612 45.6455C62.6501 45.6455 63.7767 44.5186 63.7767 43.1281C63.7768 42.7977 63.7118 42.4704 63.5855 42.1651C63.4591 41.8597 63.2739 41.5823 63.0403 41.3485C62.8067 41.1148 62.5293 40.9294 62.2241 40.8028C61.9188 40.6763 61.5916 40.6111 61.2612 40.611C60.9305 40.6108 60.6029 40.6757 60.2973 40.8021C59.9917 40.9285 59.714 41.1138 59.4801 41.3476C59.2462 41.5813 59.0606 41.8589 58.934 42.1644C58.8074 42.4699 58.7422 42.7974 58.7422 43.1281Z" fill="#40A8BC"/>
<path d="M55.9338 45.6451C55.93 45.978 55.9923 46.3083 56.1171 46.6169C56.2419 46.9255 56.4267 47.2063 56.6608 47.443C56.8948 47.6797 57.1735 47.8676 57.4807 47.9959C57.7879 48.1241 58.1175 48.1902 58.4504 48.1902C58.7832 48.1902 59.1128 48.1241 59.42 47.9959C59.7272 47.8676 60.0059 47.6797 60.2399 47.443C60.474 47.2063 60.6588 46.9255 60.7836 46.6169C60.9084 46.3083 60.9707 45.978 60.967 45.6451C60.967 45.3147 60.9019 44.9876 60.7754 44.6823C60.649 44.3771 60.4636 44.0997 60.23 43.8661C59.9963 43.6325 59.719 43.4472 59.4137 43.3207C59.1084 43.1943 58.7812 43.1293 58.4508 43.1293C58.1204 43.1293 57.7931 43.1943 57.4878 43.3206C57.1824 43.447 56.905 43.6323 56.6712 43.8659C56.4375 44.0995 56.2521 44.3769 56.1255 44.6822C55.999 44.9875 55.9338 45.3147 55.9338 45.6451Z" fill="#288293"/>
<path d="M59.3652 48.4275C59.3651 48.758 59.43 49.0853 59.5564 49.3907C59.6828 49.6961 59.8681 49.9736 60.1018 50.2073C60.3354 50.4411 60.6129 50.6265 60.9182 50.753C61.2236 50.8795 61.5508 50.9446 61.8814 50.9445C62.212 50.9447 62.5394 50.8797 62.8448 50.7532C63.1503 50.6268 63.4279 50.4414 63.6617 50.2076C63.8955 49.9739 64.081 49.6964 64.2075 49.3909C64.334 49.0855 64.3991 48.7581 64.3991 48.4275C64.3991 48.0969 64.3339 47.7695 64.2074 47.4641C64.0809 47.1587 63.8954 46.8812 63.6616 46.6475C63.4278 46.4138 63.1502 46.2284 62.8448 46.102C62.5393 45.9756 62.2119 45.9106 61.8814 45.9107C61.5509 45.9107 61.2236 45.9757 60.9183 46.1022C60.613 46.2287 60.3355 46.4141 60.1019 46.6478C59.8682 46.8815 59.6829 47.159 59.5565 47.4643C59.4301 47.7697 59.3651 48.097 59.3652 48.4275Z" fill="#58C4D9"/>
<path d="M56.5176 50.9457C56.5281 51.6064 56.7979 52.2365 57.2689 52.7001C57.7398 53.1636 58.3742 53.4234 59.035 53.4234C59.6958 53.4234 60.3301 53.1636 60.8011 52.7001C61.272 52.2365 61.5419 51.6064 61.5524 50.9457C61.5524 50.278 61.2871 49.6377 60.815 49.1656C60.3429 48.6935 59.7026 48.4283 59.035 48.4283C58.3673 48.4283 57.727 48.6935 57.2549 49.1656C56.7828 49.6377 56.5176 50.278 56.5176 50.9457Z" fill="#116878"/>
<path d="M59.3652 52.6309C59.3651 52.9614 59.43 53.2887 59.5564 53.5941C59.6828 53.8995 59.8681 54.177 60.1018 54.4108C60.3354 54.6445 60.6129 54.83 60.9182 54.9564C61.2236 55.0829 61.5508 55.148 61.8814 55.148C62.212 55.1481 62.5394 55.0831 62.8448 54.9567C63.1503 54.8302 63.4279 54.6448 63.6617 54.4111C63.8955 54.1773 64.081 53.8998 64.2075 53.5943C64.334 53.2889 64.3991 52.9615 64.3991 52.6309C64.3991 52.3003 64.334 51.9729 64.2075 51.6675C64.081 51.362 63.8955 51.0845 63.6617 50.8507C63.4279 50.617 63.1503 50.4316 62.8448 50.3052C62.5394 50.1787 62.212 50.1137 61.8814 50.1138C61.5508 50.1138 61.2236 50.1789 60.9182 50.3054C60.6129 50.4319 60.3354 50.6173 60.1018 50.851C59.8681 51.0848 59.6828 51.3623 59.5564 51.6677C59.43 51.9731 59.3651 52.3004 59.3652 52.6309Z" fill="#178A9F"/>
<path d="M58.0703 46.2986C58.0703 46.6292 58.1354 46.9565 58.262 47.262C58.3885 47.5674 58.574 47.8448 58.8078 48.0786C59.0416 48.3123 59.3192 48.4976 59.6246 48.6241C59.9301 48.7505 60.2574 48.8155 60.588 48.8154C61.0859 48.8153 61.5726 48.6676 61.9866 48.3909C62.4005 48.1142 62.7232 47.721 62.9136 47.261C63.1041 46.8009 63.1539 46.2947 63.0566 45.8064C62.9594 45.3181 62.7196 44.8696 62.3674 44.5176C62.0153 44.1656 61.5667 43.9259 61.0783 43.8289C60.59 43.7318 60.0838 43.7818 59.6238 43.9724C59.1639 44.1631 58.7708 44.4858 58.4942 44.8999C58.2177 45.3139 58.0702 45.8007 58.0703 46.2986Z" fill="#178A9F"/>
<path d="M54.332 48.4275C54.332 49.8177 55.458 50.9458 56.8482 50.9458C58.2377 50.9458 59.3652 49.8177 59.3652 48.4275C59.3652 47.0385 58.238 45.912 56.8482 45.912C56.5178 45.9119 56.1906 45.9769 55.8853 46.1033C55.5801 46.2297 55.3027 46.4149 55.069 46.6485C54.8354 46.8821 54.65 47.1595 54.5236 47.4647C54.3971 47.7699 54.332 48.0971 54.332 48.4275Z" fill="#58C4D9"/>
<path d="M54 52.6309C53.9999 52.9615 54.065 53.2889 54.1915 53.5944C54.318 53.8999 54.5035 54.1774 54.7373 54.4112C54.9711 54.6449 55.2487 54.8303 55.5542 54.9567C55.8597 55.0832 56.1871 55.1482 56.5177 55.148C57.1851 55.1478 57.8252 54.8825 58.297 54.4105C58.7689 53.9385 59.0339 53.2983 59.0338 52.6309C59.0339 51.9635 58.7689 51.3233 58.297 50.8513C57.8252 50.3793 57.1851 50.114 56.5177 50.1138C56.1871 50.1137 55.8597 50.1787 55.5542 50.3051C55.2487 50.4315 54.9711 50.6169 54.7373 50.8507C54.5035 51.0844 54.318 51.362 54.1915 51.6674C54.065 51.9729 53.9999 52.3003 54 52.6309Z" fill="#178A9F"/>
<path d="M56.2852 55.15C56.2852 55.4343 56.3412 55.7159 56.45 55.9786C56.5589 56.2412 56.7184 56.4799 56.9195 56.6809C57.1206 56.8819 57.3593 57.0414 57.6221 57.1501C57.8848 57.2588 58.1664 57.3147 58.4507 57.3146C58.7351 57.3147 59.0166 57.2588 59.2794 57.1501C59.5421 57.0414 59.7808 56.8819 59.9819 56.6809C60.183 56.4799 60.3426 56.2412 60.4514 55.9786C60.5603 55.7159 60.6163 55.4343 60.6163 55.15C60.6163 53.9558 59.6461 52.9866 58.4507 52.9866C57.2553 52.9866 56.2852 53.9558 56.2852 55.15Z" fill="#58C4D9"/>
<path d="M62.1758 45.9116C62.1758 46.2422 62.2409 46.5696 62.3674 46.875C62.494 47.1804 62.6795 47.4579 62.9133 47.6916C63.1471 47.9253 63.4246 48.1107 63.7301 48.2371C64.0355 48.3635 64.3629 48.4285 64.6935 48.4284C65.0239 48.4283 65.3511 48.3631 65.6563 48.2366C65.9616 48.1101 66.2389 47.9247 66.4725 47.691C66.7061 47.4573 66.8913 47.1799 67.0177 46.8745C67.1441 46.5692 67.2091 46.242 67.209 45.9116C67.2091 45.5812 67.1441 45.2539 67.0178 44.9485C66.8914 44.6432 66.7062 44.3657 66.4726 44.1319C66.239 43.8982 65.9617 43.7127 65.6564 43.5861C65.3512 43.4596 65.024 43.3944 64.6935 43.3942C64.3629 43.3941 64.0355 43.4592 63.73 43.5857C63.4245 43.7122 63.1469 43.8976 62.9131 44.1313C62.6793 44.3651 62.4939 44.6427 62.3674 44.9481C62.2408 45.2536 62.1757 45.581 62.1758 45.9116Z" fill="#26A6BD"/>
<path d="M63.75 63.6376V68.9534H27.7412L26.0105 67.2102L24.2549 68.9534H15.7383L14.0117 67.2102L12.2519 68.9534H4.25V63.6376C4.25 57.9212 8.58815 53.1368 14.2778 52.5801L18.2883 52.1873L20.0675 53.8747L21.7746 51.8468L25.5003 51.4819H42.4997L46.2254 51.8468L47.8709 53.8677L49.7117 52.1873L53.7222 52.5801C59.4118 53.1368 63.75 57.9212 63.75 63.6376Z" fill="#E6E9ED"/>
<path fill-rule="evenodd" clip-rule="evenodd" d="M63.75 66.0315H30.5303H27.7412L27.7412 66.0315H63.75V66.0315ZM24.2549 66.0315H18.5273H15.7382L15.7383 66.0315H24.2549L24.2549 66.0315ZM12.252 66.0315L12.2519 66.0315H4.25V63.6376C4.25 57.9212 8.58815 53.1368 14.2778 52.5801L18.2883 52.1873L18.5495 52.4351L17.0669 52.5801C11.3772 53.1368 7.03906 57.9212 7.03906 63.6376V66.0315H12.252ZM21.5244 52.1441L24.5637 51.8468L28.2892 51.4819H25.5003L21.7746 51.8468L21.5244 52.1441Z" fill="#CFD2D5"/>
<path d="M48.0781 23.3082V27.2271L34 33.6685L19.9219 27.2271V23.3082C19.9219 16.1566 26.2254 10.3599 34 10.3599C41.7746 10.3599 48.0781 16.1566 48.0781 23.3082Z" fill="#E6E9ED"/>
<path fill-rule="evenodd" clip-rule="evenodd" d="M35.2361 10.409C28.0404 10.9839 22.3941 16.5305 22.3941 23.2889V27.2019L30.6409 30.4064L19.9219 27.2019V23.2889C19.9219 16.148 26.2254 10.3599 34 10.3599C34.4165 10.3599 34.8288 10.3765 35.2361 10.409Z" fill="#CFD2D5"/>
<path d="M42.3665 43.0317V51.4605L33.8669 59.2419L25.3672 51.4605V43.0317H42.3665Z" fill="#FFCBBE"/>
<path fill-rule="evenodd" clip-rule="evenodd" d="M33.8669 59.242L35.4606 57.7829L28.5547 51.4605V43.0317H25.3672V51.4605L33.8669 59.242Z" fill="#EAAC9D"/>
<path d="M21.7746 55.4988V51.8236L18.2883 52.1641V55.4826C14.8374 56.2629 12.252 59.3516 12.252 63.0351V66.0083H15.7383V63.0351C15.7383 60.687 17.6486 58.7767 19.9966 58.7767C22.3446 58.7767 24.2549 60.687 24.2549 63.0351V68.0005H27.7412V63.0351C27.7412 59.3766 25.1905 56.3047 21.7746 55.4988Z" fill="#92E5EB"/>
<path d="M23.1726 32.938C21.304 32.938 19.7891 31.4204 19.7891 29.5484C19.7891 29.2907 19.8178 29.0398 19.8721 28.7986C20.311 26.8512 23.1726 27.1706 23.1726 29.1671H44.8274C44.8274 27.1706 47.689 26.8512 48.1279 28.7986C48.1822 29.0398 48.2109 29.2907 48.2109 29.5484C48.2109 31.4204 46.696 32.938 44.8274 32.938" fill="#EAAC9D"/>
<path d="M23.3036 30.9458C23.1141 30.9458 22.9276 30.8528 22.8102 30.6792C22.7956 30.6582 22.2519 29.887 21.6804 30.1277C21.3717 30.2576 21.0201 30.1019 20.8955 29.7795C20.7709 29.4573 20.9203 29.0906 21.2292 28.9606C21.8459 28.7009 22.5172 28.8054 23.1193 29.2544C23.5243 29.5564 23.7709 29.9163 23.7976 29.9564C23.9883 30.2413 23.9214 30.6336 23.6483 30.8325C23.5431 30.9091 23.4227 30.9458 23.3036 30.9458Z" fill="#DB8570"/>
<path d="M44.829 30.9458C44.7088 30.9458 44.5877 30.9085 44.4824 30.8307C44.2114 30.6308 44.145 30.2415 44.3349 29.9575C44.3616 29.9173 44.6082 29.5571 45.0132 29.2548C45.6153 28.8052 46.2866 28.7009 46.9036 28.9607C47.2125 29.0908 47.3619 29.4579 47.2373 29.7804C47.1127 30.103 46.7613 30.259 46.4523 30.129C45.8758 29.886 45.3276 30.6734 45.3221 30.6814C45.2041 30.8536 45.0178 30.9458 44.829 30.9458Z" fill="#DB8570"/>
<path fill-rule="evenodd" clip-rule="evenodd" d="M42.3685 45.0156C41.425 45.8689 40.2493 46.4706 38.9089 46.7023C37.2207 46.994 35.4313 47.2183 33.9195 47.2183C32.4077 47.2183 30.6182 46.994 28.9301 46.7023C27.5412 46.4623 26.3293 45.825 25.3691 44.9221V43.0303H42.3685V45.0156Z" fill="#EAAC9D"/>
<path d="M45.0321 24.8661V37.5966C45.0321 41.1891 42.6412 44.382 39.1012 44.9938C37.413 45.2855 35.6236 45.5098 34.1118 45.5098C32.5999 45.5098 30.8105 45.2855 29.1223 44.9938C25.5823 44.382 23.1914 41.1891 23.1914 37.5966V24.8661C23.1914 23.3275 23.8155 21.933 24.8242 20.9243C25.8329 19.9156 27.2251 19.2915 28.7649 19.2915C29.1158 19.2915 29.4598 19.3612 29.7782 19.4925C30.0967 19.625 30.3884 19.8191 30.637 20.0678C31.5969 21.0265 32.8543 21.5065 34.1118 21.5065C35.3692 21.5065 36.6266 21.0265 37.5865 20.0678C37.8352 19.8191 38.1268 19.625 38.4453 19.4925C38.7637 19.3612 39.1077 19.2915 39.4586 19.2915C40.9984 19.2915 42.3906 19.9156 43.3993 20.9243C44.408 21.933 45.0321 23.3275 45.0321 24.8661Z" fill="#FFCBBE"/>
<path fill-rule="evenodd" clip-rule="evenodd" d="M35.5091 45.9222C33.3739 45.7009 30.9835 45.0439 29.1316 44.4443C27.2044 43.8202 25.9846 41.9879 25.9846 39.9623V27.464C25.9846 25.2083 26.6087 23.1639 27.6174 21.6851C28.2464 20.7629 29.0245 20.0601 29.8946 19.6616C29.8565 19.6351 29.8179 19.61 29.779 19.5862C29.4605 19.3937 29.1166 19.2915 28.7656 19.2915C27.2258 19.2915 25.0085 20.0212 23.9998 21.5C23.136 22.7663 23.1593 24.5831 23.1838 26.4954C23.188 26.8163 23.1921 27.1399 23.1921 27.4641V39.9624C23.1921 41.988 24.412 43.8203 26.3391 44.4443C28.6084 45.1792 31.6863 46 34.1125 46C34.559 46 35.0276 45.9722 35.5091 45.9222Z" fill="#EAAC9D"/>
<path d="M49.7108 56.7774V52.1641L46.2244 51.8236V56.7774C44.4469 57.4742 43.1875 59.2036 43.1875 61.2282C43.1875 63.8682 45.3276 66.0083 47.9676 66.0083C50.6076 66.0083 52.7477 63.8682 52.7477 61.2282C52.7477 59.2036 51.4883 57.4741 49.7108 56.7774Z" fill="#2070A1"/>
<path d="M39.2462 31.9458C38.0188 31.9458 36.9176 31.2374 36.4405 30.1413C36.3047 29.8292 36.4557 29.4695 36.7779 29.3379C37.1 29.2063 37.4713 29.3526 37.6071 29.6648C37.8858 30.3053 38.5292 30.7192 39.2461 30.7192C39.963 30.7192 40.6064 30.3053 40.8851 29.6648C41.0209 29.3527 41.3921 29.2063 41.7143 29.3379C42.0365 29.4695 42.1875 29.8292 42.0517 30.1413C41.5749 31.2374 40.4736 31.9458 39.2462 31.9458Z" fill="#404150"/>
<path d="M28.754 31.9458C27.5266 31.9458 26.4254 31.2374 25.9483 30.1413C25.8125 29.8292 25.9635 29.4695 26.2857 29.3379C26.6079 29.2063 26.9791 29.3526 27.1149 29.6648C27.3937 30.3053 28.037 30.7192 28.7539 30.7192C29.4708 30.7192 30.1142 30.3053 30.3929 29.6648C30.5287 29.3527 30.8999 29.2063 31.2221 29.3379C31.5443 29.4695 31.6953 29.8292 31.5595 30.1413C31.0826 31.2374 29.9813 31.9458 28.754 31.9458Z" fill="#404150"/>
<path d="M31 38.7949L31.5295 39.0959C33.0615 39.9665 34.9386 39.9665 36.4705 39.0959L37 38.795" stroke="#DDA79A" stroke-linecap="round"/>
<path d="M33.6474 32.111L33.0959 34.2266C32.9331 34.8511 33.3957 35.464 34.041 35.4786L35.0005 35.5002" stroke="#DDA79A" stroke-linecap="round"/>
</g>
<path d="M34.1992 68.0005C52.8669 68.0005 68 52.8674 68 34.1997C68 15.5321 52.8669 0.398926 34.1992 0.398926C15.5316 0.398926 0.398438 15.5321 0.398438 34.1997C0.398438 52.8674 15.5316 68.0005 34.1992 68.0005Z" fill="#58C4D9"/>
<path fill-rule="evenodd" clip-rule="evenodd" d="M32.978 12.1517C26.3206 12.1517 20.9237 17.5486 20.9237 24.206C20.9237 27.9768 23.9732 31.0243 27.7231 31.0433C27.452 30.7998 27.1786 30.5407 26.9021 30.2667C25.6595 29.0353 25.0617 27.3374 25.0617 25.6394C25.0617 22.7933 26.8236 20.3871 29.2399 19.0772C30.5931 18.3437 31.6898 17.5362 32.6818 16.3933C33.5662 15.3744 34.3851 14.0682 35.2229 12.2688C34.6708 12.1916 34.1068 12.1517 33.5337 12.1517H32.978ZM36.5586 12.5333C35.6972 14.4315 34.8331 15.8781 33.871 17.0382C34.7972 17.9299 35.5232 18.5522 36.3251 19.0697C38.6191 20.5503 40.6203 22.8609 40.6203 25.8087C40.6203 27.3949 40.0852 28.9858 38.9487 30.1667C38.6564 30.4705 38.3677 30.7554 38.0818 31.0207H38.7662C42.5993 31.0207 45.6889 27.88 45.626 24.0475C45.535 18.4904 41.7063 13.8592 36.5586 12.5333ZM36.0829 32.5717C35.0207 33.2199 33.9726 33.5586 32.8938 33.5523C31.8086 33.546 30.7576 33.1904 29.6961 32.5443V36.319C31.9639 37.0392 33.8724 37.0382 36.0829 36.3223V32.5717ZM39.7294 36.1925C38.9085 36.6153 38.132 36.973 37.384 37.2634C37.2447 37.3174 37.1064 37.3692 36.9688 37.4186C34.1307 38.4385 31.713 38.4374 28.8148 37.4202C27.8996 37.099 26.94 36.678 25.9081 36.1611L24.7798 37.5971L32.6754 45.7907L40.6078 37.559L39.7294 36.1925ZM41.6828 38.3517L33.3375 47.0119V54.6896H51.0479C51.962 54.6896 52.703 53.9486 52.703 53.0345V46.0774C52.703 42.6791 50.2462 39.779 46.8942 39.2203L41.6828 38.3517ZM32.0134 54.6896V47.0119L23.6911 38.3755L17.7698 39.8356C14.6645 40.6013 12.4823 43.3869 12.4823 46.5851V53.0345C12.4823 53.9486 13.2234 54.6896 14.1375 54.6896H32.0134ZM23.5232 37.0531L25.4019 34.6621H28.372V32.3574L27.915 32.366C23.3481 32.4522 19.5996 28.7737 19.5996 24.206C19.5996 16.8173 25.5893 10.8276 32.978 10.8276H33.5337C40.8586 10.8276 46.8299 16.7019 46.95 24.0258C47.025 28.598 43.3391 32.3448 38.7662 32.3448H37.407V34.6621H40.3197L41.8461 37.0365L47.1119 37.9142C51.1024 38.5793 54.0272 42.0319 54.0272 46.0774V53.0345C54.0272 54.6799 52.6933 56.0138 51.0479 56.0138H14.1375C12.4921 56.0138 11.1582 54.6799 11.1582 53.0345V46.5851C11.1582 42.7777 13.756 39.4615 17.4528 38.5499L23.5232 37.0531ZM32.9735 18.0122C32.0441 18.9175 31.0285 19.6139 29.871 20.2413C27.7925 21.368 26.3858 23.3728 26.3858 25.6394C26.3858 27.0371 26.8778 28.3785 27.8341 29.3261C29.8549 31.3287 31.4302 32.2197 32.9015 32.2282C34.3647 32.2367 35.9513 31.3718 37.9946 29.2486C38.8583 28.351 39.2961 27.1071 39.2961 25.8087C39.2961 23.5065 37.7242 21.5486 35.607 20.1823C34.708 19.602 33.9151 18.9177 32.9735 18.0122ZM14.1375 52.0414C14.1375 51.6757 14.4339 51.3793 14.7996 51.3793H20.4272C20.7928 51.3793 21.0892 51.6757 21.0892 52.0414C21.0892 52.407 20.7928 52.7034 20.4272 52.7034H14.7996C14.4339 52.7034 14.1375 52.407 14.1375 52.0414ZM22.4134 52.0414C22.4134 51.6757 22.7098 51.3793 23.0754 51.3793H24.5651C24.9307 51.3793 25.2272 51.6757 25.2272 52.0414C25.2272 52.407 24.9307 52.7034 24.5651 52.7034H23.0754C22.7098 52.7034 22.4134 52.407 22.4134 52.0414Z" fill="white"/>
<path d="M31 29C32.5599 29.9279 33.4368 30.01 35 29" stroke="white" stroke-linecap="round"/>
<path d="M34.5 25C35.5977 24.4226 35.7836 24.3079 37 25M31 25C29.8695 24.4378 29.6851 24.4222 28.5 25" stroke="white" stroke-linecap="round"/>
<path d="M57.1729 48.731C56.8333 52.829 55.8888 54.7343 52.0419 57.0069H47.0764C43.2886 54.5561 42.6306 52.6212 42.6074 48.731C44.1364 44.9698 45.7909 44.7262 49.5591 46.2483C53.6805 45.0641 55.7602 44.8337 57.1729 48.731Z" fill="#58C4D9"/>
<path d="M45.5347 40.7631C45.3165 40.7661 45.1854 40.7862 45.1854 40.7862L44.4175 40.8562L44.5106 41.6241C44.5106 41.6241 44.6938 43.3261 45.9071 44.5804C43.4455 44.961 41.5312 46.9921 41.5312 49.4679C41.5312 52.1389 42.7215 54.2572 44.1151 55.6828C44.7417 56.3319 45.4638 56.8815 46.2564 57.3125C46.9633 57.6901 47.612 57.9173 48.2347 57.9173C48.6421 57.9173 49.0376 57.8472 49.3989 57.7311C49.6164 57.661 49.8324 57.661 50.0498 57.7311C50.4111 57.8472 50.8066 57.9173 51.214 57.9173C51.8888 57.9173 52.5376 57.632 53.2392 57.1955C53.9401 56.7591 54.6708 56.1543 55.3567 55.4035C56.7309 53.9049 57.9175 51.8246 57.9175 49.4679C57.9175 46.7188 55.5519 44.5104 52.7037 44.5104C51.9387 44.5104 51.2311 44.6966 50.5854 44.999C50.5824 44.9789 50.5682 44.9438 50.5623 44.9059C50.9436 42.9187 54 40.8562 54 40.8562L53.2552 39.5528C53.2552 39.5528 50.5362 41.5109 49.7705 42.8576C49.5098 42.4605 49.1881 42.1071 48.8172 41.8104C47.6351 40.8674 46.1864 40.7572 45.5347 40.7631ZM46.2564 42.3459C46.7711 42.4241 47.4087 42.5932 47.8854 42.9738C48.3717 43.3611 48.6972 43.9286 48.8864 44.4173C48.3688 44.3413 47.72 44.1528 47.2337 43.7655C46.754 43.3812 46.4456 42.8315 46.2564 42.3459ZM46.745 46C47.7133 46 48.5751 46.3523 49.2357 46.908L49.7244 47.3035L50.213 46.908C50.9094 46.3197 51.7921 45.9979 52.7037 46C54.7929 46 56.4278 47.5738 56.4278 49.4679C56.4278 51.3151 55.4595 53.099 54.2633 54.4024C53.7295 54.987 53.1186 55.4962 52.4474 55.9159C51.8777 56.2675 51.36 56.4276 51.214 56.4276C50.9697 56.4276 50.7396 56.3837 50.5154 56.3114C50.0008 56.1456 49.4472 56.1456 48.9326 56.3114C48.7092 56.3837 48.479 56.4276 48.2347 56.4276C48.0336 56.4276 47.5197 56.3114 46.9543 56.0083C46.3898 55.7059 45.75 55.2374 45.1623 54.6355C43.9869 53.4312 43.0209 51.7024 43.0209 49.4679C43.0209 47.5738 44.6558 46 46.745 46Z" fill="white"/>
</g>
<defs>
<clipPath id="clip0">
<rect width="68" height="68" fill="white"/>
</clipPath>
<clipPath id="clip1">
<rect width="20.5775" height="20.5775" fill="white" transform="translate(-5 44.9327) rotate(-35.4432)"/>
</clipPath>
</defs>
</svg>
