<svg width="116" height="18" viewBox="0 0 116 18" fill="none" xmlns="http://www.w3.org/2000/svg">
<path d="M11.9788 15.1147C12.362 15.1147 12.6726 15.4176 12.6726 15.7913V16.9989C12.6726 17.3726 12.362 17.6755 11.9788 17.6755H1.51658C0.750188 17.6755 0.128906 17.0696 0.128906 16.3222V2.58317C0.128906 1.8358 0.750188 1.22993 1.51658 1.22993H11.6443C12.0275 1.22993 12.3381 1.53286 12.3381 1.90655V3.11412C12.3381 3.48781 12.0275 3.79074 11.6443 3.79074H3.9288C3.54561 3.79074 3.23497 4.09367 3.23497 4.46736V7.38996C3.23497 7.76365 3.54561 8.06658 3.9288 8.06658H10.6169C11.0001 8.06658 11.3107 8.36951 11.3107 8.7432V9.90378C11.3107 10.2775 11.0001 10.5804 10.6169 10.5804H3.9288C3.54561 10.5804 3.23497 10.8833 3.23497 11.257V14.4381C3.23497 14.8117 3.54561 15.1147 3.9288 15.1147H11.9788Z" fill="black"/>
<path d="M30.3027 1.22993C30.6859 1.22993 30.9965 1.53286 30.9965 1.90655V16.9989C30.9965 17.3726 30.6859 17.6755 30.3027 17.6755H28.7715C28.5618 17.6755 28.3634 17.583 28.2317 17.424L20.451 8.02905C20.0399 7.53269 19.2174 7.81615 19.2174 8.45417V16.9989C19.2174 17.3726 18.9067 17.6755 18.5235 17.6755H16.829C16.4458 17.6755 16.1352 17.3726 16.1352 16.9989V1.90655C16.1352 1.53286 16.4458 1.22993 16.829 1.22993H18.3602C18.5699 1.22993 18.7683 1.32237 18.9 1.48143L26.6807 10.8764C27.0918 11.3727 27.9143 11.0893 27.9143 10.4512V1.90655C27.9143 1.53286 28.225 1.22993 28.6082 1.22993H30.3027Z" fill="black"/>
<path d="M47.3289 9.1238C48.2528 9.42138 48.9855 9.92258 49.527 10.6274C50.0686 11.3165 50.3394 12.178 50.3394 13.2117C50.3394 14.637 49.7819 15.7412 48.6669 16.5243C47.5519 17.2918 45.9272 17.6755 43.7928 17.6755H36.1719C35.7887 17.6755 35.4781 17.3726 35.4781 16.9989V1.90655C35.4781 1.53286 35.7887 1.22993 36.1719 1.22993H43.3149C45.2901 1.22993 46.8112 1.61366 47.8784 2.38112C48.9456 3.13292 49.4793 4.17447 49.4793 5.50577C49.4793 6.32022 49.2881 7.04069 48.9058 7.66719C48.5235 8.29369 47.9979 8.77922 47.3289 9.1238ZM39.278 3.62628C38.8948 3.62628 38.5842 3.92921 38.5842 4.3029V7.48394C38.5842 7.85762 38.8948 8.16056 39.278 8.16056H42.9804C44.0636 8.16056 44.8918 7.97261 45.4653 7.59671C46.0546 7.20515 46.3493 6.6413 46.3493 5.90517C46.3493 5.15337 46.0546 4.58952 45.4653 4.21362C44.8918 3.82206 44.0636 3.62628 42.9804 3.62628H39.278ZM43.6016 15.2791C46.0068 15.2791 47.2094 14.4882 47.2094 12.9063C47.2094 11.3244 46.0068 10.5334 43.6016 10.5334H39.278C38.8948 10.5334 38.5842 10.8363 38.5842 11.21V14.6025C38.5842 14.9762 38.8948 15.2791 39.278 15.2791H43.6016Z" fill="black"/>
<path d="M53.6543 1.90655C53.6543 1.53286 53.965 1.22993 54.3482 1.22993H56.0666C56.4497 1.22993 56.7604 1.53286 56.7604 1.90655V16.9989C56.7604 17.3726 56.4497 17.6755 56.0666 17.6755H54.3482C53.965 17.6755 53.6543 17.3726 53.6543 16.9989V1.90655Z" fill="black"/>
<path d="M69.0971 17.9104C67.3927 17.9104 65.8556 17.5502 64.4858 16.8297C63.1159 16.0936 62.0408 15.0833 61.2603 13.799C60.4798 12.499 60.0895 11.0503 60.0895 9.45271C60.0895 7.85514 60.4798 6.4142 61.2603 5.12988C62.0408 3.82989 63.1159 2.81967 64.4858 2.0992C65.8556 1.36306 67.3927 0.994995 69.0971 0.994995C70.8014 0.994995 72.3385 1.36306 73.7084 2.0992C75.0783 2.81967 76.1534 3.82206 76.9339 5.10638C77.7144 6.3907 78.1047 7.83948 78.1047 9.45271C78.1047 11.0659 77.7144 12.5147 76.9339 13.799C76.1534 15.0833 75.0783 16.0936 73.7084 16.8297C72.3385 17.5502 70.8014 17.9104 69.0971 17.9104ZM69.0971 15.2321C70.2121 15.2321 71.2156 14.9894 72.1076 14.5038C72.9996 14.0026 73.7004 13.3135 74.2102 12.4364C74.7199 11.5436 74.9747 10.5491 74.9747 9.45271C74.9747 8.35634 74.7199 7.3696 74.2102 6.49251C73.7004 5.59975 72.9996 4.9106 72.1076 4.42507C71.2156 3.92387 70.2121 3.67327 69.0971 3.67327C67.9821 3.67327 66.9786 3.92387 66.0866 4.42507C65.1946 4.9106 64.4938 5.59975 63.984 6.49251C63.4743 7.3696 63.2195 8.35634 63.2195 9.45271C63.2195 10.5491 63.4743 11.5436 63.984 12.4364C64.4938 13.3135 65.1946 14.0026 66.0866 14.5038C66.9786 14.9894 67.9821 15.2321 69.0971 15.2321Z" fill="black"/>
<path d="M86.5818 17.9104C85.2915 17.9104 84.0412 17.7303 82.8306 17.3701C81.8503 17.0745 81.0363 16.6998 80.3885 16.246C80.1415 16.073 80.0711 15.752 80.1941 15.4808L80.6989 14.3667C80.8827 13.961 81.4118 13.8345 81.7996 14.0663C82.323 14.3791 82.9136 14.6503 83.5713 14.8797C84.5748 15.2086 85.5783 15.3731 86.5818 15.3731C87.8242 15.3731 88.748 15.1773 89.3533 14.7858C89.9745 14.3942 90.2851 13.8773 90.2851 13.2352C90.2851 12.7653 90.1099 12.3816 89.7595 12.084C89.425 11.7707 88.9949 11.528 88.4693 11.3557C87.9436 11.1834 87.2269 10.9876 86.3189 10.7684C85.0447 10.4708 84.0093 10.1732 83.2129 9.87559C82.4324 9.57801 81.7554 9.11596 81.182 8.48947C80.6245 7.84731 80.3457 6.98587 80.3457 5.90517C80.3457 4.99675 80.5926 4.17447 81.0864 3.43833C81.5961 2.68654 82.3527 2.09136 83.3562 1.65282C84.3757 1.21427 85.6181 0.994995 87.0835 0.994995C88.1029 0.994995 89.1064 1.12029 90.094 1.37089C90.8702 1.56786 91.5627 1.83254 92.1717 2.16496C92.4576 2.32106 92.563 2.66361 92.4406 2.96005L91.9727 4.09358C91.8139 4.47801 91.3419 4.63235 90.9599 4.45078C90.4471 4.20706 89.9195 4.01053 89.3772 3.86122C88.5808 3.64195 87.8083 3.53231 87.0596 3.53231C85.8331 3.53231 84.9172 3.73592 84.3119 4.14314C83.7226 4.55037 83.4279 5.09072 83.4279 5.7642C83.4279 6.23408 83.5952 6.61781 83.9297 6.91539C84.2801 7.21298 84.7181 7.44792 85.2438 7.6202C85.7694 7.79249 86.4862 7.98827 87.3941 8.20754C88.6365 8.48947 89.656 8.78705 90.4524 9.1003C91.2488 9.39789 91.9258 9.85993 92.4833 10.4864C93.0567 11.1129 93.3434 11.9587 93.3434 13.0237C93.3434 13.9322 93.0886 14.7544 92.5788 15.4906C92.0851 16.2267 91.3285 16.814 90.309 17.2526C89.2896 17.6911 88.0472 17.9104 86.5818 17.9104Z" fill="black"/>
<path d="M96.4233 1.90655C96.4233 1.53286 96.734 1.22993 97.1172 1.22993H98.8356C99.2188 1.22993 99.5294 1.53286 99.5294 1.90655V16.9989C99.5294 17.3726 99.2188 17.6755 98.8356 17.6755H97.1172C96.734 17.6755 96.4233 17.3726 96.4233 16.9989V1.90655Z" fill="black"/>
<path d="M109.238 17.9104C107.948 17.9104 106.697 17.7303 105.487 17.3701C104.506 17.0745 103.692 16.6998 103.045 16.246C102.798 16.073 102.727 15.752 102.85 15.4808L103.355 14.3667C103.539 13.9609 104.068 13.8345 104.456 14.0663C104.979 14.3791 105.57 14.6503 106.227 14.8797C107.231 15.2086 108.234 15.3731 109.238 15.3731C110.48 15.3731 111.404 15.1773 112.009 14.7858C112.631 14.3942 112.941 13.8773 112.941 13.2352C112.941 12.7653 112.766 12.3816 112.416 12.084C112.081 11.7707 111.651 11.528 111.125 11.3557C110.6 11.1834 109.883 10.9876 108.975 10.7684C107.701 10.4708 106.665 10.1732 105.869 9.87559C105.089 9.57801 104.412 9.11596 103.838 8.48947C103.281 7.84731 103.002 6.98587 103.002 5.90517C103.002 4.99675 103.249 4.17447 103.743 3.43833C104.252 2.68654 105.009 2.09136 106.012 1.65282C107.032 1.21427 108.274 0.994995 109.74 0.994995C110.759 0.994995 111.763 1.12029 112.75 1.37089C113.526 1.56786 114.219 1.83254 114.828 2.16496C115.114 2.32105 115.219 2.66361 115.097 2.96005L114.629 4.09358C114.47 4.47802 113.998 4.63235 113.616 4.45078C113.103 4.20706 112.576 4.01053 112.033 3.86122C111.237 3.64195 110.464 3.53231 109.716 3.53231C108.489 3.53231 107.573 3.73592 106.968 4.14314C106.379 4.55037 106.084 5.09072 106.084 5.7642C106.084 6.23408 106.251 6.61781 106.586 6.91539C106.936 7.21298 107.374 7.44792 107.9 7.6202C108.426 7.79249 109.142 7.98827 110.05 8.20754C111.293 8.48947 112.312 8.78705 113.109 9.1003C113.905 9.39789 114.582 9.85993 115.139 10.4864C115.713 11.1129 116 11.9587 116 13.0237C116 13.9322 115.745 14.7544 115.235 15.4906C114.741 16.2267 113.985 16.814 112.965 17.2526C111.946 17.6911 110.703 17.9104 109.238 17.9104Z" fill="black"/>
</svg>
