<svg width="124" height="24" viewBox="0 0 124 24" fill="none" xmlns="http://www.w3.org/2000/svg">
<path d="M14.0498 20.1759C14.9438 20.1759 15.6685 20.9007 15.6685 21.7947C15.6685 22.6887 14.9438 23.4134 14.0498 23.4134H1.0752C0.522911 23.4134 0.0751953 22.9657 0.0751953 22.4134V3.62231C0.0751953 3.07002 0.522911 2.62231 1.0752 2.62231H13.634C14.528 2.62231 15.2527 3.34704 15.2527 4.24105C15.2527 5.13505 14.528 5.85978 13.634 5.85978H3.9364V11.2655H12.3865C13.2641 11.2655 13.9755 11.9769 13.9755 12.8545C13.9755 13.7321 13.2641 14.4435 12.3865 14.4435H3.9364V20.1759H14.0498Z" fill="white"/>
<path d="M28.6161 7.37456C30.616 7.37456 32.2199 7.95869 33.4278 9.12696C34.6356 10.2952 35.2396 12.0278 35.2396 14.3247V21.5571C35.2396 22.5823 34.4084 23.4134 33.3832 23.4134C32.358 23.4134 31.5269 22.5823 31.5269 21.5571V14.8C31.5269 13.4139 31.2001 12.3743 30.5467 11.6813C29.8933 10.9685 28.9626 10.612 27.7547 10.612C26.3885 10.612 25.3093 11.0279 24.5173 11.8595C23.7252 12.6713 23.3292 13.8495 23.3292 15.394V21.5571C23.3292 22.5823 22.4981 23.4134 21.4729 23.4134C20.4476 23.4134 19.6165 22.5823 19.6165 21.5571V9.32001C19.6165 8.34399 20.4077 7.55277 21.3838 7.55277C22.3598 7.55277 23.151 8.34399 23.151 9.32002V9.60218C23.7648 8.86954 24.5371 8.31511 25.4677 7.93889C26.3984 7.56267 27.4478 7.37456 28.6161 7.37456Z" fill="white"/>
<path d="M48.741 7.37456C50.2855 7.37456 51.6617 7.71118 52.8695 8.38442C54.0972 9.05765 55.0575 10.0081 55.7506 11.2358C56.4436 12.4634 56.7901 13.8792 56.7901 15.4831C56.7901 17.087 56.4436 18.5127 55.7506 19.7601C55.0575 20.9878 54.0972 21.9382 52.8695 22.6115C51.6617 23.2847 50.2855 23.6213 48.741 23.6213C47.6519 23.6213 46.652 23.4332 45.7411 23.057C44.8501 22.6808 44.0977 22.1164 43.4838 21.364V21.6462C43.4838 22.6222 42.6926 23.4134 41.7166 23.4134C40.7406 23.4134 39.9493 22.6222 39.9493 21.6462V3.23119C39.9493 2.20596 40.7805 1.37484 41.8057 1.37484C42.8309 1.37484 43.662 2.20596 43.662 3.23119V9.48338C44.2957 8.79034 45.0382 8.26561 45.8897 7.90919C46.7609 7.55277 47.7113 7.37456 48.741 7.37456ZM48.3252 20.4433C49.6915 20.4433 50.8102 19.9878 51.6815 19.077C52.5725 18.1661 53.018 16.9682 53.018 15.4831C53.018 13.998 52.5725 12.8001 51.6815 11.8892C50.8102 10.9784 49.6915 10.5229 48.3252 10.5229C47.4341 10.5229 46.6322 10.7308 45.9194 11.1467C45.2065 11.5427 44.6422 12.1169 44.2264 12.8694C43.8105 13.6218 43.6026 14.493 43.6026 15.4831C43.6026 16.4731 43.8105 17.3444 44.2264 18.0968C44.6422 18.8493 45.2065 19.4334 45.9194 19.8492C46.6322 20.2452 47.4341 20.4433 48.3252 20.4433Z" fill="white"/>
<path d="M60.3112 9.40912C60.3112 8.38389 61.1423 7.55277 62.1675 7.55277C63.1927 7.55277 64.0239 8.38389 64.0239 9.40912V21.5571C64.0239 22.5823 63.1927 23.4134 62.1675 23.4134C61.1423 23.4134 60.3112 22.5823 60.3112 21.5571V9.40912ZM62.1824 4.93903C61.5091 4.93903 60.9448 4.73112 60.4894 4.3153C60.034 3.87968 59.8062 3.34505 59.8062 2.71141C59.8062 2.07778 60.034 1.55305 60.4894 1.13723C60.9448 0.701607 61.5091 0.483796 62.1824 0.483796C62.8556 0.483796 63.4199 0.691707 63.8754 1.10753C64.3308 1.50355 64.5585 2.00848 64.5585 2.62231C64.5585 3.27574 64.3308 3.83017 63.8754 4.2856C63.4397 4.72122 62.8754 4.93903 62.1824 4.93903Z" fill="white"/>
<path d="M76.0252 23.6213C74.4213 23.6213 72.9758 23.2748 71.6887 22.5818C70.4017 21.8887 69.3918 20.9284 68.6592 19.7007C67.9463 18.4533 67.5899 17.0474 67.5899 15.4831C67.5899 13.9188 67.9463 12.5228 68.6592 11.2952C69.3918 10.0675 70.4017 9.10716 71.6887 8.41412C72.9758 7.72108 74.4213 7.37456 76.0252 7.37456C77.6488 7.37456 79.1042 7.72108 80.3913 8.41412C81.6784 9.10716 82.6783 10.0675 83.3912 11.2952C84.1238 12.5228 84.4901 13.9188 84.4901 15.4831C84.4901 17.0474 84.1238 18.4533 83.3912 19.7007C82.6783 20.9284 81.6784 21.8887 80.3913 22.5818C79.1042 23.2748 77.6488 23.6213 76.0252 23.6213ZM76.0252 20.4433C77.3914 20.4433 78.5201 19.9878 79.4111 19.077C80.3022 18.1661 80.7477 16.9682 80.7477 15.4831C80.7477 13.998 80.3022 12.8001 79.4111 11.8892C78.5201 10.9784 77.3914 10.5229 76.0252 10.5229C74.6589 10.5229 73.5302 10.9784 72.6392 11.8892C71.7679 12.8001 71.3323 13.998 71.3323 15.4831C71.3323 16.9682 71.7679 18.1661 72.6392 19.077C73.5302 19.9878 74.6589 20.4433 76.0252 20.4433Z" fill="white"/>
<path d="M92.9411 23.6213C91.6541 23.6213 90.3967 23.453 89.169 23.1164C88.6046 22.9616 88.0925 22.788 87.6327 22.5956C86.7863 22.2414 86.5355 21.2319 86.9493 20.4129C87.3242 19.6709 88.2663 19.4273 89.0311 19.7531C89.399 19.9099 89.7915 20.0508 90.2086 20.1759C91.2184 20.4532 92.2085 20.5918 93.1787 20.5918C95.3965 20.5918 96.5053 20.0076 96.5053 18.8394C96.5053 18.2849 96.2182 17.8988 95.644 17.681C95.0896 17.4632 94.1886 17.2553 92.9411 17.0573C91.6343 16.8593 90.565 16.6316 89.7334 16.3741C88.9215 16.1167 88.2087 15.6712 87.5948 15.0376C87.0008 14.3841 86.7038 13.4832 86.7038 12.3347C86.7038 10.8298 87.3275 9.63188 88.575 8.74084C89.8423 7.82999 91.5452 7.37456 93.6837 7.37456C94.7727 7.37456 95.8618 7.50327 96.9509 7.76068C97.351 7.84799 97.7244 7.94732 98.0711 8.05868C98.9833 8.35171 99.2895 9.40289 98.8574 10.2581C98.5004 10.9646 97.6224 11.2113 96.881 10.9338C95.8846 10.5609 94.8089 10.3744 93.654 10.3744C92.5649 10.3744 91.7333 10.5427 91.159 10.8794C90.6046 11.1962 90.3274 11.6219 90.3274 12.1565C90.3274 12.7506 90.6244 13.1763 91.2184 13.4337C91.8323 13.6713 92.7728 13.899 94.0401 14.1168C95.3074 14.3148 96.3469 14.5425 97.1588 14.8C97.9706 15.0574 98.6636 15.493 99.2379 16.1068C99.8319 16.7207 100.129 17.5919 100.129 18.7206C100.129 20.2056 99.4854 21.3937 98.1983 22.2848C96.9113 23.1758 95.1589 23.6213 92.9411 23.6213Z" fill="white"/>
<path d="M103.326 9.40912C103.326 8.38389 104.157 7.55277 105.183 7.55277C106.208 7.55277 107.039 8.38389 107.039 9.40912V21.5571C107.039 22.5823 106.208 23.4134 105.183 23.4134C104.157 23.4134 103.326 22.5823 103.326 21.5571V9.40912ZM105.197 4.93903C104.524 4.93903 103.96 4.73112 103.504 4.3153C103.049 3.87968 102.821 3.34505 102.821 2.71141C102.821 2.07778 103.049 1.55305 103.504 1.13723C103.96 0.701607 104.524 0.483796 105.197 0.483796C105.871 0.483796 106.435 0.691707 106.89 1.10753C107.346 1.50355 107.574 2.00848 107.574 2.62231C107.574 3.27574 107.346 3.83017 106.89 4.2856C106.455 4.72122 105.89 4.93903 105.197 4.93903Z" fill="white"/>
<path d="M116.813 23.6213C115.526 23.6213 114.268 23.453 113.041 23.1164C112.476 22.9616 111.964 22.788 111.504 22.5956C110.658 22.2414 110.407 21.2319 110.821 20.4129C111.196 19.6709 112.138 19.4273 112.903 19.7531C113.27 19.9099 113.663 20.0508 114.08 20.1759C115.09 20.4532 116.08 20.5918 117.05 20.5918C119.268 20.5918 120.377 20.0076 120.377 18.8394C120.377 18.2849 120.09 17.8988 119.515 17.681C118.961 17.4632 118.06 17.2553 116.813 17.0573C115.506 16.8593 114.436 16.6316 113.605 16.3741C112.793 16.1167 112.08 15.6712 111.466 15.0376C110.872 14.3841 110.575 13.4832 110.575 12.3347C110.575 10.8298 111.199 9.63188 112.446 8.74084C113.714 7.82999 115.417 7.37456 117.555 7.37456C118.644 7.37456 119.733 7.50327 120.822 7.76068C121.222 7.84799 121.596 7.94732 121.943 8.05868C122.855 8.35171 123.161 9.40289 122.729 10.2581C122.372 10.9646 121.494 11.2113 120.752 10.9338C119.756 10.5609 118.68 10.3744 117.525 10.3744C116.436 10.3744 115.605 10.5427 115.031 10.8794C114.476 11.1962 114.199 11.6219 114.199 12.1565C114.199 12.7506 114.496 13.1763 115.09 13.4337C115.704 13.6713 116.644 13.899 117.912 14.1168C119.179 14.3148 120.218 14.5425 121.03 14.8C121.842 15.0574 122.535 15.493 123.109 16.1068C123.703 16.7207 124 17.5919 124 18.7206C124 20.2056 123.357 21.3937 122.07 22.2848C120.783 23.1758 119.03 23.6213 116.813 23.6213Z" fill="white"/>
</svg>
