<svg width="32" height="33" viewBox="0 0 32 33" fill="none" xmlns="http://www.w3.org/2000/svg">
<circle cx="16" cy="16.9844" r="15.5" stroke="black"/>
<circle cx="16" cy="16.9844" r="10.5" stroke="black"/>
<rect x="8" y="7.98438" width="17" height="5" fill="white"/>
<rect x="8" y="21.9844" width="17" height="5" fill="white"/>
<path d="M9.5 8.48438V13.2773C9.5 13.73 9.67986 14.1642 10 14.4844V14.4844C10.3201 14.8045 10.5 15.2387 10.5 15.6915V24.9844C10.5 24.9844 11.1716 26.4844 12 26.4844C12.8284 26.4844 13.5 24.9844 13.5 24.9844V15.6915C13.5 15.2387 13.6799 14.8045 14 14.4844V14.4844C14.3201 14.1642 14.5 13.73 14.5 13.2773V8.48438M11.3 13.4844V8.48438M12.9 13.4844V8.48438" stroke="black"/>
<path d="M19 24.9844C19 24.9844 19.6716 26.4844 20.5 26.4844C21.3284 26.4844 22 24.9844 22 24.9844V15.6915C22 15.2387 22.1799 14.8045 22.5 14.4844C22.8201 14.1642 23 13.73 23 13.2773V12.176C23 11.7178 22.9323 11.2612 22.7502 10.8408C22.3682 9.9593 21.5693 8.48438 20.5 8.48438C19.4307 8.48438 18.6318 9.9593 18.2498 10.8408C18.0677 11.2612 18 11.7178 18 12.176V13.2773C18 13.73 18.1799 14.1642 18.5 14.4844C18.8201 14.8045 19 15.2387 19 15.6915V24.9844Z" stroke="black"/>
</svg>
