<svg width="40" height="41" viewBox="0 0 40 41" fill="none" xmlns="http://www.w3.org/2000/svg">
<path d="M3.49485 33.6046C2.64734 34.0304 1.91519 34.6562 1.3611 35.4284C0.807001 36.2007 0.447474 37.0963 0.313306 38.0387L0.00692686 40.1936C-0.00704212 40.2919 0.000170551 40.392 0.0280765 40.4872C0.0559825 40.5824 0.10393 40.6705 0.168673 40.7455C0.233415 40.8205 0.313441 40.8806 0.403331 40.9218C0.493221 40.9631 0.590876 40.9844 0.689684 40.9844H39.3103C39.4091 40.9844 39.5068 40.9631 39.5967 40.9218C39.6866 40.8806 39.7666 40.8205 39.8313 40.7455C39.8961 40.6705 39.944 40.5824 39.9719 40.4872C39.9998 40.392 40.007 40.2919 39.9931 40.1936L39.6867 38.0389C39.5525 37.0966 39.193 36.2009 38.6389 35.4287C38.0848 34.6565 37.3527 34.0307 36.5051 33.6049L24.1379 27.3926V25.725C25.1099 24.9756 25.8622 23.9761 26.3151 22.8324C26.8305 21.5401 27.1931 20.1914 27.3955 18.8141H27.8496C28.3134 18.8157 28.7682 18.6867 29.1627 18.4418C29.5571 18.1968 29.8754 17.8458 30.0814 17.4284C30.2542 17.0802 30.3443 16.6965 30.3448 16.3074V15.0853C30.3451 14.4382 30.0953 13.8163 29.6481 13.3506L30.009 11.91C30.3447 10.5667 30.3548 9.16217 30.0384 7.81415C29.7221 6.46614 29.0886 5.214 28.191 4.16279C27.265 2.92897 26.0027 1.99151 24.5569 1.46406C23.1112 0.936607 21.5442 0.841818 20.0459 1.19118C19.589 1.29831 19.1331 1.40475 18.6985 1.50616C17.7298 1.7306 16.8177 2.15355 16.0193 2.74851C15.2209 3.34348 14.5534 4.09764 14.0586 4.96377C13.4065 4.99956 12.77 5.17798 12.1937 5.48656C11.6173 5.79514 11.115 6.22643 10.7218 6.7503C10.3689 7.22039 10.1123 7.75613 9.96681 8.32651C9.82136 8.89689 9.78995 9.49059 9.87441 10.0733L10.3419 13.3609C9.9008 13.8256 9.65487 14.4432 9.65519 15.0853V16.3074C9.65566 16.6965 9.74584 17.0802 9.91864 17.4284C10.1246 17.8458 10.4428 18.1968 10.8373 18.4418C11.2318 18.6867 11.6866 18.8157 12.1504 18.8141H12.6045C12.8069 20.1914 13.1695 21.5401 13.6849 22.8324C14.1378 23.9761 14.8901 24.9756 15.8621 25.725V27.3926L3.49485 33.6046ZM5.51726 39.5987V37.5203C5.51726 37.3365 5.4446 37.1603 5.31527 37.0304C5.18593 36.9004 5.01052 36.8274 4.82761 36.8274C4.6447 36.8274 4.46929 36.9004 4.33995 37.0304C4.21061 37.1603 4.13795 37.3365 4.13795 37.5203V39.5987H1.48486L1.67882 38.235C1.78148 37.5144 2.05647 36.8294 2.48025 36.2389C2.90402 35.6484 3.46395 35.1698 4.11209 34.8442L13.6574 30.0497L10.5195 33.5962C10.439 33.6872 10.3837 33.7979 10.3593 33.9172C10.335 34.0365 10.3423 34.1601 10.3806 34.2756L12.1466 39.5987H5.51726ZM15.1724 32.6705V39.5987H13.6005L11.8148 34.2171L15.1724 30.4225V32.6705ZM35.8879 34.8442C36.536 35.1699 37.0959 35.6485 37.5196 36.2391C37.9433 36.8297 38.2183 37.5146 38.3208 38.2353L38.5151 39.5987H35.862V37.5203C35.862 37.3365 35.7894 37.1603 35.66 37.0304C35.5307 36.9004 35.3553 36.8274 35.1724 36.8274C34.9895 36.8274 34.8141 36.9004 34.6847 37.0304C34.5554 37.1603 34.4827 37.3365 34.4827 37.5203V39.5987H27.8534L29.6198 34.2753C29.6581 34.1597 29.6655 34.0361 29.6411 33.9168C29.6167 33.7976 29.5615 33.6869 29.4809 33.5959L26.343 30.0493L35.8879 34.8442ZM24.8276 32.6705V30.4225L28.1852 34.2171L26.3995 39.5987H24.8276V32.6705ZM17.3138 39.5987H16.5517V33.0987L17.4297 32.6577L17.9185 34.131L17.3138 39.5987ZM18.7276 30.4566L16.5517 31.5495V30.0118L16.8932 28.9827L18.7276 30.4566ZM17.2414 27.4878V26.5464C18.111 26.9299 19.0503 27.128 20 27.128C20.9497 27.128 21.889 26.9299 22.7586 26.5464V27.4878L20 29.7048L17.2414 27.4878ZM18.7016 39.5987L19.2379 34.749H20.7621L21.2984 39.5987H18.7016ZM20.8826 33.3633H19.1178L18.676 32.0317L20 31.3666L21.324 32.0317L20.8826 33.3633ZM23.4483 39.5987H22.6862L22.0815 34.131L22.5703 32.6577L23.4483 33.0987V39.5987ZM23.4483 31.5495L21.2725 30.4566L23.1068 28.9825L23.4483 30.0118V31.5495ZM28.9655 16.3074C28.9653 16.4814 28.925 16.653 28.8477 16.8088C28.7556 16.9954 28.6133 17.1524 28.4369 17.2619C28.2604 17.3714 28.057 17.4291 27.8496 17.4284H27.5442C27.5718 17.0214 27.5858 16.6126 27.5862 16.2019V13.9643H27.8496C28.1455 13.9647 28.4291 14.0829 28.6383 14.293C28.8475 14.5032 28.9652 14.7881 28.9655 15.0853V16.3074ZM12.1504 17.4284C11.943 17.4291 11.7396 17.3714 11.5631 17.2619C11.3867 17.1524 11.2444 16.9954 11.1523 16.8088C11.075 16.653 11.0347 16.4814 11.0345 16.3074V15.0853C11.0348 14.7881 11.1525 14.5032 11.3617 14.293C11.5709 14.0829 11.8545 13.9647 12.1504 13.9643H12.4138V16.2019C12.4138 16.6125 12.4278 17.0214 12.4558 17.4284H12.1504ZM12.5092 10.8412C12.4468 10.9479 12.4138 11.0693 12.4138 11.193V12.5787H12.1504C11.9761 12.5787 11.8023 12.5971 11.6318 12.6335L11.2399 9.87744C11.1815 9.47493 11.2032 9.06478 11.3037 8.67074C11.4041 8.2767 11.5814 7.9066 11.8253 7.58186C12.1131 7.19821 12.4856 6.88675 12.9133 6.67189C13.3411 6.45703 13.8125 6.34461 14.2908 6.34344H14.4741C14.6022 6.34345 14.7278 6.30763 14.8367 6.23999C14.9457 6.17235 15.0338 6.07557 15.091 5.96049C15.4759 5.18454 16.0269 4.50377 16.7045 3.96699C17.3821 3.43022 18.1696 3.05074 19.0104 2.85578C19.4454 2.75436 19.9013 2.64793 20.3589 2.54072C21.6004 2.25143 22.8989 2.33115 24.0962 2.77016C25.2934 3.20916 26.3377 3.9885 27.1018 5.01322C27.1113 5.02595 27.1212 5.03825 27.1315 5.05029C27.8899 5.93365 28.4257 6.98728 28.6937 8.12231C28.9617 9.25735 28.9541 10.4405 28.6714 11.5719L28.4034 12.6417C28.2218 12.5999 28.036 12.5788 27.8496 12.5787H27.5862V11.193C27.5862 11.0093 27.5135 10.8331 27.3842 10.7031C27.2549 10.5732 27.0794 10.5002 26.8965 10.5002H23.542C22.0758 10.4965 20.6249 10.2012 19.2728 9.63144C17.9208 9.06163 16.6944 8.22857 15.6645 7.18028C15.5904 7.10446 15.4999 7.04677 15.4 7.0117C15.3001 6.97663 15.1936 6.96511 15.0886 6.97802C14.9836 6.99094 14.8829 7.02795 14.7945 7.0862C14.706 7.14444 14.632 7.22236 14.5783 7.31391L12.5092 10.8412ZM14.9655 22.3182C14.1893 20.3734 13.7913 18.2972 13.7931 16.2019V11.382L15.3276 8.76659C17.6003 10.7698 20.5185 11.8779 23.542 11.8858H26.2069V16.2019C26.2087 18.2972 25.8107 20.3734 25.0345 22.3182C24.632 23.329 23.9372 24.1954 23.0398 24.8057C22.1425 25.416 21.0837 25.7422 20 25.7422C18.9163 25.7422 17.8575 25.416 16.9602 24.8057C16.0628 24.1954 15.368 23.329 14.9655 22.3182Z" fill="black"/>
</svg>
