<svg width="120" height="120" viewBox="0 0 120 120" fill="none" xmlns="http://www.w3.org/2000/svg">
<path d="M60 117.422C91.7132 117.422 117.422 91.7132 117.422 60C117.422 28.2868 91.7132 2.57812 60 2.57812C28.2868 2.57812 2.57812 28.2868 2.57812 60C2.57812 91.7132 28.2868 117.422 60 117.422Z" fill="#C0E8EF"/>
<path d="M78.9864 115.567V14.3058C78.9864 11.8575 77.0017 9.87305 74.5534 9.87305H12.6456C10.1973 9.87305 8.21289 11.8577 8.21289 14.3058V115.567C8.21289 118.016 10.1976 120 12.6456 120H74.5537C77.0017 120 78.9864 118.015 78.9864 115.567Z" fill="#F59178"/>
<path d="M89.0874 9.8728H74.2517C76.7 9.8728 78.6847 11.8575 78.6847 14.3055V115.567C78.6847 118.015 76.7 120 74.2517 120H89.0874C91.5357 120 93.5204 118.015 93.5204 115.567V14.3058C93.5204 11.8575 91.5357 9.8728 89.0874 9.8728Z" fill="#F59178"/>
<path d="M15.458 111.17V18.7025C15.458 17.8274 16.1675 17.1182 17.0424 17.1182H84.6905C85.5657 17.1182 86.2749 17.8276 86.2749 18.7025V111.17C86.2749 112.045 85.5654 112.754 84.6905 112.754H17.0424C16.1672 112.754 15.458 112.045 15.458 111.17Z" fill="#E6E9ED"/>
<path d="M84.6907 17.1182H69.855C70.7301 17.1182 71.4394 17.8276 71.4394 18.7025V111.17C71.4394 112.045 70.7299 112.754 69.855 112.754H84.6907C85.5658 112.754 86.2751 112.045 86.2751 111.17V18.7025C86.2751 17.8276 85.5658 17.1182 84.6907 17.1182Z" fill="#CFD2D5"/>
<path d="M60.2835 5.51672V3.18305C60.2835 1.42523 58.8585 0 57.1005 0H44.6325C42.8744 0 41.4494 1.42523 41.4494 3.18305V5.51672C41.4494 6.23555 40.8665 6.81844 40.1477 6.81844H34.9586C33.2325 6.81844 31.833 8.21789 31.833 9.94406V17.1183H69.8999V9.94406C69.8999 8.21789 68.5005 6.81844 66.7743 6.81844H61.5853C60.8664 6.81844 60.2835 6.23555 60.2835 5.51672Z" fill="#59C4D9"/>
<path d="M24.6743 42.8417V28.8875C24.6743 27.3416 25.9278 26.0881 27.4737 26.0881H41.4279C42.9738 26.0881 44.2273 27.3416 44.2273 28.8875V42.8417C44.2273 44.3877 42.9738 45.6411 41.4279 45.6411H27.4737C25.9275 45.6411 24.6743 44.3877 24.6743 42.8417Z" fill="#4F4FA1"/>
<path d="M24.6743 71.9135V57.9593C24.6743 56.4133 25.9278 55.1599 27.4737 55.1599H41.4279C42.9738 55.1599 44.2273 56.4133 44.2273 57.9593V71.9135C44.2273 73.4594 42.9738 74.7129 41.4279 74.7129H27.4737C25.9275 74.7129 24.6743 73.4594 24.6743 71.9135Z" fill="#4F4FA1"/>
<path d="M24.6743 100.985V87.0311C24.6743 85.4851 25.9278 84.2317 27.4737 84.2317H41.4279C42.9738 84.2317 44.2273 85.4851 44.2273 87.0311V100.985C44.2273 102.531 42.9738 103.785 41.4279 103.785H27.4737C25.9275 103.785 24.6743 102.531 24.6743 100.985Z" fill="#4F4FA1"/>
<path d="M33.2697 40.8617C33.2676 40.8617 33.2657 40.8617 33.2636 40.8617C32.4642 40.8598 31.706 40.4726 31.2351 39.8265L29.1206 36.9226C28.5318 36.114 28.71 34.9812 29.5185 34.3925C30.3271 33.804 31.4599 33.9821 32.0484 34.7905L33.2744 36.4744L36.8592 31.6041C37.4521 30.7986 38.5856 30.6266 39.3909 31.2193C40.1964 31.812 40.3687 32.9457 39.7757 33.7512L35.2964 39.8368C34.8241 40.4787 34.0666 40.8617 33.2697 40.8617Z" fill="#E6E9ED"/>
<path d="M33.2695 70.5662C33.2671 70.5662 33.265 70.5662 33.2629 70.5662C32.4635 70.5641 31.7053 70.1772 31.2346 69.5305L29.1206 66.6271C28.5318 65.8185 28.71 64.6858 29.5185 64.097C30.3271 63.5085 31.4599 63.6866 32.0484 64.495L33.2744 66.179L36.8592 61.3087C37.4521 60.5034 38.5856 60.3311 39.3909 60.9238C40.1964 61.5166 40.3687 62.6502 39.7757 63.4558L35.2964 69.5413C34.8241 70.1837 34.0666 70.5662 33.2695 70.5662Z" fill="#E6E9ED"/>
<path d="M33.2694 99.0059C33.2673 99.0059 33.2652 99.0059 33.2633 99.0057C32.4641 99.0038 31.7057 98.6169 31.235 97.9709L29.1205 95.0666C28.5317 94.258 28.7101 93.1255 29.5187 92.5367C30.3278 91.948 31.46 92.1266 32.0485 92.9349L33.2743 94.6187L36.8593 89.7484C37.4523 88.943 38.5857 88.7708 39.391 89.3635C40.1966 89.9563 40.3689 91.0899 39.7759 91.8955L35.2965 97.981C34.8238 98.623 34.0665 99.0059 33.2694 99.0059Z" fill="#E6E9ED"/>
<path d="M75.631 33.8918H53.2446C52.2445 33.8918 51.4338 33.0811 51.4338 32.081C51.4338 31.081 52.2445 30.2703 53.2446 30.2703H75.631C76.631 30.2703 77.4417 31.081 77.4417 32.081C77.4417 33.0811 76.631 33.8918 75.631 33.8918Z" fill="#4F4FA1"/>
<path d="M64.4379 41.459H53.2449C52.2448 41.459 51.4341 40.6483 51.4341 39.6482C51.4341 38.6481 52.2448 37.8374 53.2449 37.8374H64.4379C65.438 37.8374 66.2487 38.6481 66.2487 39.6482C66.2487 40.6483 65.438 41.459 64.4379 41.459Z" fill="#4F4FA1"/>
<path d="M68.265 62.9638H53.2449C52.2448 62.9638 51.4341 62.1531 51.4341 61.1531C51.4341 60.153 52.2448 59.3423 53.2449 59.3423H68.265C69.2651 59.3423 70.0758 60.153 70.0758 61.1531C70.0758 62.1531 69.2651 62.9638 68.265 62.9638Z" fill="#4F4FA1"/>
<path d="M64.4379 70.531H53.2449C52.2448 70.531 51.4341 69.7203 51.4341 68.7202C51.4341 67.7201 52.2448 66.9094 53.2449 66.9094H64.4379C65.438 66.9094 66.2487 67.7201 66.2487 68.7202C66.2487 69.7203 65.438 70.531 64.4379 70.531Z" fill="#4F4FA1"/>
<path d="M104.745 47.278L102.967 44.9356L96.314 40.7227L93.7567 40.3198L59.6915 94.1494C58.8695 95.4474 58.2665 96.8717 57.9065 98.3651C62.0512 98.4165 65.8131 100.799 67.6316 104.524C68.8279 103.56 69.8575 102.406 70.6795 101.108L104.745 47.278Z" fill="#E2614D"/>
<path d="M109.554 30.7015L106.679 28.8811C104.439 27.462 101.471 28.1288 100.053 30.3701L97.417 34.5357L98.2579 36.2309L106.257 41.2964L108.405 41.4938L111.043 37.3257C112.46 35.0855 111.794 32.12 109.554 30.7015Z" fill="#4F4FA1"/>
<path d="M93.7603 40.3044L97.4223 34.5205L108.412 41.4787L104.75 47.2626L93.7603 40.3044Z" fill="#E6E9ED"/>
<path d="M67.6315 104.524L57.9319 112.34C56.5636 113.443 54.5757 112.184 54.9875 110.476L57.9064 98.3652C62.051 98.4163 65.8132 100.799 67.6315 104.524Z" fill="#4F4FA1"/>
<path d="M65.0874 101.168L100.796 44.7779L97.7367 42.8403L62.0276 99.2305C63.1479 99.7025 64.1815 100.357 65.0874 101.168Z" fill="#F59178"/>
</svg>
