<svg width="120" height="120" viewBox="0 0 120 120" fill="none" xmlns="http://www.w3.org/2000/svg">
<path d="M60 117.422C91.7132 117.422 117.422 91.7132 117.422 60C117.422 28.2868 91.7132 2.57812 60 2.57812C28.2868 2.57812 2.57812 28.2868 2.57812 60C2.57812 91.7132 28.2868 117.422 60 117.422Z" fill="#C0E8EF"/>
<path d="M66.2415 89.0225H40.929V99.8436H66.2415V89.0225Z" fill="#4F4FA1"/>
<path d="M45.5794 89.0225H40.929V99.8436H45.5794V89.0225Z" fill="#4F4FA1"/>
<path d="M78.0781 105.469C78.0781 106.113 77.5508 106.641 76.9062 106.641H30.2649C29.6204 106.641 29.093 106.113 29.093 105.469V100.781C29.093 100.137 29.6204 99.6094 30.2649 99.6094H76.9062C77.5508 99.6094 78.0781 100.137 78.0781 100.781V105.469Z" fill="#4F4FA1"/>
<path d="M33.7435 105.469V100.781C33.7435 100.137 34.2708 99.6094 34.9154 99.6094H30.2649C29.6204 99.6094 29.093 100.137 29.093 100.781V105.469C29.093 106.113 29.6204 106.641 30.2649 106.641H34.9154C34.2708 106.641 33.7435 106.113 33.7435 105.469Z" fill="#4F4FA1"/>
<path d="M0 86.9143C0 88.2034 1.05469 89.258 2.34375 89.258H72.6973V73.5664H0V86.9143Z" fill="#59C4D9"/>
<path d="M4.65047 86.9143V73.5664H0V86.9143C0 88.2034 1.05469 89.258 2.34375 89.258H6.99422C5.70516 89.258 4.65047 88.2034 4.65047 86.9143Z" fill="#2699D6"/>
<path d="M72.6973 67.2626C72.6973 66.7455 73.1177 66.3251 73.6348 66.3251H107.171V15.5777C107.171 14.1607 106.012 13.0015 104.595 13.0015H2.57625C1.15922 13.0015 0 14.1607 0 15.5777V73.8007H72.6973V67.2626Z" fill="#4F4FA1"/>
<path d="M72.6973 67.2626C72.6973 66.7456 73.1178 66.3251 73.6348 66.3251H102.019V19.3259C102.019 18.6814 101.492 18.1541 100.847 18.1541H6.32446C5.67993 18.1541 5.15259 18.6814 5.15259 19.3259V67.4762C5.15259 68.1207 5.67993 68.648 6.32446 68.648H72.6971L72.6973 67.2626Z" fill="#E6E9ED"/>
<path d="M53.5851 84.8723C55.3858 84.8723 56.8455 83.4126 56.8455 81.612C56.8455 79.8113 55.3858 78.3516 53.5851 78.3516C51.7844 78.3516 50.3247 79.8113 50.3247 81.612C50.3247 83.4126 51.7844 84.8723 53.5851 84.8723Z" fill="#4F4FA1"/>
<path d="M97.5847 48.3692C97.5847 49.0137 97.0573 49.5411 96.4128 49.5411H59.2744C58.6299 49.5411 58.1025 49.0137 58.1025 48.3692V31.3259C58.1025 30.6814 58.6299 30.1541 59.2744 30.1541H96.4128C97.0573 30.1541 97.5847 30.6814 97.5847 31.3259V48.3692Z" fill="#F59178"/>
<path d="M62.7533 48.3692V31.3259C62.7533 30.6814 63.2806 30.1541 63.9251 30.1541H59.2747C58.6301 30.1541 58.1028 30.6814 58.1028 31.3259V48.3692C58.1028 49.0137 58.6301 49.5411 59.2747 49.5411H63.9251C63.2806 49.5411 62.7533 49.0137 62.7533 48.3692Z" fill="#F59178"/>
<path d="M70.1405 56.2783H60.0361C59.0653 56.2783 58.2783 55.4915 58.2783 54.5205C58.2783 53.5495 59.0653 52.7627 60.0361 52.7627H70.1405C71.1113 52.7627 71.8983 53.5495 71.8983 54.5205C71.8983 55.4915 71.1113 56.2783 70.1405 56.2783Z" fill="#CFD2D5"/>
<path d="M70.1405 61.6208H60.0361C59.0653 61.6208 58.2783 60.834 58.2783 59.863C58.2783 58.892 59.0653 58.1052 60.0361 58.1052H70.1405C71.1113 58.1052 71.8983 58.892 71.8983 59.863C71.8983 60.834 71.1113 61.6208 70.1405 61.6208Z" fill="#CFD2D5"/>
<path d="M82.3314 56.2783H74.8174C73.8466 56.2783 73.0596 55.4915 73.0596 54.5205C73.0596 53.5495 73.8466 52.7627 74.8174 52.7627H82.3314C83.3022 52.7627 84.0893 53.5495 84.0893 54.5205C84.0893 55.4915 83.3022 56.2783 82.3314 56.2783Z" fill="#CFD2D5"/>
<path d="M82.3314 61.6208H74.8174C73.8466 61.6208 73.0596 60.834 73.0596 59.863C73.0596 58.892 73.8466 58.1052 74.8174 58.1052H82.3314C83.3022 58.1052 84.0893 58.892 84.0893 59.863C84.0893 60.834 83.3022 61.6208 82.3314 61.6208Z" fill="#CFD2D5"/>
<path d="M96.5092 56.2783H86.9382C85.9675 56.2783 85.1804 55.4915 85.1804 54.5205C85.1804 53.5495 85.9675 52.7627 86.9382 52.7627H96.5092C97.48 52.7627 98.267 53.5495 98.267 54.5205C98.267 55.4915 97.48 56.2783 96.5092 56.2783Z" fill="#CFD2D5"/>
<path d="M96.5092 61.6208H86.9382C85.9675 61.6208 85.1804 60.834 85.1804 59.863C85.1804 58.892 85.9675 58.1052 86.9382 58.1052H96.5092C97.48 58.1052 98.267 58.892 98.267 59.863C98.267 60.834 97.48 61.6208 96.5092 61.6208Z" fill="#CFD2D5"/>
<path d="M84.2261 26.0354C84.2261 26.6799 83.6987 27.2073 83.0542 27.2073H80.4763C79.8318 27.2073 79.3044 26.6799 79.3044 26.0354V23.4575C79.3044 22.813 79.8318 22.2856 80.4763 22.2856H83.0542C83.6987 22.2856 84.2261 22.813 84.2261 23.4575V26.0354Z" fill="#E2614D"/>
<path d="M90.7881 26.0354C90.7881 26.6799 90.2608 27.2073 89.6162 27.2073H87.0383C86.3938 27.2073 85.8665 26.6799 85.8665 26.0354V23.4575C85.8665 22.813 86.3938 22.2856 87.0383 22.2856H89.6162C90.2608 22.2856 90.7881 22.813 90.7881 23.4575V26.0354Z" fill="#E2614D"/>
<path d="M97.3501 26.0354C97.3501 26.6799 96.8228 27.2073 96.1782 27.2073H93.6003C92.9558 27.2073 92.4285 26.6799 92.4285 26.0354V23.4575C92.4285 22.813 92.9558 22.2856 93.6003 22.2856H96.1782C96.8228 22.2856 97.3501 22.813 97.3501 23.4575V26.0354Z" fill="#E2614D"/>
<path d="M44.7417 60.2356H42.6323C41.6615 60.2356 40.8745 59.4488 40.8745 58.4778C40.8745 57.5068 41.6615 56.72 42.6323 56.72H44.7417C45.7125 56.72 46.4995 57.5068 46.4995 58.4778C46.4995 59.4488 45.7125 60.2356 44.7417 60.2356Z" fill="#A6DEEB"/>
<path d="M36.7729 60.2356H34.6636C33.6928 60.2356 32.9058 59.4488 32.9058 58.4778C32.9058 57.5068 33.6928 56.72 34.6636 56.72H36.7729C37.7437 56.72 38.5308 57.5068 38.5308 58.4778C38.5308 59.4488 37.7437 60.2356 36.7729 60.2356Z" fill="#A6DEEB"/>
<path d="M28.804 60.2356H26.6946C25.7238 60.2356 24.9368 59.4488 24.9368 58.4778C24.9368 57.5068 25.7238 56.72 26.6946 56.72H28.804C29.7747 56.72 30.5618 57.5068 30.5618 58.4778C30.562 59.4488 29.775 60.2356 28.804 60.2356Z" fill="#A6DEEB"/>
<path d="M20.8352 60.2356H18.7258C17.755 60.2356 16.968 59.4488 16.968 58.4778C16.968 57.5068 17.755 56.72 18.7258 56.72H20.8352C21.806 56.72 22.593 57.5068 22.593 58.4778C22.593 59.4488 21.8062 60.2356 20.8352 60.2356Z" fill="#A6DEEB"/>
<path d="M51.5972 52.9937C50.6264 52.9937 49.8394 52.2069 49.8394 51.2358V49.1265C49.8394 48.1557 50.6264 47.3687 51.5972 47.3687C52.5679 47.3687 53.355 48.1557 53.355 49.1265V51.2358C53.355 52.2069 52.5679 52.9937 51.5972 52.9937Z" fill="#A6DEEB"/>
<path d="M51.5972 45.0249C50.6264 45.0249 49.8394 44.2381 49.8394 43.2671V41.1577C49.8394 40.1869 50.6264 39.3999 51.5972 39.3999C52.5679 39.3999 53.355 40.1869 53.355 41.1577V43.2671C53.355 44.2381 52.5679 45.0249 51.5972 45.0249Z" fill="#A6DEEB"/>
<path d="M51.5972 37.0562C50.6264 37.0562 49.8394 36.2694 49.8394 35.2983V33.189C49.8394 32.2182 50.6264 31.4312 51.5972 31.4312C52.5679 31.4312 53.355 32.2182 53.355 33.189V35.2983C53.355 36.2694 52.5679 37.0562 51.5972 37.0562Z" fill="#A6DEEB"/>
<path d="M11.7532 52.9937C10.7824 52.9937 9.99536 52.2069 9.99536 51.2358V49.1265C9.99536 48.1557 10.7824 47.3687 11.7532 47.3687C12.724 47.3687 13.511 48.1557 13.511 49.1265V51.2358C13.511 52.2069 12.7242 52.9937 11.7532 52.9937Z" fill="#A6DEEB"/>
<path d="M11.7532 45.0249C10.7824 45.0249 9.99536 44.2381 9.99536 43.2671V41.1577C9.99536 40.1869 10.7824 39.3999 11.7532 39.3999C12.724 39.3999 13.511 40.1869 13.511 41.1577V43.2671C13.511 44.2381 12.7242 45.0249 11.7532 45.0249Z" fill="#A6DEEB"/>
<path d="M11.7532 37.0562C10.7824 37.0562 9.99536 36.2694 9.99536 35.2983V33.189C9.99536 32.2182 10.7824 31.4312 11.7532 31.4312C12.724 31.4312 13.511 32.2182 13.511 33.189V35.2983C13.511 36.2694 12.7242 37.0562 11.7532 37.0562Z" fill="#A6DEEB"/>
<path d="M44.7417 28.3606H42.6323C41.6615 28.3606 40.8745 27.5738 40.8745 26.6028C40.8745 25.6318 41.6615 24.845 42.6323 24.845H44.7417C45.7125 24.845 46.4995 25.6318 46.4995 26.6028C46.4995 27.5738 45.7125 28.3606 44.7417 28.3606Z" fill="#A6DEEB"/>
<path d="M36.7729 28.3606H34.6636C33.6928 28.3606 32.9058 27.5738 32.9058 26.6028C32.9058 25.6318 33.6928 24.845 34.6636 24.845H36.7729C37.7437 24.845 38.5308 25.6318 38.5308 26.6028C38.5308 27.5738 37.7437 28.3606 36.7729 28.3606Z" fill="#A6DEEB"/>
<path d="M28.804 28.3606H26.6946C25.7238 28.3606 24.9368 27.5738 24.9368 26.6028C24.9368 25.6318 25.7238 24.845 26.6946 24.845H28.804C29.7747 24.845 30.5618 25.6318 30.5618 26.6028C30.5618 27.5738 29.775 28.3606 28.804 28.3606Z" fill="#A6DEEB"/>
<path d="M20.8352 28.3606H18.7258C17.755 28.3606 16.968 27.5738 16.968 26.6028C16.968 25.6318 17.755 24.845 18.7258 24.845H20.8352C21.806 24.845 22.593 25.6318 22.593 26.6028C22.593 27.5738 21.8062 28.3606 20.8352 28.3606Z" fill="#A6DEEB"/>
<path d="M46.9097 52.6184C46.9097 53.2629 46.3823 53.7903 45.7378 53.7903H17.6128C16.9683 53.7903 16.4409 53.2629 16.4409 52.6184V32.4622C16.4409 31.8176 16.9683 31.2903 17.6128 31.2903H45.7378C46.3823 31.2903 46.9097 31.8176 46.9097 32.4622V52.6184Z" fill="#4F4FA1"/>
<path d="M21.0914 52.6184V32.4622C21.0914 31.8176 21.6187 31.2903 22.2633 31.2903H17.6125C16.968 31.2903 16.4407 31.8176 16.4407 32.4622V52.6184C16.4407 53.2629 16.968 53.7903 17.6125 53.7903H22.2633C21.6187 53.7903 21.0914 53.2629 21.0914 52.6184Z" fill="#4F4FA1"/>
<path d="M54.8777 28.3616C54.8777 29.0061 54.3503 29.5334 53.7058 29.5334H48.7839C48.1394 29.5334 47.6121 29.0061 47.6121 28.3616V23.4397C47.6121 22.7952 48.1394 22.2678 48.7839 22.2678H53.7058C54.3503 22.2678 54.8777 22.7952 54.8777 23.4397V28.3616Z" fill="#A6DEEB"/>
<path d="M15.9714 28.8303C15.9714 29.4749 15.4441 30.0022 14.7996 30.0022H9.87769C9.23315 30.0022 8.70581 29.4749 8.70581 28.8303V23.9084C8.70581 23.2639 9.23315 22.7366 9.87769 22.7366H14.7996C15.4441 22.7366 15.9714 23.2639 15.9714 23.9084V28.8303Z" fill="#A6DEEB"/>
<path d="M54.8777 61.1445C54.8777 61.7891 54.3503 62.3164 53.7058 62.3164H48.7839C48.1394 62.3164 47.6121 61.7891 47.6121 61.1445V56.2227C47.6121 55.5781 48.1394 55.0508 48.7839 55.0508H53.7058C54.3503 55.0508 54.8777 55.5781 54.8777 56.2227V61.1445Z" fill="#A6DEEB"/>
<path d="M15.9714 61.1445C15.9714 61.7891 15.4441 62.3164 14.7996 62.3164H9.87769C9.23315 62.3164 8.70581 61.7891 8.70581 61.1445V56.2227C8.70581 55.5781 9.23315 55.0508 9.87769 55.0508H14.7996C15.4441 55.0508 15.9714 55.5781 15.9714 56.2227V61.1445Z" fill="#A6DEEB"/>
<path d="M50.1953 28.3616V23.4397C50.1953 22.7952 50.7227 22.2678 51.3672 22.2678H48.7839C48.1394 22.2678 47.6121 22.7952 47.6121 23.4397V28.3616C47.6121 29.0061 48.1394 29.5334 48.7839 29.5334H51.3672C50.7227 29.5334 50.1953 29.0061 50.1953 28.3616Z" fill="#2699D6"/>
<path d="M11.2891 28.8303V23.9084C11.2891 23.2639 11.8164 22.7366 12.461 22.7366H9.87769C9.23315 22.7366 8.70581 23.2639 8.70581 23.9084V28.8303C8.70581 29.4749 9.23315 30.0022 9.87769 30.0022H12.461C11.8164 30.0022 11.2891 29.4749 11.2891 28.8303Z" fill="#2699D6"/>
<path d="M50.1953 61.1445V56.2227C50.1953 55.5781 50.7227 55.0508 51.3672 55.0508H48.7839C48.1394 55.0508 47.6121 55.5781 47.6121 56.2227V61.1445C47.6121 61.7891 48.1394 62.3164 48.7839 62.3164H51.3672C50.7227 62.3164 50.1953 61.7891 50.1953 61.1445Z" fill="#2699D6"/>
<path d="M11.2891 61.1445V56.2227C11.2891 55.5781 11.8164 55.0508 12.461 55.0508H9.87769C9.23315 55.0508 8.70581 55.5781 8.70581 56.2227V61.1445C8.70581 61.7891 9.23315 62.3164 9.87769 62.3164H12.461C11.8164 62.3164 11.2891 61.7891 11.2891 61.1445Z" fill="#2699D6"/>
<path d="M112 95V89.1531V67.1619C112 66.5228 111.214 66 110.254 66H54.7456C53.7855 66 53 66.5228 53 67.1619V93.8381C53 94.4772 53.7855 95 54.7456 95H102.218H112Z" fill="#E2614D"/>
<path d="M75.8391 80.268C76.3591 80.4327 76.7665 80.71 77.0611 81.1C77.3558 81.4813 77.5031 81.9537 77.5031 82.517C77.5031 83.3143 77.1911 83.9297 76.5671 84.363C75.9518 84.7877 75.0505 85 73.8631 85H69.1571V75.9H73.6031C74.7125 75.9 75.5618 76.1123 76.1511 76.537C76.7491 76.9617 77.0481 77.538 77.0481 78.266C77.0481 78.708 76.9398 79.1023 76.7231 79.449C76.5151 79.7957 76.2205 80.0687 75.8391 80.268ZM71.2501 77.486V79.631H73.3431C73.8631 79.631 74.2575 79.54 74.5261 79.358C74.7948 79.176 74.9291 78.9073 74.9291 78.552C74.9291 78.1967 74.7948 77.9323 74.5261 77.759C74.2575 77.577 73.8631 77.486 73.3431 77.486H71.2501ZM73.7071 83.414C74.2618 83.414 74.6778 83.323 74.9551 83.141C75.2411 82.959 75.3841 82.6773 75.3841 82.296C75.3841 81.542 74.8251 81.165 73.7071 81.165H71.2501V83.414H73.7071ZM83.1406 85.156C81.8406 85.156 80.8266 84.7963 80.0986 84.077C79.3792 83.3577 79.0196 82.3307 79.0196 80.996V75.9H81.1256V80.918C81.1256 82.5473 81.8016 83.362 83.1536 83.362C83.8122 83.362 84.3149 83.167 84.6616 82.777C85.0082 82.3783 85.1816 81.7587 85.1816 80.918V75.9H87.2616V80.996C87.2616 82.3307 86.8976 83.3577 86.1696 84.077C85.4502 84.7963 84.4406 85.156 83.1406 85.156ZM93.5837 81.776V85H91.4777V81.75L87.9547 75.9H90.1907L92.6217 79.943L95.0527 75.9H97.1197L93.5837 81.776Z" fill="black"/>
<path d="M56.9936 93.8381V67.1619C56.9936 66.5228 57.4465 66 58 66H54.0064C53.4529 66 53 66.5228 53 67.1619V93.8381C53 94.4772 53.4529 95 54.0064 95H58C57.4465 95 56.9936 94.4772 56.9936 93.8381Z" fill="#E2614D"/>
<path d="M102.285 85.5988C101.899 85.4571 101.699 85.657 101.841 86.0432L108.02 102.867C108.162 103.253 108.516 103.331 108.807 103.04L112.087 99.7598C112.378 99.4689 112.854 99.4689 113.145 99.7598L116.925 103.54C117.216 103.831 117.692 103.831 117.983 103.54L119.782 101.742C120.073 101.451 120.073 100.975 119.782 100.684L116.002 96.9035C115.711 96.6126 115.711 96.1366 116.002 95.8455L119.282 92.5649C119.573 92.2743 119.495 91.9202 119.109 91.7784L102.285 85.5988Z" fill="#4F4FA1"/>
</svg>
