<svg width="120" height="120" viewBox="0 0 120 120" fill="none" xmlns="http://www.w3.org/2000/svg">
<path d="M60 117.422C91.7132 117.422 117.422 91.7132 117.422 60C117.422 28.2868 91.7132 2.57812 60 2.57812C28.2868 2.57812 2.57812 28.2868 2.57812 60C2.57812 91.7132 28.2868 117.422 60 117.422Z" fill="#C0E8EF"/>
<path d="M26.3848 17.2314H14.25V25.3289H26.3848V17.2314Z" fill="#C0E8EF"/>
<path d="M28.8886 16.3401C28.8886 17.004 28.3455 17.5473 27.6816 17.5473H12.9551C12.2911 17.5473 11.748 17.004 11.748 16.3401V7.63842C11.748 6.97443 12.2911 6.43115 12.9551 6.43115H27.6813C28.3453 6.43115 28.8884 6.97443 28.8884 7.63842L28.8886 16.3401Z" fill="#58C4D9"/>
<g opacity="0.1">
<path opacity="0.1" d="M16.7831 16.3401V7.63842C16.7831 6.97443 17.3262 6.43115 17.9904 6.43115H12.9551C12.2911 6.43115 11.748 6.97443 11.748 7.63842V16.3401C11.748 17.004 12.2911 17.5473 12.9551 17.5473H17.9904C17.3264 17.5473 16.7831 17.004 16.7831 16.3401Z" fill="black"/>
</g>
<path d="M10.4895 82.8712C10.5516 82.8456 10.5999 82.7945 10.6217 82.731C10.6438 82.6675 10.6372 82.5976 10.6044 82.5393C10.5038 82.3616 10.453 82.187 10.453 82.0206C10.453 80.7287 13.3191 79.3457 17.5864 79.3457C18.9596 79.3457 20.2974 79.4983 21.4552 79.7872C21.474 79.7919 21.493 79.7943 21.512 79.7943C21.5734 79.7943 21.6331 79.7701 21.6777 79.7256C21.736 79.6672 21.7595 79.5829 21.7393 79.5032C20.9947 76.5311 20.5684 73.4765 20.4683 70.3548C20.4669 70.3185 20.4645 70.2822 20.4634 70.2456C20.45 69.8001 20.443 69.3531 20.443 68.905C20.443 68.3645 20.8815 67.9248 21.4208 67.9248H23.5384C23.6049 67.9248 23.6687 67.8965 23.713 67.8468C23.7573 67.7971 23.7786 67.7308 23.7713 67.6644C23.7366 67.3539 23.7205 67.0944 23.7205 66.8476C23.7205 63.5453 25.8322 60.6611 28.9754 59.6708C29.0401 59.6504 29.0928 59.6029 29.1198 59.5405C29.147 59.4782 29.1455 59.4072 29.116 59.346C28.8305 58.7505 28.6304 58.1279 28.5207 57.4961C27.9732 54.3365 29.6263 51.1907 32.5402 49.8461C32.6504 49.7952 32.7036 49.6687 32.6628 49.5543C32.5259 49.1713 32.4223 48.778 32.3544 48.385C31.91 45.8214 32.9127 43.3351 34.7698 41.7608V31.6956C34.7698 27.9901 31.7452 24.9585 28.048 24.9585H12.5888C8.89203 24.9585 5.86719 27.9901 5.86719 31.6956V85.6668C7.21414 84.5315 8.76687 83.5808 10.4895 82.8712Z" fill="#C0E8EF"/>
<path d="M28.9756 59.6699C29.0403 59.6495 29.093 59.6019 29.12 59.5396C29.1472 59.4772 29.1458 59.4062 29.1162 59.3451C28.8308 58.7495 28.6306 58.127 28.5209 57.4951C27.9734 54.3355 29.6265 51.1897 32.5405 49.8451C32.6506 49.7943 32.7038 49.6677 32.663 49.5533C32.5262 49.1704 32.4226 48.7771 32.3546 48.384C31.9102 45.8204 32.9129 43.3342 34.7701 41.7599V37.228H5.86719V62.166H25.3482C26.2573 61.0199 27.5007 60.1347 28.9756 59.6699Z" fill="#58C4D9"/>
<path opacity="0.1" d="M13.1258 79.9487V31.6951C13.1258 27.9896 16.1504 24.958 19.8474 24.958H12.5888C8.89203 24.958 5.86719 27.9896 5.86719 31.6951V85.6665C7.21414 84.5312 8.76687 83.5808 10.4895 82.8709C10.5516 82.8454 10.5999 82.7943 10.6217 82.7307C10.6438 82.6672 10.6372 82.5974 10.6044 82.539C10.5038 82.3614 10.453 82.1868 10.453 82.0204C10.4532 81.2612 11.4444 80.4716 13.1258 79.9487Z" fill="black"/>
<path d="M56.8452 44.1205C56.9129 44.5114 56.9478 44.9169 56.9485 45.3259C56.9487 45.4473 57.0413 45.5483 57.1623 45.5591C60.1625 45.8228 62.671 47.96 63.4051 50.8778C63.4252 50.9582 63.4866 51.0219 63.5661 51.0453C63.5881 51.0519 63.6101 51.055 63.6324 51.055C63.691 51.055 63.7482 51.0329 63.7923 50.9919C65.0148 49.8517 66.5361 49.1664 68.1919 49.0103C68.3094 48.9993 68.4005 48.9025 68.4041 48.7846C68.5107 45.4979 69.8471 42.4072 72.1674 40.082C72.2159 40.0335 72.2666 39.9882 72.3158 39.9404C71.8025 36.6681 70.2945 33.5235 67.7839 31.0072C67.2901 30.5127 66.4897 30.5125 65.9951 31.0072L55.707 41.319C56.2686 42.1379 56.6656 43.0857 56.8452 44.1205Z" fill="#F36954"/>
<path d="M63.4032 50.8775C63.4234 50.9579 63.4848 51.0217 63.5642 51.0451C63.5862 51.0517 63.6083 51.0547 63.6305 51.0547C63.6891 51.0547 63.7463 51.0327 63.7904 50.9917C64.3876 50.4346 65.057 49.9881 65.7779 49.6569C65.6973 49.3881 65.5512 49.1345 65.3391 48.9217L63.6327 47.211C62.9473 46.5238 61.8343 46.5221 61.1469 47.2079C61.1417 47.2128 61.1377 47.2182 61.1328 47.2234C62.2259 48.1555 63.0364 49.419 63.4032 50.8775Z" fill="#E2614D"/>
<path d="M67.0577 45.6743H64.6445C63.6735 45.6743 62.8867 44.8873 62.8867 43.9165C62.8867 42.9457 63.6735 42.1587 64.6445 42.1587H67.0577C68.0287 42.1587 68.8155 42.9457 68.8155 43.9165C68.8155 44.8875 68.0287 45.6743 67.0577 45.6743Z" fill="#E2614D"/>
<path d="M64.3047 40.8182C63.8554 40.8182 63.4061 40.6471 63.0629 40.3047C62.3758 39.6189 62.3748 38.5059 63.0604 37.8187L64.7676 36.1082C65.4533 35.4213 66.5664 35.4201 67.2533 36.1059C67.9405 36.7917 67.9415 37.9047 67.2559 38.5919L65.5487 40.3024C65.2056 40.646 64.7551 40.8182 64.3047 40.8182Z" fill="#E2614D"/>
<path d="M86.3445 37.2335C86.3239 37.1798 86.2918 37.132 86.252 37.0919C86.2119 37.0518 86.1643 37.0199 86.1106 36.9988C81.2424 35.0599 75.7041 36.2053 72.001 39.9166C69.541 42.3822 68.2126 45.6597 68.1641 49.0129C68.4073 48.989 68.6541 48.9761 68.9035 48.9761C72.549 48.9761 75.5942 51.5941 76.2702 55.0525C78.9284 54.6194 81.4456 53.3678 83.4338 51.3752C87.1367 47.6634 88.2793 42.1127 86.3445 37.2335Z" fill="#58C4D9"/>
<path d="M80.0273 43.3295C79.3402 42.6437 78.2271 42.6449 77.5416 43.3323L71.4609 49.4267C72.6087 49.8451 73.6263 50.5365 74.4361 51.4222L80.0304 45.8152C80.7162 45.1281 80.7148 44.015 80.0273 43.3295Z" fill="#F36954"/>
<path d="M88.8684 57.3643C88.9295 57.7186 88.9609 58.0836 88.9612 58.4492C88.9614 58.5706 89.0542 58.6716 89.1749 58.6824C90.1263 58.7661 91.0333 59.0609 91.8707 59.5587C91.908 59.581 91.9492 59.5918 91.9905 59.5918C92.0561 59.5918 92.1213 59.5641 92.1672 59.5114C92.3671 59.2824 92.5384 59.097 92.7072 58.928C94.1219 57.51 95.8326 56.498 97.698 55.9463C97.873 55.2985 97.968 54.6179 97.968 53.9145C97.968 49.6294 94.502 46.1553 90.2263 46.1553C86.5799 46.1553 83.5239 48.683 82.7031 52.085C85.7603 52.1379 88.3441 54.3394 88.8684 57.3643Z" fill="#E2614D"/>
<path d="M35.8152 67.7557C35.0302 66.3647 34.5334 64.8391 34.3435 63.2693C32.0593 62.8957 30.1201 61.4327 29.1266 59.3789C25.8725 60.2972 23.4863 63.2916 23.4863 66.8466C23.4863 67.1545 23.5098 67.4569 23.5447 67.7555H35.8152V67.7557Z" fill="#E2614D"/>
<path d="M94.8987 63.9412C95.1251 65.2473 94.9451 66.5629 94.3793 67.7556H104.327C106.676 64.4566 107.244 60.1511 105.717 56.298C105.697 56.249 105.668 56.2049 105.631 56.1681C105.595 56.1313 105.551 56.102 105.502 56.0826C101.031 54.3018 95.9447 55.3537 92.5437 58.7622C92.2952 59.0113 92.063 59.2715 91.8398 59.5377C93.4186 60.4649 94.571 62.0505 94.8987 63.9412Z" fill="#58C4D9"/>
<path d="M94.3789 67.7559H96.5527L100.02 64.2811C100.706 63.5939 100.704 62.4808 100.017 61.7953C99.3296 61.1095 98.2166 61.1107 97.531 61.7981L94.9569 64.3781C95.0778 65.539 94.8816 66.6961 94.3789 67.7559Z" fill="#F36954"/>
<path d="M63.6749 51.0133C62.9697 47.8563 60.2974 45.5988 57.1837 45.3253C57.183 44.9144 57.1497 44.4984 57.077 44.0801C56.3866 40.0966 52.5927 37.4297 48.6037 38.1241C46.533 38.4846 44.819 39.6811 43.7427 41.3037C42.1844 40.1395 40.1676 39.5927 38.0969 39.953C34.1071 40.6476 31.4331 44.4403 32.1241 48.4237C32.1963 48.8421 32.3046 49.2452 32.4426 49.6319C29.4989 50.9901 27.7113 54.1943 28.2902 57.5348C28.8372 60.6926 31.3354 63.0206 34.3349 63.5048C34.0443 61.4911 34.2775 59.4126 35.0559 57.4493C35.0634 57.4301 35.0746 57.4132 35.0894 57.3982C35.1037 57.3839 35.121 57.3726 35.14 57.3649C36.5364 56.8087 38.0041 56.5266 39.5017 56.5266C42.652 56.5266 45.6152 57.7573 47.8452 59.9923C48.0065 60.1542 48.1612 60.3213 48.3119 60.491C48.1872 59.6829 48.1225 58.8602 48.1225 58.0266C48.1225 57.457 48.5845 56.9937 49.1524 56.9937H61.4252C61.4146 56.8305 61.4069 56.6665 61.4069 56.5005C61.4069 54.3579 62.2736 52.4177 63.6749 51.0133Z" fill="#E2614D"/>
<path d="M38.0046 51.7001C37.9943 51.7001 37.9842 51.6999 37.9742 51.6999C37.0034 51.6835 36.2299 50.8833 36.2464 49.9125C36.2979 46.8692 38.794 44.4263 41.8292 44.4263C41.8589 44.4263 41.8885 44.4265 41.9185 44.427C43.4475 44.4506 44.9163 45.1118 45.9478 46.2413C46.6024 46.9582 46.552 48.0701 45.8353 48.7247C45.1186 49.3796 44.0067 49.3292 43.3519 48.6124C42.9656 48.1892 42.4369 47.9513 41.8634 47.9424C40.7208 47.9238 39.7805 48.8351 39.7613 49.9723C39.7453 50.9325 38.9613 51.6999 38.0046 51.7001Z" fill="#F36954"/>
<path d="M47.7092 54.7248C47.5062 54.7248 47.2997 54.6894 47.0984 54.6146C46.1881 54.2769 45.7238 53.2656 46.0613 52.3552C47.0419 49.7117 49.992 48.3552 52.6386 49.3313C53.9548 49.8174 55.0245 50.8367 55.5732 52.1281C55.9529 53.0216 55.5366 54.0538 54.6429 54.4334C53.75 54.8134 52.7175 54.3969 52.3376 53.5032C52.1635 53.0938 51.8379 52.7835 51.4212 52.6295C50.5899 52.3229 49.665 52.7485 49.3575 53.5777C49.0948 54.2865 48.4231 54.7248 47.7092 54.7248Z" fill="#F36954"/>
<path d="M76.3948 56.9749H76.3306C76.3302 56.9913 76.3302 57.008 76.3295 57.0244H78.684C79.3827 57.0244 79.9487 57.5918 79.9487 58.2916C79.9487 61.8237 78.8087 65.0894 76.8884 67.7557H94.6297C95.1601 66.5885 95.3623 65.2584 95.1273 63.9012C94.6046 60.8843 92.1116 58.7048 89.1957 58.4487C89.1952 58.0777 89.1645 57.7017 89.0994 57.3241C88.4757 53.726 85.0491 51.3173 81.4463 51.9445C79.576 52.2705 78.0275 53.3508 77.0558 54.8168C76.7405 54.5815 76.4035 54.3766 76.0508 54.2004C76.2838 54.926 76.411 55.6987 76.411 56.501C76.4108 56.6557 76.4056 56.8123 76.3948 56.9749Z" fill="#E2614D"/>
<path d="M76.6291 56.9938C76.6398 56.8307 76.6476 56.6666 76.6476 56.5007C76.6476 52.2151 73.1814 48.7412 68.9057 48.7412C64.6302 48.7412 61.1641 52.2154 61.1641 56.5007C61.1641 56.6666 61.1718 56.8307 61.1823 56.9938H76.6291Z" fill="#E2614D"/>
<path d="M48.0104 59.827C44.6094 56.4187 39.5232 55.3668 35.0523 57.1474C35.0033 57.167 34.9594 57.1963 34.9224 57.2329C34.8859 57.2697 34.8566 57.3135 34.8371 57.363C33.4693 60.8135 33.7824 64.6265 35.5487 67.7554H51.5049C49.8887 65.6024 48.793 63.0365 48.4084 60.2456C48.2795 60.1035 48.147 59.9638 48.0104 59.827Z" fill="#58C4D9"/>
<path d="M42.9374 67.7558H47.9036L43.0218 62.8629C42.336 62.176 41.2234 62.1741 40.536 62.8601C39.8486 63.5457 39.8472 64.6587 40.533 65.3459L42.9374 67.7558Z" fill="#F36954"/>
<path d="M77.0069 67.756C79.0434 65.0428 80.2577 61.676 80.2577 58.027C80.2577 57.3272 79.6919 56.7598 78.993 56.7598H49.1509C48.4523 56.7598 47.8867 57.3272 47.8867 58.027C47.8867 61.676 49.101 65.0428 51.1377 67.756H77.0069Z" fill="#F36954"/>
<path d="M65.8945 67.7555V66.5396C65.8945 65.5688 65.1077 64.7817 64.1367 64.7817C63.1657 64.7817 62.3789 65.5688 62.3789 66.5396V67.7555H65.8945Z" fill="#E2614D"/>
<path d="M69.2672 67.7557H72.0007C72.5662 67.066 72.5278 66.0464 71.8844 65.4014L70.1779 63.6909C69.4924 63.0038 68.3794 63.0021 67.6922 63.6879C67.0047 64.3737 67.0036 65.4865 67.6891 66.1737L69.2672 67.7557Z" fill="#E2614D"/>
<path d="M58.7286 67.7557L60.3064 66.1742C60.9922 65.487 60.991 64.3739 60.3039 63.6884C59.6167 63.0026 58.5036 63.0038 57.8179 63.691L56.1111 65.4014C55.4678 66.0462 55.4291 67.0657 55.9944 67.7555L58.7286 67.7557Z" fill="#E2614D"/>
<path d="M56.0269 63.0151H53.6133C52.6423 63.0151 51.8555 62.2281 51.8555 61.2573C51.8555 60.2865 52.6423 59.4995 53.6133 59.4995H56.0269C56.9979 59.4995 57.7847 60.2865 57.7847 61.2573C57.7847 62.2281 56.9977 63.0151 56.0269 63.0151Z" fill="#E2614D"/>
<path d="M74.531 63.0151H72.1172C71.1464 63.0151 70.3594 62.2281 70.3594 61.2573C70.3594 60.2865 71.1464 59.4995 72.1172 59.4995H74.531C75.502 59.4995 76.2888 60.2865 76.2888 61.2573C76.2888 62.2281 75.5018 63.0151 74.531 63.0151Z" fill="#E2614D"/>
<path d="M21.7912 79.876C21.8123 79.8819 21.8336 79.8849 21.8547 79.8849C21.9053 79.8849 21.955 79.8685 21.9963 79.8373C22.0548 79.793 22.0891 79.7239 22.0891 79.6505V76.6756C22.0891 75.8356 22.7725 75.1522 23.6125 75.1522C24.4525 75.1522 25.1359 75.8356 25.1359 76.6756V79.6505C25.1359 79.7239 25.1702 79.793 25.2288 79.8373C25.27 79.8685 25.3197 79.8849 25.3703 79.8849C25.3916 79.8849 25.413 79.8821 25.4338 79.876C26.6669 79.5287 28.1216 79.3449 29.6402 79.3449C33.907 79.3449 36.7734 80.728 36.7734 82.0198C36.7734 82.1867 36.7225 82.3613 36.622 82.539C36.5887 82.5973 36.5823 82.6674 36.6044 82.7309C36.6264 82.7944 36.6745 82.8455 36.7366 82.8711C42.1996 85.123 46.0708 89.8998 46.8398 95.337C46.8498 95.4076 46.8913 95.4697 46.9525 95.506C46.9891 95.5276 47.0303 95.5386 47.0718 95.5386C47.0999 95.5386 47.128 95.5334 47.155 95.5234L84.157 81.4665C84.873 81.1946 85.6244 81.0568 86.3903 81.0568C87.4635 81.0568 88.525 81.3336 89.4604 81.857C91.087 82.7673 92.2141 84.3373 92.5527 86.1643L92.875 87.9045C92.8891 87.9798 92.9385 88.0435 93.0084 88.0752C93.0393 88.0892 93.0723 88.0963 93.1054 88.0963C93.1469 88.0963 93.1881 88.0855 93.2247 88.0637L105.665 80.7198C106.734 76.9105 107.276 72.9608 107.276 68.904C107.276 68.2332 106.733 67.6895 106.064 67.6895H21.4192C20.7498 67.6895 20.207 68.2332 20.207 68.904C20.207 72.6425 20.6692 76.2898 21.5774 79.8205C21.6484 79.8392 21.7216 79.8563 21.7912 79.876Z" fill="#E6E9ED"/>
<path opacity="0.1" d="M21.7912 79.876C21.8123 79.8819 21.8336 79.8849 21.8547 79.8849C21.9053 79.8849 21.955 79.8685 21.9963 79.8373C22.0548 79.793 22.0891 79.7239 22.0891 79.6505V76.6756C22.0891 75.8356 22.7725 75.1522 23.6125 75.1522C24.4525 75.1522 25.1359 75.8356 25.1359 76.6756V79.6505C25.1359 79.7239 25.1702 79.793 25.2288 79.8373C25.27 79.8685 25.3197 79.8849 25.3703 79.8849C25.3916 79.8849 25.413 79.8821 25.4338 79.876C26.4892 79.5786 27.7077 79.4023 28.9891 79.3576C28.1584 75.9713 27.7377 72.4791 27.7377 68.904C27.7377 68.2332 28.2803 67.6895 28.9499 67.6895H21.4192C20.7498 67.6895 20.207 68.2332 20.207 68.904C20.207 72.6425 20.6692 76.2898 21.5774 79.8205C21.6484 79.8392 21.7216 79.8563 21.7912 79.876Z" fill="black"/>
<path d="M23.6128 80.7124C24.0942 80.4422 24.6905 80.2066 25.3711 80.0147V76.6753C25.3711 75.7045 24.5843 74.9175 23.6133 74.9175C22.6423 74.9175 21.8555 75.7045 21.8555 76.6753V80.0147C22.5361 80.2064 23.1316 80.4422 23.6128 80.7124Z" fill="#58C4D9"/>
<path d="M41.5709 113.332L35.2221 113.334H35.2198C32.1975 113.334 29.606 111.186 29.058 108.227L28.9955 107.89C28.4473 104.93 30.0996 102.003 32.9245 100.929L47.1073 95.5415C46.377 89.6999 42.2604 84.8076 36.6077 82.5629C36.0593 83.4847 34.1707 84.2872 31.7116 84.5758C31.6179 84.5868 31.5396 84.6531 31.5136 84.744C31.4876 84.835 31.5185 84.9325 31.5923 84.9915C32.8669 86.0111 33.6675 87.0859 33.7343 87.8671C33.7587 88.1502 33.6891 88.3799 33.5213 88.5693C33.2224 88.9068 32.6346 89.0851 31.8218 89.0851C31.8218 89.0851 31.8218 89.0851 31.8216 89.0851C30.2391 89.0851 28.0992 88.4235 26.0972 87.3154C25.2155 86.8267 24.431 86.293 23.7647 85.7284C23.7209 85.6914 23.667 85.6729 23.6133 85.6729C23.5594 85.6729 23.5055 85.6914 23.4619 85.7284C22.7951 86.2935 22.0106 86.8274 21.1298 87.3151C19.1278 88.4235 16.9877 89.0851 15.4052 89.0851C14.5922 89.0851 14.0046 88.9068 13.7058 88.5693C13.538 88.3799 13.4681 88.1505 13.4925 87.8673C13.5595 87.0862 14.3602 86.0113 15.6342 84.9915C15.7078 84.9325 15.739 84.835 15.713 84.744C15.6872 84.6531 15.6089 84.5868 15.5149 84.5758C13.0552 84.2872 11.1663 83.4843 10.6188 82.562C4.37273 85.0417 0 90.7534 0 97.4062C0 106.333 7.87055 113.569 17.5791 113.569H41.9531C42.2163 113.569 42.0127 113.475 41.5709 113.332Z" fill="#F36954"/>
<path d="M7.60547 97.4064C7.60547 92.1044 10.3823 87.3988 14.6714 84.4513C12.6291 84.0948 11.1016 83.376 10.6186 82.5625C4.37273 85.042 0 90.7537 0 97.4064C0 106.333 7.87055 113.569 17.5791 113.569H25.1848C15.4763 113.569 7.60547 106.333 7.60547 97.4064Z" fill="#E2614D"/>
<path d="M37.0082 82.0201C37.0082 80.4133 33.7096 79.1108 29.6406 79.1108C27.1483 79.1108 24.9456 79.6 23.6123 80.3483C22.2798 79.6002 20.0774 79.1108 17.5846 79.1108C13.5159 79.1108 10.2168 80.4133 10.2168 82.0201C10.2168 83.3387 12.4401 84.4518 15.4862 84.8092C13.6227 86.3005 12.7694 87.8678 13.5287 88.7251C14.5349 89.8611 17.9887 89.3216 21.2418 87.5207C22.1552 87.0149 22.9555 86.4641 23.6118 85.9077C24.2687 86.4643 25.0696 87.0149 25.9823 87.5207C29.2356 89.3216 32.6891 89.8607 33.6951 88.7251C34.4547 87.8678 33.6016 86.3005 31.7373 84.8092C34.7856 84.4518 37.0082 83.3387 37.0082 82.0201Z" fill="#58C4D9"/>
<path d="M119.973 92.4282L119.501 89.882C119.339 89.0031 118.491 88.4223 117.609 88.584L99.3904 91.9306L111.023 84.1548C111.574 83.7863 111.829 83.1355 111.716 82.5174C111.684 82.3459 111.623 82.1776 111.533 82.0175L110.217 79.6859C110.003 79.3063 109.643 79.0283 109.221 78.916C108.798 78.8033 108.348 78.8647 107.972 79.0871L92.8398 88.0199L95.7025 103.475L113.059 106.594C113.491 106.671 113.938 106.571 114.294 106.316C114.651 106.061 114.89 105.672 114.954 105.239L115.347 102.606C115.374 102.425 115.37 102.246 115.338 102.076C115.224 101.457 114.751 100.94 114.104 100.792L100.451 97.6604L118.67 94.3135C119.553 94.1513 120.136 93.3076 119.973 92.4282Z" fill="#58C4D9"/>
<path d="M28.8272 108.27C29.396 111.341 32.0857 113.57 35.2216 113.569L90.0576 113.548C91.9873 113.547 93.8175 112.692 95.0517 111.215C96.2864 109.738 96.7978 107.79 96.4476 105.9L92.7844 86.1215C92.434 84.2313 91.2586 82.594 89.576 81.6522C87.8934 80.7105 85.878 80.5626 84.0748 81.2472L32.8409 100.71C29.9107 101.824 28.196 104.862 28.7646 107.933L28.8272 108.27Z" fill="#E2614D"/>
<g opacity="0.1">
<path opacity="0.1" d="M28.8272 108.27C28.9144 108.741 29.0571 109.19 29.2383 109.617C29.9941 108.274 31.2082 107.188 32.7408 106.605L86.246 86.279C88.1292 85.564 90.2341 85.7186 91.991 86.7018C92.3601 86.9086 92.7044 87.149 93.0237 87.4155L92.7844 86.1215C92.434 84.2313 91.2586 82.594 89.576 81.6522C87.8934 80.7105 85.878 80.5626 84.0748 81.2472L32.8409 100.71C29.9107 101.824 28.196 104.862 28.7646 107.933L28.8272 108.27Z" fill="black"/>
</g>
<path d="M86.9141 105.326C86.7318 104.372 85.8088 103.747 84.8575 103.93C83.904 104.112 83.279 105.033 83.4613 105.987L84.9083 113.55L88.4874 113.549L86.9141 105.326Z" fill="#F36954"/>
<path d="M77.3878 107.41C77.2078 106.456 76.2891 105.829 75.3347 106.008C74.3808 106.188 73.7531 107.107 73.9331 108.061L74.9686 113.554L78.5459 113.553L77.3878 107.41Z" fill="#F36954"/>
<path d="M68.0727 94.1708C68.2735 94.9681 68.9895 95.4997 69.7761 95.4997C69.9181 95.4997 70.0627 95.4823 70.2066 95.446C71.1481 95.209 71.7191 94.2537 71.4821 93.312L69.8089 86.6675L66.5 87.9247L68.0727 94.1708Z" fill="#F36954"/>
<path d="M58.9236 105.878C58.7513 104.923 57.838 104.288 56.8817 104.46C55.9264 104.633 55.2915 105.547 55.4637 106.502L56.7366 113.561L60.3087 113.56L58.9236 105.878Z" fill="#F36954"/>
<path d="M41.1912 102.593C41.3649 103.421 42.0955 103.99 42.9097 103.99C43.0295 103.99 43.1509 103.978 43.2727 103.952C44.2229 103.753 44.8311 102.821 44.6319 101.871L43.5357 96.6482L40.209 97.9119L41.1912 102.593Z" fill="#F36954"/>
</svg>
