<svg width="72" height="72" viewBox="0 0 72 72" fill="none" xmlns="http://www.w3.org/2000/svg">
<path fill-rule="evenodd" clip-rule="evenodd" d="M40.3999 0C45.9352 0 50.4225 4.48729 50.4225 10.0226V15.2669C50.4225 18.7521 53.2479 21.5775 56.7331 21.5775H61.9773C67.5127 21.5775 72 26.0648 72 31.6001V40.3999C72 45.9352 67.5127 50.4225 61.9774 50.4225H56.7331C53.2479 50.4225 50.4225 53.2479 50.4225 56.7331V61.9773C50.4225 67.5127 45.9352 72 40.3999 72H31.6001C26.0648 72 21.5775 67.5127 21.5775 61.9774V56.7331C21.5775 53.2479 18.7521 50.4225 15.2669 50.4225H10.0227C4.4873 50.4225 0 45.9352 0 40.3999V31.6001C0 26.0648 4.48729 21.5775 10.0226 21.5775H15.2669C18.7521 21.5775 21.5775 18.7521 21.5775 15.2669V10.0227C21.5775 4.4873 26.0648 0 31.6001 0H40.3999ZM42.4987 36.9391C42.0479 36.2379 41.3885 35.6703 40.5203 35.2362C41.1881 34.8355 41.6973 34.3346 42.0479 33.7336C42.3985 33.1158 42.5739 32.4146 42.5739 31.6299C42.5739 30.6115 42.29 29.7266 41.7224 28.9753C41.1547 28.224 40.3533 27.648 39.3182 27.2473C38.2998 26.8299 37.1227 26.6212 35.7871 26.6212C34.4681 26.6212 33.2994 26.8299 32.281 27.2473C31.2625 27.648 30.4695 28.224 29.9019 28.9753C29.3342 29.7266 29.0504 30.6115 29.0504 31.6299C29.0504 32.4146 29.2257 33.1158 29.5763 33.7336C29.9269 34.3346 30.4278 34.8355 31.0789 35.2362C30.2274 35.6703 29.5679 36.2379 29.1005 36.9391C28.6497 37.6404 28.4243 38.4501 28.4243 39.3684C28.4243 40.4536 28.7248 41.4052 29.3259 42.2233C29.9436 43.0247 30.8034 43.6508 31.9053 44.1016C33.0239 44.5357 34.3179 44.7527 35.7871 44.7527C37.2563 44.7527 38.5502 44.5357 39.6688 44.1016C40.7874 43.6508 41.6556 43.0247 42.2733 42.2233C42.8911 41.4052 43.1999 40.4536 43.1999 39.3684C43.1999 38.4501 42.9662 37.6404 42.4987 36.9391ZM33.8086 30.2024C34.3095 29.8018 34.969 29.6014 35.7871 29.6014C36.6219 29.6014 37.2897 29.8018 37.7905 30.2024C38.2914 30.5864 38.5419 31.1207 38.5419 31.8052C38.5419 32.4731 38.2914 32.999 37.7905 33.383C37.2897 33.767 36.6219 33.959 35.7871 33.959C34.9523 33.959 34.2928 33.767 33.8086 33.383C33.3245 32.999 33.0824 32.4731 33.0824 31.8052C33.0824 31.1207 33.3245 30.5864 33.8086 30.2024ZM38.1912 41.0964C37.6069 41.5471 36.8055 41.7725 35.7871 41.7725C34.7853 41.7725 33.9923 41.5471 33.4079 41.0964C32.8236 40.6456 32.5314 40.0278 32.5314 39.2431C32.5314 38.4751 32.8236 37.8657 33.4079 37.415C33.9923 36.9642 34.7853 36.7388 35.7871 36.7388C36.8055 36.7388 37.6069 36.9642 38.1912 37.415C38.7923 37.8657 39.0928 38.4751 39.0928 39.2431C39.0928 40.0111 38.7923 40.6289 38.1912 41.0964Z" fill="#58C4D9"/>
</svg>
