<svg width="72" height="72" viewBox="0 0 72 72" fill="none" xmlns="http://www.w3.org/2000/svg">
<path fill-rule="evenodd" clip-rule="evenodd" d="M3.80888 26.8046C-1.26963 31.8831 -1.26962 40.117 3.80888 45.1955L26.8045 68.1911C31.8831 73.2696 40.117 73.2696 45.1955 68.1911L68.1911 45.1954C73.2696 40.1169 73.2696 31.8831 68.1911 26.8045L45.1954 3.80888C40.1169 -1.26963 31.883 -1.26962 26.8045 3.80888L3.80888 26.8046ZM40.2055 35.6118C39.0368 34.6268 37.217 34.1343 34.746 34.1343H33.3186L33.594 30.8035H40.9067V27.5478H30.2132L29.3116 37.415H33.7944C35.297 37.415 36.3488 37.607 36.9499 37.991C37.5676 38.375 37.8765 38.9426 37.8765 39.6939C37.8765 40.4118 37.5843 40.9711 37 41.3718C36.4156 41.7725 35.6142 41.9729 34.5958 41.9729C33.6775 41.9729 32.7843 41.8393 31.9161 41.5722C31.048 41.2883 30.28 40.896 29.6121 40.3951L28.0094 43.5005C28.8441 44.1016 29.8542 44.569 31.0396 44.903C32.2417 45.2202 33.4605 45.3788 34.696 45.3788C36.2987 45.3788 37.6427 45.12 38.728 44.6024C39.8299 44.0682 40.648 43.367 41.1822 42.4988C41.7165 41.6139 41.9836 40.6372 41.9836 39.5687C41.9836 37.9158 41.3909 36.5969 40.2055 35.6118Z" fill="#EDD1A1"/>
</svg>
