<svg width="72" height="72" viewBox="0 0 72 72" fill="none" xmlns="http://www.w3.org/2000/svg">
<path fill-rule="evenodd" clip-rule="evenodd" d="M10.4654 3.35465C14.9382 -1.11822 22.1902 -1.11822 26.6631 3.35466L30.9007 7.59231C33.717 10.4086 38.283 10.4086 41.0993 7.59231L45.3369 3.35466C49.8098 -1.11821 57.0618 -1.11822 61.5346 3.35466L68.6453 10.4654C73.1182 14.9382 73.1182 22.1902 68.6453 26.6631L64.4077 30.9007C61.5914 33.717 61.5914 38.283 64.4077 41.0993L68.6453 45.3369C73.1182 49.8098 73.1182 57.0618 68.6453 61.5346L61.5346 68.6453C57.0618 73.1182 49.8098 73.1182 45.3369 68.6453L41.0993 64.4077C38.283 61.5914 33.717 61.5914 30.9007 64.4077L26.6631 68.6453C22.1902 73.1182 14.9382 73.1182 10.4654 68.6453L3.35465 61.5346C-1.11822 57.0618 -1.11822 49.8098 3.35466 45.3369L7.5923 41.0993C10.4086 38.283 10.4086 33.717 7.59231 30.9007L3.35466 26.6631C-1.11821 22.1902 -1.11822 14.9382 3.35465 10.4654L10.4654 3.35465ZM37.7906 47.5827V30.0522H30.2275V33.3079H33.7336V47.5827H37.7906Z" fill="#E55D48"/>
</svg>
