<svg width="38" height="32" viewBox="0 0 38 32" fill="none" xmlns="http://www.w3.org/2000/svg">
<path d="M6.5 16.9844V15.9844C6.5 15.4321 6.05228 14.9844 5.5 14.9844H2C1.44772 14.9844 1 15.4321 1 15.9844V30.4844C1 31.0367 1.44772 31.4844 2 31.4844H5.5C6.05228 31.4844 6.5 31.0367 6.5 30.4844V30.4844M6.5 16.9844H8.62384C9.84405 16.9844 11.0338 17.3656 12.0267 18.0749V18.0749C13.2902 18.9774 14.8604 19.341 16.392 19.0857L17.3473 18.9265C18.9241 18.6637 20.4878 19.46 21.2027 20.8897L21.2732 21.0307C21.3965 21.2774 21.288 21.5771 21.0354 21.6877L14.0911 24.7258C13.9864 24.7716 14.028 24.9288 14.1417 24.9168L22.8731 23.9977C22.9573 23.9889 23.0402 23.9693 23.1195 23.9396L32.7851 20.315C34.134 19.8091 35.654 20.1384 36.6727 21.1571V21.1571C37.0938 21.5782 37.009 22.2825 36.4999 22.5916L23.7392 30.3392C23.5827 30.4341 23.4032 30.4844 23.2202 30.4844H6.5M6.5 16.9844V30.4844" stroke="black"/>
<path d="M28.6855 11.5957L28.6854 11.5958L28.6853 11.5959L28.6852 11.5959L28.665 11.6123L28.6464 11.6308L23.9836 16.2937L18.8383 11.6162L18.8383 11.6162L18.832 11.6103L18.8054 11.5851C18.7815 11.5624 18.7458 11.5281 18.6999 11.483C18.608 11.3929 18.4757 11.26 18.3163 11.0915C17.997 10.7541 17.5722 10.2771 17.1485 9.71795C16.2802 8.57198 15.5 7.18755 15.5 5.98438C15.5 3.49909 17.5147 1.48438 20 1.48438C21.4717 1.48438 22.7784 2.19035 23.6003 3.28423L24 3.81629L24.3997 3.28423C25.2216 2.19035 26.5283 1.48438 28 1.48438C30.4853 1.48438 32.5 3.49909 32.5 5.98438C32.5 6.5593 32.2897 7.19497 31.9354 7.84861C31.5835 8.49791 31.108 9.13136 30.622 9.6926C30.1374 10.2523 29.6512 10.73 29.2855 11.0681C29.103 11.2368 28.9514 11.3701 28.8461 11.4605C28.7934 11.5058 28.7524 11.5402 28.725 11.5631L28.6943 11.5885L28.687 11.5945L28.6855 11.5957Z" stroke="black"/>
</svg>
