<svg width="32" height="32" viewBox="0 0 32 32" fill="none" xmlns="http://www.w3.org/2000/svg">
<path d="M20.7996 16.0002C20.7996 17.2733 20.2939 18.4942 19.3938 19.3943C18.4936 20.2945 17.2727 20.8002 15.9996 20.8002C14.7266 20.8002 13.5057 20.2945 12.6055 19.3943C11.7054 18.4942 11.1996 17.2733 11.1996 16.0002C11.1996 15.7266 11.2284 15.4594 11.278 15.2002H9.59965V21.5954C9.59965 22.0402 9.95965 22.4002 10.4044 22.4002H21.5964C21.8096 22.3998 22.0139 22.3148 22.1645 22.164C22.3151 22.0131 22.3996 21.8086 22.3996 21.5954V15.2002H20.7212C20.7708 15.4594 20.7996 15.7266 20.7996 16.0002ZM15.9996 19.2002C16.42 19.2001 16.8362 19.1172 17.2245 18.9563C17.6128 18.7953 17.9656 18.5595 18.2627 18.2622C18.5599 17.9649 18.7955 17.612 18.9563 17.2236C19.1171 16.8352 19.1998 16.419 19.1996 15.9986C19.1995 15.5783 19.1166 15.1621 18.9557 14.7738C18.7947 14.3855 18.5589 14.0327 18.2616 13.7356C17.9643 13.4384 17.6114 13.2027 17.223 13.042C16.8346 12.8812 16.4184 12.7985 15.998 12.7986C15.1491 12.7988 14.3351 13.1363 13.735 13.7367C13.1349 14.3371 12.7978 15.1513 12.798 16.0002C12.7983 16.8491 13.1357 17.6632 13.7361 18.2633C14.3365 18.8634 15.1507 19.2004 15.9996 19.2002ZM19.8396 12.6402H21.758C21.8855 12.6402 22.0078 12.5897 22.098 12.4997C22.1883 12.4098 22.2392 12.2877 22.2396 12.1602V10.2418C22.2396 10.1141 22.1889 9.99161 22.0986 9.90129C22.0083 9.81097 21.8858 9.76023 21.758 9.76023H19.8396C19.7119 9.76023 19.5894 9.81097 19.4991 9.90129C19.4088 9.99161 19.358 10.1141 19.358 10.2418V12.1602C19.3596 12.4242 19.5756 12.6402 19.8396 12.6402ZM15.9996 0.640234C11.9259 0.640234 8.01905 2.25852 5.13849 5.13907C2.25793 8.01963 0.639648 11.9265 0.639648 16.0002C0.639648 20.074 2.25793 23.9808 5.13849 26.8614C8.01905 29.742 11.9259 31.3602 15.9996 31.3602C18.0168 31.3602 20.0141 30.9629 21.8777 30.191C23.7412 29.4191 25.4345 28.2877 26.8608 26.8614C28.2871 25.4351 29.4185 23.7418 30.1904 21.8783C30.9623 20.0147 31.3596 18.0173 31.3596 16.0002C31.3596 13.9831 30.9623 11.9858 30.1904 10.1222C29.4185 8.25866 28.2871 6.56538 26.8608 5.13907C25.4345 3.71277 23.7412 2.58136 21.8777 1.80944C20.0141 1.03753 18.0168 0.640234 15.9996 0.640234ZM23.9996 22.2226C23.9996 23.2002 23.1996 24.0002 22.222 24.0002H9.77725C8.79965 24.0002 7.99965 23.2002 7.99965 22.2226V9.77783C7.99965 8.80023 8.79965 8.00023 9.77725 8.00023H22.222C23.1996 8.00023 23.9996 8.80023 23.9996 9.77783V22.2226Z" fill="white"/>
</svg>
