<svg width="34" height="33" viewBox="0 0 34 33" fill="none" xmlns="http://www.w3.org/2000/svg">
<path d="M22.5 26.4844V20.7344C22.5 20.044 21.9404 19.4844 21.25 19.4844V19.4844C20.5596 19.4844 20 20.044 20 20.7344V28.0331C20 28.3841 19.5756 28.5599 19.3273 28.3117L18.047 27.0314C17.7289 26.7133 17.2306 26.664 16.8564 26.9135V26.9135C16.3959 27.2204 16.2972 27.8559 16.6429 28.2881L19.6031 31.9882C19.854 32.3018 20.2338 32.4844 20.6354 32.4844H26.8C27.7389 32.4844 28.5 31.7233 28.5 30.7844V24.9844C28.5 24.4321 28.0523 23.9844 27.5 23.9844V23.9844C26.9477 23.9844 26.5 24.4321 26.5 24.9844V26.4844" stroke="black"/>
<path d="M26.5 26.4844V24.4844C26.5 23.9321 26.0523 23.4844 25.5 23.4844V23.4844C24.9477 23.4844 24.5 23.9321 24.5 24.4844V26.4844" stroke="black"/>
<path d="M24.5 26.4844V23.9844C24.5 23.4321 24.0523 22.9844 23.5 22.9844V22.9844C22.9477 22.9844 22.5 23.4321 22.5 23.9844V26.4844" stroke="black"/>
<path d="M25 21.9844V1.98437C25 1.43209 24.5523 0.984375 24 0.984375H10.5C9.94772 0.984375 9.5 1.43209 9.5 1.98438V26.4844C9.5 27.0367 9.94772 27.4844 10.5 27.4844H14.5" stroke="black"/>
<path d="M16 5.98438V3.48438H18.5V5.98438H21V8.48438H18.5V10.9844H16V8.48438H13.5V5.98438H16Z" stroke="black"/>
<path d="M14.5 12.4844H16.5M17.5 12.4844H21M12 14.4844H13.5M14.5 14.4844H23M12 16.9844H13.5M14.5 16.9844H23M12 18.9844H13.5M14.5 18.9844H18.5M12 21.4844H13.5M14.5 21.4844H18.5M12 23.4844H13.5M14.5 23.4844H18.5" stroke="black"/>
<path d="M26.5 3.48438H32.5C33.0523 3.48438 33.5 3.93209 33.5 4.48438V24.9844C33.5 25.5367 33.0523 25.9844 32.5 25.9844H30.5M27 21.9844H31M27 19.4844H31M27 16.9844H31M27 14.9844H31M27 12.9844H31M27 10.4844V8.73438M27 6.98438V8.73438M27 8.73438H29" stroke="black"/>
<path d="M8 3.48438H2C1.44772 3.48438 1 3.93209 1 4.48438V24.9844C1 25.5367 1.44772 25.9844 2 25.9844H8M7.5 21.9844H3.5M7.5 19.4844H3.5M7.5 16.9844H3.5M7.5 14.9844H3.5M7.5 12.9844H3.5M7.5 10.4844V8.73438M7.5 6.98438V8.73438M7.5 8.73438H5.5" stroke="black"/>
</svg>
