<svg width="32" height="32" viewBox="0 0 32 32" fill="none" xmlns="http://www.w3.org/2000/svg">
<path d="M15.9996 0.640234C7.51645 0.640234 0.639648 7.51704 0.639648 16.0002C0.639648 24.4834 7.51645 31.3602 15.9996 31.3602C24.4828 31.3602 31.3596 24.4834 31.3596 16.0002C31.3596 7.51704 24.4828 0.640234 15.9996 0.640234ZM12.2396 22.3666H9.12925V12.357H12.2396V22.3666ZM10.6652 11.1282C9.68285 11.1282 9.04765 10.4322 9.04765 9.57143C9.04765 8.69303 9.70205 8.01783 10.7052 8.01783C11.7084 8.01783 12.3228 8.69303 12.342 9.57143C12.342 10.4322 11.7084 11.1282 10.6652 11.1282ZM23.5996 22.3666H20.4892V16.8194C20.4892 15.5282 20.038 14.6514 18.9132 14.6514C18.054 14.6514 17.5436 15.245 17.318 15.8162C17.2348 16.0194 17.214 16.3074 17.214 16.5938V22.365H14.102V15.549C14.102 14.2994 14.062 13.2546 14.0204 12.3554H16.7228L16.8652 13.7458H16.9276C17.3372 13.093 18.3404 12.1298 20.0188 12.1298C22.0652 12.1298 23.5996 13.501 23.5996 16.4482V22.3666Z" fill="white"/>
</svg>
