<svg width="194" height="52" viewBox="0 0 194 52" fill="none" xmlns="http://www.w3.org/2000/svg">
<path fill-rule="evenodd" clip-rule="evenodd" d="M18.5759 0C16.0441 0 13.6941 1.31564 12.3707 3.47404L1.07359 21.8985C-0.357862 24.2331 -0.357862 27.1735 1.07359 29.5081L12.3707 47.9325C13.6941 50.091 16.0441 51.4066 18.5759 51.4066H37.2051C39.6461 51.4066 41.9246 50.183 43.2729 48.1481L55.4802 29.7236C57.0948 27.2866 57.0948 24.12 55.4802 21.683L43.2729 3.25853C41.9246 1.22361 39.6461 0 37.2051 0H18.5759ZM45.8907 7.27881C48.1653 12.7379 48.6202 18.4245 47.4829 22.5188C46.3456 26.6131 39.6582 37.0764 29.2859 37.0764C16.3205 37.0764 14.7283 26.6131 14.7283 23.6561C14.7283 20.6991 16.3205 13.6478 24.9641 13.6478C33.405 13.6478 33.386 18.8539 33.3805 20.369C33.3803 20.4054 33.3802 20.4396 33.3802 20.4716C33.3802 21.8364 32.6978 25.9308 28.831 26.1582C27.4814 26.2376 26.4003 26.2622 25.5725 26.2583C24.5374 26.2535 23.5993 27.1004 23.5993 28.1355C23.5993 28.8564 24.0628 29.4936 24.771 29.6284C26.0049 29.8633 27.5787 30.0251 28.376 30.0251C29.7408 30.0251 37.2471 29.1152 37.2471 20.4716C37.2471 11.8281 29.5133 9.55344 24.9641 9.55344C20.4148 9.55344 10.4065 12.7379 10.4065 24.3385C10.4065 35.9391 19.505 42.0806 29.2859 42.0806C39.0668 42.0806 53.1695 33.6645 53.1695 18.197L45.8907 7.27881Z" fill="white"/>
<path d="M84.0498 32.1759C84.9438 32.1759 85.6685 32.9007 85.6685 33.7947C85.6685 34.6887 84.9438 35.4134 84.0498 35.4134H71.0752C70.5229 35.4134 70.0752 34.9657 70.0752 34.4134V15.6223C70.0752 15.07 70.5229 14.6223 71.0752 14.6223H83.634C84.528 14.6223 85.2527 15.347 85.2527 16.241C85.2527 17.135 84.528 17.8598 83.634 17.8598H73.9364V23.2655H82.3865C83.2641 23.2655 83.9755 23.9769 83.9755 24.8545C83.9755 25.7321 83.2641 26.4435 82.3865 26.4435H73.9364V32.1759H84.0498Z" fill="white"/>
<path d="M98.6161 19.3746C100.616 19.3746 102.22 19.9587 103.428 21.127C104.636 22.2952 105.24 24.0278 105.24 26.3247V33.5571C105.24 34.5823 104.408 35.4134 103.383 35.4134C102.358 35.4134 101.527 34.5823 101.527 33.5571V26.8C101.527 25.4139 101.2 24.3743 100.547 23.6813C99.8933 22.9685 98.9626 22.612 97.7547 22.612C96.3885 22.612 95.3093 23.0279 94.5173 23.8595C93.7252 24.6713 93.3292 25.8495 93.3292 27.394V33.5571C93.3292 34.5823 92.4981 35.4134 91.4729 35.4134C90.4476 35.4134 89.6165 34.5823 89.6165 33.5571V21.32C89.6165 20.344 90.4077 19.5528 91.3838 19.5528C92.3598 19.5528 93.151 20.344 93.151 21.32V21.6022C93.7648 20.8695 94.5371 20.3151 95.4677 19.9389C96.3984 19.5627 97.4478 19.3746 98.6161 19.3746Z" fill="white"/>
<path d="M118.741 19.3746C120.285 19.3746 121.662 19.7112 122.87 20.3844C124.097 21.0577 125.058 22.0081 125.751 23.2358C126.444 24.4634 126.79 25.8792 126.79 27.4831C126.79 29.087 126.444 30.5127 125.751 31.7601C125.058 32.9878 124.097 33.9382 122.87 34.6115C121.662 35.2847 120.285 35.6213 118.741 35.6213C117.652 35.6213 116.652 35.4332 115.741 35.057C114.85 34.6808 114.098 34.1164 113.484 33.364V33.6462C113.484 34.6222 112.693 35.4134 111.717 35.4134C110.741 35.4134 109.949 34.6222 109.949 33.6462V15.2312C109.949 14.206 110.78 13.3748 111.806 13.3748C112.831 13.3748 113.662 14.206 113.662 15.2312V21.4834C114.296 20.7903 115.038 20.2656 115.89 19.9092C116.761 19.5528 117.711 19.3746 118.741 19.3746ZM118.325 32.4433C119.691 32.4433 120.81 31.9878 121.681 31.077C122.573 30.1661 123.018 28.9682 123.018 27.4831C123.018 25.998 122.573 24.8001 121.681 23.8892C120.81 22.9784 119.691 22.5229 118.325 22.5229C117.434 22.5229 116.632 22.7308 115.919 23.1467C115.207 23.5427 114.642 24.1169 114.226 24.8694C113.811 25.6218 113.603 26.493 113.603 27.4831C113.603 28.4731 113.811 29.3444 114.226 30.0968C114.642 30.8493 115.207 31.4334 115.919 31.8492C116.632 32.2452 117.434 32.4433 118.325 32.4433Z" fill="white"/>
<path d="M130.311 21.4091C130.311 20.3839 131.142 19.5528 132.168 19.5528C133.193 19.5528 134.024 20.3839 134.024 21.4091V33.5571C134.024 34.5823 133.193 35.4134 132.168 35.4134C131.142 35.4134 130.311 34.5823 130.311 33.5571V21.4091ZM132.182 16.939C131.509 16.939 130.945 16.7311 130.489 16.3153C130.034 15.8797 129.806 15.345 129.806 14.7114C129.806 14.0778 130.034 13.5531 130.489 13.1372C130.945 12.7016 131.509 12.4838 132.182 12.4838C132.856 12.4838 133.42 12.6917 133.875 13.1075C134.331 13.5036 134.558 14.0085 134.558 14.6223C134.558 15.2757 134.331 15.8302 133.875 16.2856C133.44 16.7212 132.875 16.939 132.182 16.939Z" fill="white"/>
<path d="M146.025 35.6213C144.421 35.6213 142.976 35.2748 141.689 34.5818C140.402 33.8887 139.392 32.9284 138.659 31.7007C137.946 30.4533 137.59 29.0474 137.59 27.4831C137.59 25.9188 137.946 24.5228 138.659 23.2952C139.392 22.0675 140.402 21.1072 141.689 20.4141C142.976 19.7211 144.421 19.3746 146.025 19.3746C147.649 19.3746 149.104 19.7211 150.391 20.4141C151.678 21.1072 152.678 22.0675 153.391 23.2952C154.124 24.5228 154.49 25.9188 154.49 27.4831C154.49 29.0474 154.124 30.4533 153.391 31.7007C152.678 32.9284 151.678 33.8887 150.391 34.5818C149.104 35.2748 147.649 35.6213 146.025 35.6213ZM146.025 32.4433C147.391 32.4433 148.52 31.9878 149.411 31.077C150.302 30.1661 150.748 28.9682 150.748 27.4831C150.748 25.998 150.302 24.8001 149.411 23.8892C148.52 22.9784 147.391 22.5229 146.025 22.5229C144.659 22.5229 143.53 22.9784 142.639 23.8892C141.768 24.8001 141.332 25.998 141.332 27.4831C141.332 28.9682 141.768 30.1661 142.639 31.077C143.53 31.9878 144.659 32.4433 146.025 32.4433Z" fill="white"/>
<path d="M162.941 35.6213C161.654 35.6213 160.397 35.453 159.169 35.1164C158.605 34.9616 158.093 34.788 157.633 34.5956C156.786 34.2414 156.535 33.2319 156.949 32.4129C157.324 31.6709 158.266 31.4273 159.031 31.7531C159.399 31.9099 159.791 32.0508 160.209 32.1759C161.218 32.4532 162.208 32.5918 163.179 32.5918C165.396 32.5918 166.505 32.0076 166.505 30.8394C166.505 30.2849 166.218 29.8988 165.644 29.681C165.09 29.4632 164.189 29.2553 162.941 29.0573C161.634 28.8593 160.565 28.6316 159.733 28.3741C158.922 28.1167 158.209 27.6712 157.595 27.0376C157.001 26.3841 156.704 25.4832 156.704 24.3347C156.704 22.8298 157.328 21.6319 158.575 20.7408C159.842 19.83 161.545 19.3746 163.684 19.3746C164.773 19.3746 165.862 19.5033 166.951 19.7607C167.351 19.848 167.724 19.9473 168.071 20.0587C168.983 20.3517 169.289 21.4029 168.857 22.2581C168.5 22.9646 167.622 23.2113 166.881 22.9338C165.885 22.5609 164.809 22.3744 163.654 22.3744C162.565 22.3744 161.733 22.5427 161.159 22.8794C160.605 23.1962 160.327 23.6219 160.327 24.1565C160.327 24.7506 160.624 25.1763 161.218 25.4337C161.832 25.6713 162.773 25.899 164.04 26.1168C165.307 26.3148 166.347 26.5425 167.159 26.8C167.971 27.0574 168.664 27.493 169.238 28.1068C169.832 28.7207 170.129 29.5919 170.129 30.7206C170.129 32.2056 169.485 33.3937 168.198 34.2848C166.911 35.1758 165.159 35.6213 162.941 35.6213Z" fill="white"/>
<path d="M173.326 21.4091C173.326 20.3839 174.157 19.5528 175.183 19.5528C176.208 19.5528 177.039 20.3839 177.039 21.4091V33.5571C177.039 34.5823 176.208 35.4134 175.183 35.4134C174.157 35.4134 173.326 34.5823 173.326 33.5571V21.4091ZM175.197 16.939C174.524 16.939 173.96 16.7311 173.504 16.3153C173.049 15.8797 172.821 15.345 172.821 14.7114C172.821 14.0778 173.049 13.5531 173.504 13.1372C173.96 12.7016 174.524 12.4838 175.197 12.4838C175.871 12.4838 176.435 12.6917 176.89 13.1075C177.346 13.5036 177.574 14.0085 177.574 14.6223C177.574 15.2757 177.346 15.8302 176.89 16.2856C176.455 16.7212 175.89 16.939 175.197 16.939Z" fill="white"/>
<path d="M186.813 35.6213C185.526 35.6213 184.268 35.453 183.041 35.1164C182.476 34.9616 181.964 34.788 181.504 34.5956C180.658 34.2414 180.407 33.2319 180.821 32.4129C181.196 31.6709 182.138 31.4273 182.903 31.7531C183.27 31.9099 183.663 32.0508 184.08 32.1759C185.09 32.4532 186.08 32.5918 187.05 32.5918C189.268 32.5918 190.377 32.0076 190.377 30.8394C190.377 30.2849 190.09 29.8988 189.515 29.681C188.961 29.4632 188.06 29.2553 186.813 29.0573C185.506 28.8593 184.436 28.6316 183.605 28.3741C182.793 28.1167 182.08 27.6712 181.466 27.0376C180.872 26.3841 180.575 25.4832 180.575 24.3347C180.575 22.8298 181.199 21.6319 182.446 20.7408C183.714 19.83 185.417 19.3746 187.555 19.3746C188.644 19.3746 189.733 19.5033 190.822 19.7607C191.222 19.848 191.596 19.9473 191.943 20.0587C192.855 20.3517 193.161 21.4029 192.729 22.2581C192.372 22.9646 191.494 23.2113 190.752 22.9338C189.756 22.5609 188.68 22.3744 187.525 22.3744C186.436 22.3744 185.605 22.5427 185.031 22.8794C184.476 23.1962 184.199 23.6219 184.199 24.1565C184.199 24.7506 184.496 25.1763 185.09 25.4337C185.704 25.6713 186.644 25.899 187.912 26.1168C189.179 26.3148 190.218 26.5425 191.03 26.8C191.842 27.0574 192.535 27.493 193.109 28.1068C193.703 28.7207 194 29.5919 194 30.7206C194 32.2056 193.357 33.3937 192.07 34.2848C190.783 35.1758 189.03 35.6213 186.813 35.6213Z" fill="white"/>
</svg>
