<svg width="57" height="52" viewBox="0 0 57 52" fill="none" xmlns="http://www.w3.org/2000/svg">
<path fill-rule="evenodd" clip-rule="evenodd" d="M18.5759 0C16.0441 0 13.6941 1.31564 12.3707 3.47404L1.07359 21.8985C-0.357862 24.2331 -0.357862 27.1735 1.07359 29.5081L12.3707 47.9325C13.6941 50.091 16.0441 51.4066 18.5759 51.4066H37.2051C39.6461 51.4066 41.9246 50.183 43.2729 48.1481L55.4802 29.7236C57.0948 27.2866 57.0948 24.12 55.4802 21.683L43.2729 3.25853C41.9246 1.22361 39.6461 0 37.2051 0H18.5759ZM45.8907 7.27881C48.1653 12.7379 48.6202 18.4245 47.4829 22.5188C46.3456 26.6131 39.6582 37.0764 29.2859 37.0764C16.3205 37.0764 14.7283 26.6131 14.7283 23.6561C14.7283 20.6991 16.3205 13.6478 24.9641 13.6478C33.405 13.6478 33.386 18.8539 33.3805 20.369C33.3803 20.4054 33.3802 20.4396 33.3802 20.4716C33.3802 21.8364 32.6978 25.9308 28.831 26.1582C27.4814 26.2376 26.4003 26.2622 25.5725 26.2583C24.5374 26.2535 23.5993 27.1004 23.5993 28.1355C23.5993 28.8564 24.0628 29.4936 24.771 29.6284C26.0049 29.8633 27.5787 30.0251 28.376 30.0251C29.7408 30.0251 37.2471 29.1152 37.2471 20.4716C37.2471 11.8281 29.5133 9.55344 24.9641 9.55344C20.4148 9.55344 10.4065 12.7379 10.4065 24.3385C10.4065 35.9391 19.505 42.0806 29.2859 42.0806C39.0668 42.0806 53.1695 33.6645 53.1695 18.197L45.8907 7.27881Z" fill="white"/>
</svg>
