<svg width="120" height="120" viewBox="0 0 120 120" fill="none" xmlns="http://www.w3.org/2000/svg">
<path d="M58 104C84.5097 104 106 82.5097 106 56C106 29.4903 84.5097 8 58 8C31.4903 8 10 29.4903 10 56C10 82.5097 31.4903 104 58 104Z" fill="#C0E8EF"/>
<path d="M88.1259 44.833C88.0405 40.0705 86.1636 35.5152 82.8693 32.0749C79.575 28.6346 75.1052 26.5621 70.3509 26.2705C66.7394 26.081 63.1503 26.9417 60.0175 28.7485C56.8848 30.5553 54.3424 33.2308 52.6978 36.4517C50.4033 40.569 47.1821 44.0957 43.289 46.753C40.8889 48.5092 38.9418 50.8121 37.6091 53.4709C36.2765 56.1297 35.5966 59.0678 35.6259 62.0417C35.7113 66.8039 37.5879 71.359 40.8819 74.7992C44.1758 78.2394 48.6451 80.3121 53.399 80.6042C57.011 80.7937 60.6006 79.9331 63.734 78.1263C66.8674 76.3196 69.4105 73.644 71.0559 70.423C73.3488 66.3057 76.5688 62.7789 80.4609 60.1217C82.8616 58.3659 84.8093 56.0631 86.1423 53.4043C87.4753 50.7454 88.1553 47.8071 88.1259 44.833Z" fill="#58C4D9"/>
<path d="M45.4708 16.8843C43.3964 16.871 41.3567 17.4158 39.5652 18.4615C37.7736 19.5072 36.2962 21.0153 35.2876 22.828C34.4799 24.1264 33.9725 25.5889 33.8026 27.1086C33.7325 27.9379 33.4605 28.7374 33.0105 29.4374C32.5605 30.1375 31.9461 30.7168 31.2208 31.1249C29.8749 31.8403 28.7237 32.8731 27.867 34.1338C27.0103 35.3945 26.4739 36.8451 26.3043 38.3598C26.1347 39.8746 26.337 41.4078 26.8936 42.8268C27.4503 44.2457 28.3445 45.5076 29.4988 46.5029C30.6532 47.4983 32.0328 48.1972 33.5182 48.5391C35.0036 48.881 36.5499 48.8556 38.0232 48.4651C39.4966 48.0745 40.8525 47.3306 41.9735 46.2978C43.0944 45.265 43.9467 43.9745 44.4564 42.538C44.7493 41.6804 45.2422 40.9049 45.8943 40.2757C46.5464 39.6464 47.3389 39.1814 48.2064 38.9193C50.7666 38.1668 52.976 36.5288 54.4399 34.2977C55.9039 32.0667 56.5272 29.3879 56.1984 26.7398C55.8696 24.0916 54.6103 21.6465 52.6452 19.8412C50.6801 18.0359 48.1372 16.9878 45.4708 16.8843Z" fill="#F59178"/>
<path d="M45 31.875C47.0711 31.875 48.75 30.1961 48.75 28.125C48.75 26.0539 47.0711 24.375 45 24.375C42.9289 24.375 41.25 26.0539 41.25 28.125C41.25 30.1961 42.9289 31.875 45 31.875Z" fill="#59C4D9"/>
<path d="M23.6251 57.6263L25.607 57.2963C27.2898 57.0139 29.0164 57.3981 30.4207 58.3673C31.825 59.3366 32.7966 60.8147 33.1295 62.4882C33.3262 63.4673 33.2968 64.4783 33.0437 65.4443C32.7906 66.4103 32.3204 67.3058 31.6688 68.0626L28.1457 72.1744C27.4852 72.9448 26.6552 73.5517 25.7209 73.9477C24.7865 74.3436 23.7732 74.5178 22.7603 74.4566C21.7473 74.3954 20.7624 74.1005 19.8825 73.5949C19.0026 73.0893 18.2518 72.3869 17.6888 71.5426L17.3138 70.9688C16.6206 69.9342 16.236 68.7236 16.2051 67.4785C16.1743 66.2335 16.4983 65.0053 17.1395 63.9376L19.0632 60.7313C19.553 59.914 20.2147 59.213 21.0025 58.6768C21.7902 58.1407 22.6851 57.7822 23.6251 57.6263Z" fill="#F59178"/>
<path d="M50.0869 29.5352C49.2195 29.7973 48.4269 30.2623 47.7748 30.8915C47.1227 31.5208 46.6298 32.2963 46.3369 33.1539C45.6864 34.9766 44.4877 36.5533 42.9054 37.6676C41.3231 38.782 39.4347 39.3793 37.4994 39.3777C35.5641 39.376 33.6768 38.7755 32.0964 37.6585C30.5159 36.5415 29.32 34.9627 28.6725 33.1389C27.7475 34.1683 27.0621 35.3899 26.6657 36.7158C26.2694 38.0418 26.1718 39.4391 26.3801 40.8073C26.5885 42.1754 27.0975 43.4804 27.8705 44.6283C28.6436 45.7762 29.6615 46.7385 30.851 47.4459C32.0404 48.1533 33.3719 48.5882 34.7497 48.7194C36.1274 48.8505 37.517 48.6747 38.8186 48.2045C40.1202 47.7343 41.3014 46.9814 42.2772 46C43.253 45.0186 43.9991 43.8332 44.4619 42.5289C44.7548 41.6713 45.2477 40.8958 45.8998 40.2665C46.5519 39.6373 47.3445 39.1723 48.2119 38.9102C50.9872 38.0936 53.3388 36.2349 54.7743 33.7233C56.2098 31.2117 56.6177 28.242 55.9125 25.4364C54.4652 27.3969 52.4211 28.8351 50.0869 29.5352Z" fill="#E2614D"/>
<path d="M30.0208 66.5401C29.3603 67.3105 28.5303 67.9174 27.596 68.3134C26.6617 68.7093 25.6483 68.8835 24.6354 68.8223C23.6225 68.7611 22.6375 68.4661 21.7576 67.9606C20.8778 67.455 20.1269 66.7525 19.564 65.9083L19.189 65.3345C18.5893 64.4256 18.2252 63.3817 18.1296 62.297L17.1471 63.9339C16.506 65.0003 16.1813 66.227 16.2108 67.4709C16.2404 68.7148 16.623 69.9247 17.314 70.9595L17.689 71.5332C18.2519 72.3775 19.0028 73.08 19.8826 73.5856C20.7625 74.0911 21.7475 74.3861 22.7604 74.4473C23.7733 74.5085 24.7867 74.3343 25.721 73.9384C26.6553 73.5424 27.4853 72.9355 28.1458 72.1651L31.669 68.0626C32.2684 67.3545 32.7109 66.5272 32.9672 65.6355C33.2235 64.7438 33.2878 63.8079 33.1558 62.8895L30.0208 66.5401Z" fill="#E2614D"/>
<path d="M35.625 41.25C36.6605 41.25 37.5 40.4105 37.5 39.375C37.5 38.3395 36.6605 37.5 35.625 37.5C34.5895 37.5 33.75 38.3395 33.75 39.375C33.75 40.4105 34.5895 41.25 35.625 41.25Z" fill="#59C4D9"/>
<path d="M24.375 67.5C25.4105 67.5 26.25 66.6605 26.25 65.625C26.25 64.5895 25.4105 63.75 24.375 63.75C23.3395 63.75 22.5 64.5895 22.5 65.625C22.5 66.6605 23.3395 67.5 24.375 67.5Z" fill="#E2614D"/>
<path d="M96.2848 58.785C95.7876 58.7849 95.3108 58.5873 94.9592 58.2356C93.9372 57.2107 93.3633 55.8224 93.3633 54.375C93.3633 52.9276 93.9372 51.5393 94.9592 50.5144C95.1365 50.3353 95.2721 50.1194 95.3564 49.8819C95.4406 49.6444 95.4714 49.3913 95.4465 49.1405C95.4216 48.8898 95.3416 48.6477 95.2123 48.4314C95.0831 48.2151 94.9076 48.03 94.6986 47.8894C94.2943 47.6096 94.0161 47.1823 93.9239 46.6994C93.8316 46.2166 93.9327 45.7168 94.2053 45.3077C94.4779 44.8986 94.9003 44.613 95.3815 44.5123C95.8627 44.4116 96.3642 44.5039 96.778 44.7694C97.4498 45.2173 98.0138 45.8086 98.4295 46.5009C98.8451 47.1931 99.1021 47.9689 99.1817 48.7724C99.2613 49.5759 99.1617 50.387 98.89 51.1474C98.6183 51.9077 98.1813 52.5983 97.6104 53.1694C97.2905 53.4905 97.1109 53.9254 97.1109 54.3787C97.1109 54.8321 97.2905 55.2669 97.6104 55.5881C97.8726 55.8503 98.0511 56.1844 98.1234 56.548C98.1957 56.9117 98.1586 57.2886 98.0167 57.6312C97.8748 57.9738 97.6346 58.2666 97.3263 58.4726C97.018 58.6786 96.6556 58.7886 96.2848 58.7887V58.785Z" fill="#59C4D9"/>
<path d="M76.8752 82.1251C76.3779 82.1251 75.901 81.9276 75.5494 81.5759C75.1978 81.2243 75.0002 80.7474 75.0002 80.2501C74.4758 80.6423 73.8486 80.8735 73.195 80.9155C72.5415 80.9574 71.8899 80.8083 71.3196 80.4864C70.7332 80.1731 70.2427 79.7067 69.9003 79.1368C69.5579 78.567 69.3765 77.9149 69.3752 77.2501V74.6251L66.6659 76.5545C66.461 76.6911 66.2312 76.7861 65.9897 76.834C65.7481 76.8818 65.4995 76.8816 65.258 76.8334C65.0165 76.7852 64.7869 76.6898 64.5822 76.5529C64.3776 76.4159 64.2019 76.24 64.0652 76.0351C63.9286 75.8302 63.8336 75.6005 63.7858 75.3589C63.7379 75.1173 63.7381 74.8687 63.7863 74.6272C63.8345 74.3857 63.9299 74.1561 64.0668 73.9515C64.2038 73.7468 64.3797 73.5711 64.5846 73.4345L67.3971 71.5595C67.952 71.1896 68.5969 70.9772 69.263 70.945C69.9291 70.9128 70.5914 71.062 71.1794 71.3766C71.7673 71.6913 72.2589 72.1597 72.6016 72.7318C72.9443 73.3039 73.1252 73.9582 73.1252 74.6251V77.2501C73.6497 76.8579 74.2769 76.6267 74.9304 76.5848C75.584 76.5428 76.2356 76.6919 76.8059 77.0139C77.3923 77.3271 77.8827 77.7935 78.2251 78.3634C78.5675 78.9332 78.749 79.5853 78.7502 80.2501C78.7502 80.7474 78.5527 81.2243 78.2011 81.5759C77.8494 81.9276 77.3725 82.1251 76.8752 82.1251Z" fill="#F59178"/>
<path d="M41.25 58.125C42.2855 58.125 43.125 57.2855 43.125 56.25C43.125 55.2145 42.2855 54.375 41.25 54.375C40.2145 54.375 39.375 55.2145 39.375 56.25C39.375 57.2855 40.2145 58.125 41.25 58.125Z" fill="#59C4D9"/>
<path d="M78.75 71.25C79.7855 71.25 80.625 70.4105 80.625 69.375C80.625 68.3395 79.7855 67.5 78.75 67.5C77.7145 67.5 76.875 68.3395 76.875 69.375C76.875 70.4105 77.7145 71.25 78.75 71.25Z" fill="#89C947"/>
<path d="M67.5 24.375C67.0027 24.375 66.5258 24.1775 66.1742 23.8258C65.8225 23.4742 65.625 22.9973 65.625 22.5C65.625 21.5054 65.2299 20.5516 64.5267 19.8484C63.8234 19.1451 62.8696 18.75 61.875 18.75C61.3777 18.75 60.9008 18.5525 60.5492 18.2008C60.1975 17.8492 60 17.3723 60 16.875C60 16.3777 60.1975 15.9008 60.5492 15.5492C60.9008 15.1975 61.3777 15 61.875 15C63.8641 15 65.7718 15.7902 67.1783 17.1967C68.5848 18.6032 69.375 20.5109 69.375 22.5C69.375 22.9973 69.1775 23.4742 68.8258 23.8258C68.4742 24.1775 67.9973 24.375 67.5 24.375Z" fill="#59C4D9"/>
<path d="M69.3754 91.8752C68.8782 91.875 68.4013 91.6774 68.0498 91.3258L64.2998 87.5758C63.9582 87.2222 63.7692 86.7485 63.7735 86.2569C63.7778 85.7653 63.975 85.295 64.3226 84.9474C64.6702 84.5997 65.1405 84.4025 65.6321 84.3983C66.1238 84.394 66.5974 84.583 66.951 84.9245L70.701 88.6745C70.9632 88.9367 71.1417 89.2708 71.214 89.6345C71.2863 89.9981 71.2492 90.3751 71.1073 90.7176C70.9654 91.0602 70.7251 91.353 70.4169 91.559C70.1086 91.7651 69.7462 91.8751 69.3754 91.8752Z" fill="#89C947"/>
<path d="M67.3972 71.5648L64.5847 73.4398C64.3798 73.5765 64.2038 73.7521 64.0669 73.9568C63.9299 74.1614 63.8345 74.3911 63.7863 74.6326C63.7381 74.8741 63.7379 75.1227 63.7858 75.3643C63.8336 75.6058 63.9286 75.8356 64.0653 76.0405C64.2402 76.296 64.4767 76.5032 64.7531 76.6428C65.0294 76.7825 65.3365 76.85 65.646 76.8392C67.6732 75.3086 69.3693 73.383 70.6316 71.1786C70.0994 70.9877 69.5302 70.9233 68.9688 70.9903C68.4075 71.0574 67.8694 71.254 67.3972 71.5648Z" fill="#E2614D"/>
<path d="M35.4694 39.161C34.9304 39.0417 34.4037 38.8722 33.8962 38.6548C33.7997 38.8825 33.7499 39.1274 33.75 39.3748C33.75 39.8721 33.9475 40.349 34.2992 40.7006C34.6508 41.0522 35.1277 41.2498 35.625 41.2498C36.1223 41.2498 36.5992 41.0522 36.9508 40.7006C37.3025 40.349 37.5 39.8721 37.5 39.3748V39.3579C36.8181 39.3631 36.1376 39.2971 35.4694 39.161Z" fill="#59C4D9"/>
<path d="M65.6249 46.875V54.375C69.5753 54.3716 73.457 55.4083 76.8796 57.381C80.3022 59.3536 83.1452 62.1926 85.1226 65.6124C87.1 69.0323 88.1421 72.9125 88.1442 76.8629C88.1464 80.8133 87.1084 84.6946 85.1346 88.1166C83.1609 91.5386 80.321 94.3806 76.9005 96.3569C73.48 98.3332 69.5995 99.3741 65.6491 99.375C61.6987 99.3758 57.8177 98.3366 54.3963 96.3618C50.975 94.387 48.1339 91.5461 46.1587 88.125H37.8262C39.8676 93.1715 43.2436 97.5674 47.5926 100.842C51.9415 104.116 57.0994 106.145 62.5135 106.712C67.9277 107.279 73.394 106.362 78.3268 104.059C83.2595 101.756 87.4727 98.1549 90.515 93.6405C93.5572 89.1262 95.3138 83.8692 95.5965 78.4328C95.8791 72.9964 94.6773 67.5856 92.1196 62.7801C89.562 57.9746 85.745 53.9556 81.0777 51.1538C76.4104 48.3519 71.0687 46.8728 65.6249 46.875Z" fill="#2070A1"/>
<path d="M74.0117 28.967L87.268 42.2233L63.4067 66.0845L50.1505 52.8283L74.0117 28.967Z" fill="#C0E8EF"/>
<path d="M52.8027 55.4811L60.7577 63.436L55.4544 68.7393L47.4994 60.7844L52.8027 55.4811Z" fill="#59C4D9"/>
<path d="M48.8281 62.1113L54.1314 67.4146L48.8281 72.7179L43.5248 67.4146L48.8281 62.1113Z" fill="#C0E8EF"/>
<path d="M84.6152 23.6625L92.5702 31.6174L84.6152 39.5724L76.6603 31.6174L84.6152 23.6625Z" fill="#59C4D9"/>
<path d="M28.125 80.625H58.125V88.125H28.125V80.625Z" fill="#C0E8EF"/>
<path d="M74.0152 47.9999C71.3922 50.6242 67.8897 52.1833 64.1843 52.3758C60.4789 52.5683 56.8336 51.3807 53.9527 49.0424L50.1465 52.8486L63.4046 66.1067L87.2733 42.2343L83.5233 38.4843L74.0152 47.9999Z" fill="#59C4D9"/>
<path d="M82.8194 52.3124C82.3639 52.7728 82.0047 53.3195 81.7628 53.9203C81.521 54.5211 81.4012 55.1641 81.4107 55.8117C81.4201 56.4594 81.5585 57.0986 81.8177 57.6922C82.077 58.2857 82.4519 58.8216 82.9206 59.2686C88.2937 64.55 91.4788 71.6625 91.8409 79.188C92.203 86.7134 89.7155 94.0989 84.8744 99.8718C88.4077 96.9194 91.213 93.1926 93.0728 88.9805C94.9325 84.7684 95.7965 80.1844 95.5977 75.5843C95.3989 70.9843 94.1427 66.4919 91.9266 62.4559C89.7105 58.4199 86.5941 54.9489 82.8194 52.3124Z" fill="#59C4D9"/>
<path d="M89.9241 30.5288C89.2277 31.2253 88.4009 31.7778 87.4909 32.1547C86.581 32.5316 85.6057 32.7256 84.6207 32.7256C83.6358 32.7256 82.6605 32.5316 81.7505 32.1547C80.8405 31.7778 80.0137 31.2253 79.3173 30.5288L78.541 29.7526L76.666 31.6276L84.6216 39.5832L92.5754 31.6276L90.7004 29.7526L89.9241 30.5288Z" fill="#2070A1"/>
<path d="M52.8027 55.5001L50.9277 57.3751L53.0296 59.4789C53.9859 60.4376 54.5628 61.7101 54.6538 63.0612C54.7447 64.4122 54.3437 65.7506 53.5246 66.8289L55.454 68.7583L60.7509 63.4483L52.8027 55.5001Z" fill="#2070A1"/>
<path d="M48.8242 62.1224L46.9492 63.9974L47.7255 64.7737C48.4285 65.4769 48.8234 66.4306 48.8234 67.4249C48.8234 68.4193 48.4285 69.373 47.7255 70.0762L46.9492 70.8543L48.8242 72.7293L54.1267 67.4249L48.8242 62.1224Z" fill="#59C4D9"/>
<path d="M31.875 80.625H28.125V88.125H58.125V84.375H35.625C34.6304 84.375 33.6766 83.9799 32.9734 83.2767C32.2701 82.5734 31.875 81.6196 31.875 80.625Z" fill="#59C4D9"/>
<path d="M58.125 110.625C57.177 110.624 56.2649 110.262 55.5735 109.613C54.8821 108.965 54.4631 108.078 54.4012 107.132C52.7881 107.539 51.3567 108.472 50.3333 109.784C49.3099 111.096 48.7527 112.711 48.75 114.375H84.375C84.3682 113.054 84.0089 111.76 83.3344 110.625H58.125Z" fill="#2070A1"/>
</svg>
