<svg width="120" height="120" viewBox="0 0 120 120" fill="none" xmlns="http://www.w3.org/2000/svg">
<path d="M60 117.422C91.7132 117.422 117.422 91.7132 117.422 60C117.422 28.2868 91.7132 2.57812 60 2.57812C28.2868 2.57812 2.57812 28.2868 2.57812 60C2.57812 91.7132 28.2868 117.422 60 117.422Z" fill="#C0E8EF"/>
<path d="M78.9884 115.567V14.3058C78.9884 11.8575 77.0037 9.87305 74.5554 9.87305H12.6476C10.1993 9.87305 8.21484 11.8577 8.21484 14.3058V115.567C8.21484 118.016 10.1995 120 12.6476 120H74.5556C77.0037 120 78.9884 118.015 78.9884 115.567Z" fill="#E2614D"/>
<path d="M89.0896 9.8728H74.2539C76.7022 9.8728 78.6869 11.8575 78.6869 14.3055V115.567C78.6869 118.015 76.7022 120 74.2539 120H89.0896C91.5379 120 93.5226 118.015 93.5226 115.567V14.3058C93.5226 11.8575 91.5379 9.8728 89.0896 9.8728Z" fill="#E2614D"/>
<path d="M15.4609 111.17V18.7025C15.4609 17.8274 16.1704 17.1182 17.0453 17.1182H84.6934C85.5686 17.1182 86.2778 17.8276 86.2778 18.7025V111.17C86.2778 112.045 85.5684 112.754 84.6934 112.754H17.0453C16.1702 112.754 15.4609 112.045 15.4609 111.17Z" fill="#E6E9ED"/>
<path d="M84.6912 17.1182H69.8555C70.7306 17.1182 71.4398 17.8276 71.4398 18.7025V111.17C71.4398 112.045 70.7304 112.754 69.8555 112.754H84.6912C85.5663 112.754 86.2755 112.045 86.2755 111.17V18.7025C86.2755 17.8276 85.5663 17.1182 84.6912 17.1182Z" fill="#CFD2D5"/>
<path d="M60.2865 5.51672V3.18305C60.2865 1.42523 58.8615 0 57.1034 0H44.6354C42.8773 0 41.4523 1.42523 41.4523 3.18305V5.51672C41.4523 6.23555 40.8694 6.81844 40.1506 6.81844H34.9616C33.2354 6.81844 31.8359 8.21789 31.8359 9.94406V17.1183H69.9029V9.94406C69.9029 8.21789 68.5034 6.81844 66.7773 6.81844H61.5882C60.8694 6.81844 60.2865 6.23555 60.2865 5.51672Z" fill="#59C4D9"/>
<path d="M24.6758 42.8417V28.8875C24.6758 27.3416 25.9292 26.0881 27.4752 26.0881H41.4294C42.9753 26.0881 44.2287 27.3416 44.2287 28.8875V42.8417C44.2287 44.3877 42.9753 45.6411 41.4294 45.6411H27.4752C25.929 45.6411 24.6758 44.3877 24.6758 42.8417Z" fill="#E55D48"/>
<path d="M24.6758 71.9135V57.9593C24.6758 56.4133 25.9292 55.1599 27.4752 55.1599H41.4294C42.9753 55.1599 44.2287 56.4133 44.2287 57.9593V71.9135C44.2287 73.4594 42.9753 74.7129 41.4294 74.7129H27.4752C25.929 74.7129 24.6758 73.4594 24.6758 71.9135Z" fill="#E55D48"/>
<path d="M24.6758 100.985V87.0311C24.6758 85.4851 25.9292 84.2317 27.4752 84.2317H41.4294C42.9753 84.2317 44.2287 85.4851 44.2287 87.0311V100.985C44.2287 102.531 42.9753 103.785 41.4294 103.785H27.4752C25.929 103.785 24.6758 102.531 24.6758 100.985Z" fill="#E55D48"/>
<path d="M33.2697 40.8617C33.2676 40.8617 33.2657 40.8617 33.2636 40.8617C32.4642 40.8598 31.706 40.4726 31.2351 39.8265L29.1206 36.9226C28.5318 36.114 28.71 34.9812 29.5185 34.3925C30.3271 33.804 31.4599 33.9821 32.0484 34.7905L33.2744 36.4744L36.8592 31.6041C37.4521 30.7986 38.5856 30.6266 39.3909 31.2193C40.1964 31.812 40.3687 32.9457 39.7757 33.7512L35.2964 39.8368C34.8241 40.4787 34.0666 40.8617 33.2697 40.8617Z" fill="#E6E9ED"/>
<path d="M33.2695 70.5662C33.2671 70.5662 33.265 70.5662 33.2629 70.5662C32.4635 70.5641 31.7053 70.1772 31.2346 69.5305L29.1206 66.6271C28.5318 65.8185 28.71 64.6858 29.5185 64.097C30.3271 63.5085 31.4599 63.6866 32.0484 64.495L33.2744 66.179L36.8592 61.3087C37.4521 60.5034 38.5856 60.3311 39.3909 60.9238C40.1964 61.5166 40.3687 62.6502 39.7757 63.4558L35.2964 69.5413C34.8241 70.1837 34.0666 70.5662 33.2695 70.5662Z" fill="#E6E9ED"/>
<path d="M33.2694 99.0059C33.2673 99.0059 33.2652 99.0059 33.2633 99.0057C32.4641 99.0038 31.7057 98.6169 31.235 97.9709L29.1205 95.0666C28.5317 94.258 28.7101 93.1255 29.5187 92.5367C30.3278 91.948 31.46 92.1266 32.0485 92.9349L33.2743 94.6187L36.8593 89.7484C37.4523 88.943 38.5857 88.7708 39.391 89.3635C40.1966 89.9563 40.3689 91.0899 39.7759 91.8955L35.2965 97.981C34.8238 98.623 34.0665 99.0059 33.2694 99.0059Z" fill="#E6E9ED"/>
<path d="M75.6346 33.8918H53.2483C52.2482 33.8918 51.4375 33.0811 51.4375 32.081C51.4375 31.081 52.2482 30.2703 53.2483 30.2703H75.6346C76.6347 30.2703 77.4454 31.081 77.4454 32.081C77.4454 33.0811 76.6347 33.8918 75.6346 33.8918Z" fill="#E55D48"/>
<path d="M64.4413 41.459H53.2483C52.2482 41.459 51.4375 40.6483 51.4375 39.6482C51.4375 38.6481 52.2482 37.8374 53.2483 37.8374H64.4413C65.4414 37.8374 66.2521 38.6481 66.2521 39.6482C66.2521 40.6483 65.4414 41.459 64.4413 41.459Z" fill="#E55D48"/>
<path d="M68.2684 62.9638H53.2483C52.2482 62.9638 51.4375 62.1531 51.4375 61.1531C51.4375 60.153 52.2482 59.3423 53.2483 59.3423H68.2684C69.2685 59.3423 70.0792 60.153 70.0792 61.1531C70.0792 62.1531 69.2685 62.9638 68.2684 62.9638Z" fill="#E55D48"/>
<path d="M64.4413 70.531H53.2483C52.2482 70.531 51.4375 69.7203 51.4375 68.7202C51.4375 67.7201 52.2482 66.9094 53.2483 66.9094H64.4413C65.4414 66.9094 66.2521 67.7201 66.2521 68.7202C66.2521 69.7203 65.4414 70.531 64.4413 70.531Z" fill="#E55D48"/>
<path d="M104.744 47.278L102.966 44.9356L96.3137 40.7227L93.7565 40.3198L59.6912 94.1494C58.8693 95.4474 58.2662 96.8717 57.9062 98.3651C62.0509 98.4165 65.8129 100.799 67.6314 104.524C68.8277 103.56 69.8573 102.406 70.6792 101.108L104.744 47.278Z" fill="#E2614D"/>
<path d="M109.555 30.7015L106.68 28.8811C104.44 27.462 101.472 28.1288 100.054 30.3701L97.418 34.5357L98.2589 36.2309L106.258 41.2964L108.406 41.4938L111.044 37.3257C112.461 35.0855 111.795 32.12 109.555 30.7015Z" fill="#59C4D9"/>
<path d="M93.7617 40.3044L97.4238 34.5205L108.414 41.4787L104.752 47.2626L93.7617 40.3044Z" fill="#E6E9ED"/>
<path d="M67.6327 104.524L57.9331 112.34C56.5648 113.443 54.5769 112.184 54.9887 110.476L57.9076 98.3652C62.0523 98.4163 65.8145 100.799 67.6327 104.524Z" fill="#58C4D9"/>
<path d="M65.0871 101.168L100.796 44.7779L97.7365 42.8403L62.0273 99.2305C63.1477 99.7025 64.1812 100.357 65.0871 101.168Z" fill="#F59178"/>
</svg>
