<svg width="22" height="33" viewBox="0 0 22 33" fill="none" xmlns="http://www.w3.org/2000/svg">
<path d="M2.99918 31.9844C2.01489 28.5253 1.73378 26.236 2.511 23.3157C3.02035 21.4019 3.49918 19.4648 3.49918 17.4843V14.9844M17.9992 31.9844V30.9568C17.9992 29.0052 18.4796 27.0836 19.398 25.3617V25.3617C21.0473 22.2691 21.2482 18.6063 19.9468 15.3519L19 12.9844M15 10.4844V10.4844C15.8675 9.3271 15.7806 7.71443 14.7937 6.6571L9.49918 0.984375" stroke="black"/>
<path d="M1 2.48438V10.4672C1 12.0683 1.68469 13.593 2.88138 14.6567V14.6567C4.48352 16.0808 6.75756 16.4666 8.73969 15.6504L13.1601 13.8302C13.7147 13.6019 14.3086 13.4844 14.9083 13.4844H18C18.8284 13.4844 19.5 12.8128 19.5 11.9844V11.9844C19.5 11.1559 18.8284 10.4844 18 10.4844H12.6757C12.2263 10.4844 11.7781 10.5288 11.3374 10.6169L9.39223 11.0059C8.15465 11.2534 7 10.3069 7 9.04477V3.98438" stroke="black"/>
<path d="M14.2764 22.5372C14.0294 22.6607 13.9293 22.961 14.0528 23.208C14.1763 23.455 14.4766 23.5551 14.7236 23.4316L14.2764 22.5372ZM18.0355 22.2915L17.9374 22.7818L18.0355 22.2915ZM16.267 24.9399L16.1848 24.4467L16.267 24.9399ZM13.9257 21.229L13.6685 20.8002L13.9257 21.229ZM14.2322 21.045L13.975 20.6163L14.2322 21.045ZM13.975 20.6163L13.6685 20.8002L14.183 21.6577L14.4895 21.4738L13.975 20.6163ZM13.0035 20.9844H12.32V21.9844H13.0035V20.9844ZM12.32 25.4844H15.7293V24.4844H12.32V25.4844ZM16.3492 25.4331L18.0796 25.1447L17.9152 24.1583L16.1848 24.4467L16.3492 25.4331ZM18.1336 21.8012L16.5981 21.4941L16.4019 22.4747L17.9374 22.7818L18.1336 21.8012ZM16.2764 21.5372L14.2764 22.5372L14.7236 23.4316L16.7236 22.4316L16.2764 21.5372ZM19.5 23.468C19.5 22.6577 18.9281 21.9601 18.1336 21.8012L17.9374 22.7818C18.2645 22.8472 18.5 23.1344 18.5 23.468H19.5ZM18.0796 25.1447C18.8993 25.0081 19.5 24.2989 19.5 23.468H18.5C18.5 23.8101 18.2527 24.102 17.9152 24.1583L18.0796 25.1447ZM15.7293 25.4844C15.937 25.4844 16.1443 25.4672 16.3492 25.4331L16.1848 24.4467C16.0343 24.4718 15.8819 24.4844 15.7293 24.4844V25.4844ZM10.1566 23.8525C10.4326 24.8184 11.3154 25.4844 12.32 25.4844V24.4844C11.7619 24.4844 11.2714 24.1144 11.1181 23.5778L10.1566 23.8525ZM12.32 20.9844C10.8252 20.9844 9.74593 22.4152 10.1566 23.8525L11.1181 23.5778C10.89 22.7793 11.4896 21.9844 12.32 21.9844V20.9844ZM13.6685 20.8002C13.4676 20.9207 13.2378 20.9844 13.0035 20.9844V21.9844C13.419 21.9844 13.8267 21.8715 14.183 21.6577L13.6685 20.8002ZM14.4895 21.4738C15.0811 21.1188 15.8476 21.4363 16.0149 22.1056L16.9851 21.8631C16.6549 20.5422 15.1425 19.9158 13.975 20.6163L14.4895 21.4738Z" fill="black"/>
<circle cx="11.5" cy="18.4844" r="2" stroke="black"/>
<path d="M21 17.4844C18.7216 18.0365 16.5932 19.1103 15 20.9844" stroke="black"/>
</svg>
