<svg width="21" height="32" viewBox="0 0 21 32" fill="none" xmlns="http://www.w3.org/2000/svg">
<path d="M3.5 6.48438L1.12584 10.7579C1.04331 10.9064 1 11.0736 1 11.2435V13.9844M3.5 6.48438H3C2.44772 6.48438 2 6.03666 2 5.48437V1.98438C2 1.43209 2.44772 0.984375 3 0.984375H18.5C19.0523 0.984375 19.5 1.43209 19.5 1.98438V5.48437C19.5 6.03666 19.0523 6.48438 18.5 6.48438H18M3.5 6.48438H18M18 6.48438L20.3742 10.7579C20.4567 10.9064 20.5 11.0736 20.5 11.2435V13.9844M1 13.9844H20.5M1 13.9844V23.4844M20.5 13.9844V23.4844M20.5 23.4844V29.9844C20.5 30.5367 20.0523 30.9844 19.5 30.9844H2C1.44772 30.9844 1 30.5367 1 29.9844V23.4844M20.5 23.4844H1" stroke="black"/>
</svg>
