<svg width="120" height="120" viewBox="0 0 120 120" fill="none" xmlns="http://www.w3.org/2000/svg">
<path d="M60 117.422C91.7132 117.422 117.422 91.7132 117.422 60C117.422 28.2868 91.7132 2.57812 60 2.57812C28.2868 2.57812 2.57812 28.2868 2.57812 60C2.57812 91.7132 28.2868 117.422 60 117.422Z" fill="#C0E8EF"/>
<path d="M66.2415 89.0225H40.929V99.8436H66.2415V89.0225Z" fill="#4F4FA1"/>
<path d="M45.5795 89.0225H40.929V99.8436H45.5795V89.0225Z" fill="#4F4FA1"/>
<path d="M78.0782 105.469C78.0782 106.113 77.5509 106.641 76.9063 106.641H30.265C29.6205 106.641 29.0931 106.113 29.0931 105.469V100.781C29.0931 100.137 29.6205 99.6094 30.265 99.6094H76.9063C77.5509 99.6094 78.0782 100.137 78.0782 100.781V105.469Z" fill="#4F4FA1"/>
<path d="M33.7436 105.469V100.781C33.7436 100.137 34.2709 99.6094 34.9155 99.6094H30.265C29.6205 99.6094 29.0931 100.137 29.0931 100.781V105.469C29.0931 106.113 29.6205 106.641 30.265 106.641H34.9155C34.2709 106.641 33.7436 106.113 33.7436 105.469Z" fill="#4F4FA1"/>
<path d="M0 86.9143C0 88.2034 1.05469 89.258 2.34375 89.258H72.6973V73.5664H0V86.9143Z" fill="#59C4D9"/>
<path d="M4.65047 86.9143V73.5664H0V86.9143C0 88.2034 1.05469 89.258 2.34375 89.258H6.99422C5.70516 89.258 4.65047 88.2034 4.65047 86.9143Z" fill="#2699D6"/>
<path d="M72.6973 67.2626C72.6973 66.7455 73.1177 66.3251 73.6348 66.3251H107.171V15.5777C107.171 14.1607 106.012 13.0015 104.595 13.0015H2.57625C1.15922 13.0015 0 14.1607 0 15.5777V73.8007H72.6973V67.2626Z" fill="#4F4FA1"/>
<path d="M72.6973 67.2624C72.6973 66.7454 73.1178 66.3249 73.6348 66.3249H102.019V19.3257C102.019 18.6812 101.492 18.1538 100.847 18.1538H6.32446C5.67993 18.1538 5.15259 18.6812 5.15259 19.3257V67.4759C5.15259 68.1205 5.67993 68.6478 6.32446 68.6478H72.6971L72.6973 67.2624Z" fill="#E6E9ED"/>
<path d="M53.5852 84.8723C55.3858 84.8723 56.8456 83.4126 56.8456 81.612C56.8456 79.8113 55.3858 78.3516 53.5852 78.3516C51.7845 78.3516 50.3248 79.8113 50.3248 81.612C50.3248 83.4126 51.7845 84.8723 53.5852 84.8723Z" fill="#4F4FA1"/>
<path d="M97.5846 48.3695C97.5846 49.014 97.0573 49.5413 96.4127 49.5413H59.2744C58.6298 49.5413 58.1025 49.014 58.1025 48.3695V31.3262C58.1025 30.6816 58.6298 30.1543 59.2744 30.1543H96.4127C97.0573 30.1543 97.5846 30.6816 97.5846 31.3262V48.3695Z" fill="#F59178"/>
<path d="M62.7532 48.3695V31.3262C62.7532 30.6816 63.2805 30.1543 63.9251 30.1543H59.2746C58.6301 30.1543 58.1027 30.6816 58.1027 31.3262V48.3695C58.1027 49.014 58.6301 49.5413 59.2746 49.5413H63.9251C63.2805 49.5413 62.7532 49.014 62.7532 48.3695Z" fill="#F59178"/>
<path d="M70.1404 56.2783H60.0361C59.0653 56.2783 58.2783 55.4915 58.2783 54.5205C58.2783 53.5495 59.0653 52.7627 60.0361 52.7627H70.1404C71.1112 52.7627 71.8982 53.5495 71.8982 54.5205C71.8982 55.4915 71.1112 56.2783 70.1404 56.2783Z" fill="#CFD2D5"/>
<path d="M70.1404 61.6211H60.0361C59.0653 61.6211 58.2783 60.8343 58.2783 59.8633C58.2783 58.8923 59.0653 58.1055 60.0361 58.1055H70.1404C71.1112 58.1055 71.8982 58.8923 71.8982 59.8633C71.8982 60.8343 71.1112 61.6211 70.1404 61.6211Z" fill="#CFD2D5"/>
<path d="M82.3313 56.2783H74.8172C73.8464 56.2783 73.0594 55.4915 73.0594 54.5205C73.0594 53.5495 73.8464 52.7627 74.8172 52.7627H82.3313C83.3021 52.7627 84.0891 53.5495 84.0891 54.5205C84.0891 55.4915 83.3021 56.2783 82.3313 56.2783Z" fill="#CFD2D5"/>
<path d="M82.3313 61.6211H74.8172C73.8464 61.6211 73.0594 60.8343 73.0594 59.8633C73.0594 58.8923 73.8464 58.1055 74.8172 58.1055H82.3313C83.3021 58.1055 84.0891 58.8923 84.0891 59.8633C84.0891 60.8343 83.3021 61.6211 82.3313 61.6211Z" fill="#CFD2D5"/>
<path d="M96.509 56.2783H86.9381C85.9673 56.2783 85.1803 55.4915 85.1803 54.5205C85.1803 53.5495 85.9673 52.7627 86.9381 52.7627H96.509C97.4798 52.7627 98.2669 53.5495 98.2669 54.5205C98.2669 55.4915 97.4798 56.2783 96.509 56.2783Z" fill="#CFD2D5"/>
<path d="M96.509 61.6211H86.9381C85.9673 61.6211 85.1803 60.8343 85.1803 59.8633C85.1803 58.8923 85.9673 58.1055 86.9381 58.1055H96.509C97.4798 58.1055 98.2669 58.8923 98.2669 59.8633C98.2669 60.8343 97.4798 61.6211 96.509 61.6211Z" fill="#CFD2D5"/>
<path d="M84.2262 26.0354C84.2262 26.6799 83.6989 27.2073 83.0543 27.2073H80.4764C79.8319 27.2073 79.3046 26.6799 79.3046 26.0354V23.4575C79.3046 22.813 79.8319 22.2856 80.4764 22.2856H83.0543C83.6989 22.2856 84.2262 22.813 84.2262 23.4575V26.0354Z" fill="#E2614D"/>
<path d="M90.7882 26.0354C90.7882 26.6799 90.2609 27.2073 89.6163 27.2073H87.0385C86.3939 27.2073 85.8666 26.6799 85.8666 26.0354V23.4575C85.8666 22.813 86.3939 22.2856 87.0385 22.2856H89.6163C90.2609 22.2856 90.7882 22.813 90.7882 23.4575V26.0354Z" fill="#E2614D"/>
<path d="M97.3502 26.0354C97.3502 26.6799 96.8229 27.2073 96.1783 27.2073H93.6004C92.9559 27.2073 92.4286 26.6799 92.4286 26.0354V23.4575C92.4286 22.813 92.9559 22.2856 93.6004 22.2856H96.1783C96.8229 22.2856 97.3502 22.813 97.3502 23.4575V26.0354Z" fill="#E2614D"/>
<path d="M44.7417 60.2358H42.6324C41.6616 60.2358 40.8746 59.449 40.8746 58.478C40.8746 57.507 41.6616 56.7202 42.6324 56.7202H44.7417C45.7125 56.7202 46.4996 57.507 46.4996 58.478C46.4996 59.449 45.7125 60.2358 44.7417 60.2358Z" fill="#A6DEEB"/>
<path d="M36.773 60.2358H34.6636C33.6928 60.2358 32.9058 59.449 32.9058 58.478C32.9058 57.507 33.6928 56.7202 34.6636 56.7202H36.773C37.7438 56.7202 38.5308 57.507 38.5308 58.478C38.5308 59.449 37.7438 60.2358 36.773 60.2358Z" fill="#A6DEEB"/>
<path d="M28.804 60.2358H26.6946C25.7238 60.2358 24.9368 59.449 24.9368 58.478C24.9368 57.507 25.7238 56.7202 26.6946 56.7202H28.804C29.7748 56.7202 30.5618 57.507 30.5618 58.478C30.562 59.449 29.775 60.2358 28.804 60.2358Z" fill="#A6DEEB"/>
<path d="M20.8353 60.2358H18.7259C17.7551 60.2358 16.9681 59.449 16.9681 58.478C16.9681 57.507 17.7551 56.7202 18.7259 56.7202H20.8353C21.806 56.7202 22.5931 57.507 22.5931 58.478C22.5931 59.449 21.8063 60.2358 20.8353 60.2358Z" fill="#A6DEEB"/>
<path d="M51.5972 52.9937C50.6264 52.9937 49.8394 52.2069 49.8394 51.2358V49.1265C49.8394 48.1557 50.6264 47.3687 51.5972 47.3687C52.568 47.3687 53.355 48.1557 53.355 49.1265V51.2358C53.355 52.2069 52.568 52.9937 51.5972 52.9937Z" fill="#A6DEEB"/>
<path d="M51.5972 45.0249C50.6264 45.0249 49.8394 44.2381 49.8394 43.2671V41.1577C49.8394 40.1869 50.6264 39.3999 51.5972 39.3999C52.568 39.3999 53.355 40.1869 53.355 41.1577V43.2671C53.355 44.2381 52.568 45.0249 51.5972 45.0249Z" fill="#A6DEEB"/>
<path d="M51.5972 37.0562C50.6264 37.0562 49.8394 36.2694 49.8394 35.2983V33.189C49.8394 32.2182 50.6264 31.4312 51.5972 31.4312C52.568 31.4312 53.355 32.2182 53.355 33.189V35.2983C53.355 36.2694 52.568 37.0562 51.5972 37.0562Z" fill="#A6DEEB"/>
<path d="M11.7532 52.9937C10.7824 52.9937 9.99541 52.2069 9.99541 51.2358V49.1265C9.99541 48.1557 10.7824 47.3687 11.7532 47.3687C12.724 47.3687 13.511 48.1557 13.511 49.1265V51.2358C13.511 52.2069 12.7242 52.9937 11.7532 52.9937Z" fill="#A6DEEB"/>
<path d="M11.7532 45.0249C10.7824 45.0249 9.99541 44.2381 9.99541 43.2671V41.1577C9.99541 40.1869 10.7824 39.3999 11.7532 39.3999C12.724 39.3999 13.511 40.1869 13.511 41.1577V43.2671C13.511 44.2381 12.7242 45.0249 11.7532 45.0249Z" fill="#A6DEEB"/>
<path d="M11.7532 37.0562C10.7824 37.0562 9.99541 36.2694 9.99541 35.2983V33.189C9.99541 32.2182 10.7824 31.4312 11.7532 31.4312C12.724 31.4312 13.511 32.2182 13.511 33.189V35.2983C13.511 36.2694 12.7242 37.0562 11.7532 37.0562Z" fill="#A6DEEB"/>
<path d="M44.7417 28.3608H42.6324C41.6616 28.3608 40.8746 27.574 40.8746 26.603C40.8746 25.632 41.6616 24.8452 42.6324 24.8452H44.7417C45.7125 24.8452 46.4996 25.632 46.4996 26.603C46.4996 27.574 45.7125 28.3608 44.7417 28.3608Z" fill="#A6DEEB"/>
<path d="M36.773 28.3608H34.6636C33.6928 28.3608 32.9058 27.574 32.9058 26.603C32.9058 25.632 33.6928 24.8452 34.6636 24.8452H36.773C37.7438 24.8452 38.5308 25.632 38.5308 26.603C38.5308 27.574 37.7438 28.3608 36.773 28.3608Z" fill="#A6DEEB"/>
<path d="M28.804 28.3608H26.6946C25.7238 28.3608 24.9368 27.574 24.9368 26.603C24.9368 25.632 25.7238 24.8452 26.6946 24.8452H28.804C29.7748 24.8452 30.5618 25.632 30.5618 26.603C30.5618 27.574 29.775 28.3608 28.804 28.3608Z" fill="#A6DEEB"/>
<path d="M20.8353 28.3608H18.7259C17.7551 28.3608 16.9681 27.574 16.9681 26.603C16.9681 25.632 17.7551 24.8452 18.7259 24.8452H20.8353C21.806 24.8452 22.5931 25.632 22.5931 26.603C22.5931 27.574 21.8063 28.3608 20.8353 28.3608Z" fill="#A6DEEB"/>
<path d="M46.9097 52.6187C46.9097 53.2632 46.3824 53.7905 45.7379 53.7905H17.6129C16.9683 53.7905 16.441 53.2632 16.441 52.6187V32.4624C16.441 31.8179 16.9683 31.2905 17.6129 31.2905H45.7379C46.3824 31.2905 46.9097 31.8179 46.9097 32.4624V52.6187Z" fill="#4F4FA1"/>
<path d="M21.0914 52.6187V32.4624C21.0914 31.8179 21.6188 31.2905 22.2633 31.2905H17.6126C16.9681 31.2905 16.4407 31.8179 16.4407 32.4624V52.6187C16.4407 53.2632 16.9681 53.7905 17.6126 53.7905H22.2633C21.6188 53.7905 21.0914 53.2632 21.0914 52.6187Z" fill="#4F4FA1"/>
<path d="M54.8777 28.3618C54.8777 29.0063 54.3504 29.5337 53.7058 29.5337H48.784C48.1394 29.5337 47.6121 29.0063 47.6121 28.3618V23.4399C47.6121 22.7954 48.1394 22.2681 48.784 22.2681H53.7058C54.3504 22.2681 54.8777 22.7954 54.8777 23.4399V28.3618Z" fill="#A6DEEB"/>
<path d="M15.9715 28.8306C15.9715 29.4751 15.4441 30.0024 14.7996 30.0024H9.87772C9.23318 30.0024 8.70584 29.4751 8.70584 28.8306V23.9087C8.70584 23.2642 9.23318 22.7368 9.87772 22.7368H14.7996C15.4441 22.7368 15.9715 23.2642 15.9715 23.9087V28.8306Z" fill="#A6DEEB"/>
<path d="M54.8777 61.1445C54.8777 61.7891 54.3504 62.3164 53.7058 62.3164H48.784C48.1394 62.3164 47.6121 61.7891 47.6121 61.1445V56.2227C47.6121 55.5781 48.1394 55.0508 48.784 55.0508H53.7058C54.3504 55.0508 54.8777 55.5781 54.8777 56.2227V61.1445Z" fill="#A6DEEB"/>
<path d="M15.9715 61.1445C15.9715 61.7891 15.4441 62.3164 14.7996 62.3164H9.87772C9.23318 62.3164 8.70584 61.7891 8.70584 61.1445V56.2227C8.70584 55.5781 9.23318 55.0508 9.87772 55.0508H14.7996C15.4441 55.0508 15.9715 55.5781 15.9715 56.2227V61.1445Z" fill="#A6DEEB"/>
<path d="M50.1954 28.3618V23.4399C50.1954 22.7954 50.7227 22.2681 51.3672 22.2681H48.784C48.1394 22.2681 47.6121 22.7954 47.6121 23.4399V28.3618C47.6121 29.0063 48.1394 29.5337 48.784 29.5337H51.3672C50.7227 29.5337 50.1954 29.0063 50.1954 28.3618Z" fill="#2699D6"/>
<path d="M11.2891 28.8306V23.9087C11.2891 23.2642 11.8165 22.7368 12.461 22.7368H9.87772C9.23318 22.7368 8.70584 23.2642 8.70584 23.9087V28.8306C8.70584 29.4751 9.23318 30.0024 9.87772 30.0024H12.461C11.8165 30.0024 11.2891 29.4751 11.2891 28.8306Z" fill="#2699D6"/>
<path d="M50.1954 61.1445V56.2227C50.1954 55.5781 50.7227 55.0508 51.3672 55.0508H48.784C48.1394 55.0508 47.6121 55.5781 47.6121 56.2227V61.1445C47.6121 61.7891 48.1394 62.3164 48.784 62.3164H51.3672C50.7227 62.3164 50.1954 61.7891 50.1954 61.1445Z" fill="#2699D6"/>
<path d="M11.2891 61.1445V56.2227C11.2891 55.5781 11.8165 55.0508 12.461 55.0508H9.87772C9.23318 55.0508 8.70584 55.5781 8.70584 56.2227V61.1445C8.70584 61.7891 9.23318 62.3164 9.87772 62.3164H12.461C11.8165 62.3164 11.2891 61.7891 11.2891 61.1445Z" fill="#2699D6"/>
<path d="M112 95V89.1531V67.1619C112 66.5228 111.214 66 110.254 66H54.7456C53.7855 66 53 66.5228 53 67.1619V93.8381C53 94.4772 53.7855 95 54.7456 95H102.218H112Z" fill="#E2614D"/>
<path d="M75.8391 80.268C76.3591 80.4327 76.7665 80.71 77.0611 81.1C77.3558 81.4813 77.5031 81.9537 77.5031 82.517C77.5031 83.3143 77.1911 83.9297 76.5671 84.363C75.9518 84.7877 75.0505 85 73.8631 85H69.1571V75.9H73.6031C74.7125 75.9 75.5618 76.1123 76.1511 76.537C76.7491 76.9617 77.0481 77.538 77.0481 78.266C77.0481 78.708 76.9398 79.1023 76.7231 79.449C76.5151 79.7957 76.2205 80.0687 75.8391 80.268ZM71.2501 77.486V79.631H73.3431C73.8631 79.631 74.2575 79.54 74.5261 79.358C74.7948 79.176 74.9291 78.9073 74.9291 78.552C74.9291 78.1967 74.7948 77.9323 74.5261 77.759C74.2575 77.577 73.8631 77.486 73.3431 77.486H71.2501ZM73.7071 83.414C74.2618 83.414 74.6778 83.323 74.9551 83.141C75.2411 82.959 75.3841 82.6773 75.3841 82.296C75.3841 81.542 74.8251 81.165 73.7071 81.165H71.2501V83.414H73.7071ZM83.1406 85.156C81.8406 85.156 80.8266 84.7963 80.0986 84.077C79.3792 83.3577 79.0196 82.3307 79.0196 80.996V75.9H81.1256V80.918C81.1256 82.5473 81.8016 83.362 83.1536 83.362C83.8122 83.362 84.3149 83.167 84.6616 82.777C85.0082 82.3783 85.1816 81.7587 85.1816 80.918V75.9H87.2616V80.996C87.2616 82.3307 86.8976 83.3577 86.1696 84.077C85.4502 84.7963 84.4406 85.156 83.1406 85.156ZM93.5837 81.776V85H91.4777V81.75L87.9547 75.9H90.1907L92.6217 79.943L95.0527 75.9H97.1197L93.5837 81.776Z" fill="white"/>
<path d="M56.9936 93.8381V67.1619C56.9936 66.5228 57.4465 66 58 66H54.0064C53.4529 66 53 66.5228 53 67.1619V93.8381C53 94.4772 53.4529 95 54.0064 95H58C57.4465 95 56.9936 94.4772 56.9936 93.8381Z" fill="#E2614D"/>
<path d="M102.285 85.5988C101.899 85.4571 101.699 85.657 101.84 86.0432L108.02 102.867C108.161 103.253 108.516 103.331 108.806 103.04L112.087 99.7598C112.378 99.4689 112.854 99.4689 113.145 99.7598L116.925 103.54C117.216 103.831 117.692 103.831 117.983 103.54L119.782 101.742C120.073 101.451 120.073 100.975 119.782 100.684L116.002 96.9035C115.711 96.6126 115.711 96.1366 116.002 95.8455L119.282 92.5649C119.573 92.2743 119.495 91.9202 119.109 91.7784L102.285 85.5988Z" fill="#4F4FA1"/>
</svg>
