<svg width="120" height="120" viewBox="0 0 120 120" fill="none" xmlns="http://www.w3.org/2000/svg">
<path d="M60 117.422C91.7132 117.422 117.422 91.7132 117.422 60C117.422 28.2868 91.7132 2.57812 60 2.57812C28.2868 2.57812 2.57812 28.2868 2.57812 60C2.57812 91.7132 28.2868 117.422 60 117.422Z" fill="#C0E8EF"/>
<path d="M78.9865 115.567V14.3058C78.9865 11.8575 77.0018 9.87305 74.5535 9.87305H12.6457C10.1974 9.87305 8.21298 11.8577 8.21298 14.3058V115.567C8.21298 118.016 10.1977 120 12.6457 120H74.5538C77.0018 120 78.9865 118.015 78.9865 115.567Z" fill="#F59178"/>
<path d="M89.0875 9.87256H74.2518C76.7001 9.87256 78.6848 11.8572 78.6848 14.3053V115.567C78.6848 118.015 76.7001 120 74.2518 120H89.0875C91.5358 120 93.5205 118.015 93.5205 115.567V14.3055C93.5205 11.8572 91.5358 9.87256 89.0875 9.87256Z" fill="#F59178"/>
<path d="M15.4582 111.17V18.7025C15.4582 17.8274 16.1676 17.1182 17.0425 17.1182H84.6907C85.5658 17.1182 86.275 17.8276 86.275 18.7025V111.17C86.275 112.045 85.5656 112.754 84.6907 112.754H17.0425C16.1674 112.754 15.4582 112.045 15.4582 111.17Z" fill="#E6E9ED"/>
<path d="M84.6906 17.1182H69.8549C70.7301 17.1182 71.4393 17.8276 71.4393 18.7025V111.17C71.4393 112.045 70.7299 112.754 69.8549 112.754H84.6906C85.5658 112.754 86.275 112.045 86.275 111.17V18.7025C86.275 17.8276 85.5658 17.1182 84.6906 17.1182Z" fill="#CFD2D5"/>
<path d="M60.2836 5.51672V3.18305C60.2836 1.42523 58.8586 0 57.1005 0H44.6325C42.8744 0 41.4494 1.42523 41.4494 3.18305V5.51672C41.4494 6.23555 40.8665 6.81844 40.1477 6.81844H34.9586C33.2325 6.81844 31.833 8.21789 31.833 9.94406V17.1183H69.9V9.94406C69.9 8.21789 68.5005 6.81844 66.7743 6.81844H61.5853C60.8665 6.81844 60.2836 6.23555 60.2836 5.51672Z" fill="#59C4D9"/>
<path d="M24.6745 42.842V28.8878C24.6745 27.3418 25.9279 26.0884 27.4739 26.0884H41.4281C42.974 26.0884 44.2275 27.3418 44.2275 28.8878V42.842C44.2275 44.3879 42.974 45.6413 41.4281 45.6413H27.4739C25.9277 45.6413 24.6745 44.3879 24.6745 42.842Z" fill="#4F4FA1"/>
<path d="M24.6745 71.9138V57.9595C24.6745 56.4136 25.9279 55.1602 27.4739 55.1602H41.4281C42.974 55.1602 44.2275 56.4136 44.2275 57.9595V71.9138C44.2275 73.4597 42.974 74.7131 41.4281 74.7131H27.4739C25.9277 74.7131 24.6745 73.4597 24.6745 71.9138Z" fill="#4F4FA1"/>
<path d="M24.6745 100.986V87.0313C24.6745 85.4854 25.9279 84.2319 27.4739 84.2319H41.4281C42.974 84.2319 44.2275 85.4854 44.2275 87.0313V100.986C44.2275 102.531 42.974 103.785 41.4281 103.785H27.4739C25.9277 103.785 24.6745 102.532 24.6745 100.986Z" fill="#4F4FA1"/>
<path d="M33.2698 40.8617C33.2677 40.8617 33.2658 40.8617 33.2637 40.8617C32.4643 40.8598 31.7061 40.4726 31.2352 39.8265L29.1207 36.9226C28.5319 36.114 28.71 34.9812 29.5186 34.3925C30.3272 33.804 31.46 33.9821 32.0485 34.7905L33.2745 36.4744L36.8593 31.6041C37.4522 30.7986 38.5857 30.6266 39.391 31.2193C40.1965 31.812 40.3688 32.9457 39.7758 33.7512L35.2965 39.8368C34.8242 40.4787 34.0667 40.8617 33.2698 40.8617Z" fill="#E6E9ED"/>
<path d="M33.2696 70.5662C33.2672 70.5662 33.2651 70.5662 33.263 70.5662C32.4636 70.5641 31.7054 70.1772 31.2347 69.5305L29.1207 66.6271C28.5319 65.8185 28.71 64.6858 29.5186 64.097C30.3272 63.5085 31.46 63.6866 32.0485 64.495L33.2745 66.179L36.8593 61.3087C37.4522 60.5034 38.5857 60.3311 39.391 60.9238C40.1965 61.5166 40.3688 62.6502 39.7758 63.4558L35.2965 69.5413C34.8242 70.1837 34.0667 70.5662 33.2696 70.5662Z" fill="#E6E9ED"/>
<path d="M33.2695 99.0062C33.2674 99.0062 33.2652 99.0062 33.2634 99.006C32.4641 99.0041 31.7057 98.6171 31.2351 97.9712L29.1206 95.0668C28.5318 94.2582 28.7102 93.1257 29.5188 92.537C30.3278 91.9482 31.4601 92.1268 32.0486 92.9352L33.2744 94.6189L36.8594 89.7486C37.4524 88.9433 38.5858 88.771 39.3911 89.3638C40.1966 89.9565 40.3689 91.0902 39.7759 91.8957L35.2966 97.9813C34.8238 98.6232 34.0666 99.0062 33.2695 99.0062Z" fill="#E6E9ED"/>
<path d="M75.631 33.8921H53.2447C52.2446 33.8921 51.4339 33.0814 51.4339 32.0813C51.4339 31.0812 52.2446 30.2705 53.2447 30.2705H75.631C76.6311 30.2705 77.4418 31.0812 77.4418 32.0813C77.4418 33.0814 76.6311 33.8921 75.631 33.8921Z" fill="#4F4FA1"/>
<path d="M64.438 41.4595H53.2449C52.2448 41.4595 51.4341 40.6488 51.4341 39.6487C51.4341 38.6486 52.2448 37.8379 53.2449 37.8379H64.438C65.438 37.8379 66.2487 38.6486 66.2487 39.6487C66.2487 40.6488 65.438 41.4595 64.438 41.4595Z" fill="#4F4FA1"/>
<path d="M68.2651 62.9638H53.2449C52.2448 62.9638 51.4341 62.1531 51.4341 61.1531C51.4341 60.153 52.2448 59.3423 53.2449 59.3423H68.2651C69.2652 59.3423 70.0759 60.153 70.0759 61.1531C70.0759 62.1531 69.2652 62.9638 68.2651 62.9638Z" fill="#4F4FA1"/>
<path d="M64.438 70.5312H53.2449C52.2448 70.5312 51.4341 69.7205 51.4341 68.7204C51.4341 67.7204 52.2448 66.9097 53.2449 66.9097H64.438C65.438 66.9097 66.2488 67.7204 66.2488 68.7204C66.2488 69.7205 65.438 70.5312 64.438 70.5312Z" fill="#4F4FA1"/>
<path d="M104.745 47.2775L102.967 44.9351L96.3139 40.7222L93.7566 40.3193L59.6914 94.1489C58.8694 95.4469 58.2664 96.8712 57.9064 98.3647C62.0511 98.416 65.813 100.798 67.6316 104.523C68.8278 103.559 69.8574 102.405 70.6794 101.107L104.745 47.2775Z" fill="#E2614D"/>
<path d="M109.554 30.7013L106.679 28.8809C104.439 27.4617 101.471 28.1285 100.053 30.3699L97.417 34.5354L98.2579 36.2306L106.257 41.2962L108.405 41.4935L111.043 37.3254C112.46 35.0853 111.794 32.1197 109.554 30.7013Z" fill="#4F4FA1"/>
<path d="M93.7603 40.3042L97.4223 34.5202L108.412 41.4784L104.75 47.2624L93.7603 40.3042Z" fill="#E6E9ED"/>
<path d="M67.6316 104.524L57.9319 112.34C56.5637 113.443 54.5757 112.184 54.9875 110.476L57.9064 98.3652C62.0511 98.4163 65.8133 100.799 67.6316 104.524Z" fill="#4F4FA1"/>
<path d="M65.0874 101.168L100.797 44.7779L97.7368 42.8403L62.0277 99.2305C63.148 99.7025 64.1816 100.357 65.0874 101.168Z" fill="#F59178"/>
</svg>
