<svg width="120" height="120" viewBox="0 0 120 120" fill="none" xmlns="http://www.w3.org/2000/svg">
<path d="M60 117.422C91.7132 117.422 117.422 91.7132 117.422 60C117.422 28.2868 91.7132 2.57812 60 2.57812C28.2868 2.57812 2.57812 28.2868 2.57812 60C2.57812 91.7132 28.2868 117.422 60 117.422Z" fill="#C0E8EF"/>
<path d="M50.625 28.1251C50.625 23.8647 49.4155 19.692 47.137 16.0921C44.8586 12.4921 41.605 9.6131 37.7545 7.78976C33.9041 5.96643 29.6151 5.27375 25.3864 5.7923C21.1577 6.31085 17.1632 8.01931 13.8674 10.719C10.5716 13.4186 8.10996 16.9985 6.76886 21.0423C5.42775 25.086 5.26228 29.4274 6.29168 33.5616C7.32108 37.6957 9.50305 41.4526 12.5838 44.3953C15.6645 47.338 19.5175 49.3455 23.6944 50.1845L31.875 60.0001L35.4094 49.397C39.8459 47.8789 43.6973 45.0126 46.4253 41.1988C49.1533 37.385 50.6216 32.8142 50.625 28.1251Z" fill="#F59178"/>
<path d="M37.5 106.875H112.5V114.375H37.5V106.875Z" fill="#4F4FA1"/>
<path d="M71.25 75H78.75C80.2418 75 81.6726 75.5926 82.7275 76.6475C83.7824 77.7024 84.375 79.1332 84.375 80.625V106.875H65.625V80.625C65.625 79.1332 66.2176 77.7024 67.2725 76.6475C68.3274 75.5926 69.7582 75 71.25 75Z" fill="#59C4D9"/>
<path d="M50.6142 45.0024L56.2388 39.3778L74.9858 58.1248L69.3612 63.7494L50.6142 45.0024Z" fill="#4F4FA1"/>
<path d="M48.7381 54.3745L54.3627 48.7499L65.6107 59.9978L59.986 65.6224L48.7381 54.3745Z" fill="#59C4D9"/>
<path d="M43.1142 63.7485L50.6144 56.2484L58.1146 63.7485L50.6144 71.2487L43.1142 63.7485Z" fill="#4F4FA1"/>
<path d="M86.2389 20.6328L91.8644 15.0073L99.3646 22.5075L93.7391 28.133L86.2389 20.6328Z" fill="#4F4FA1"/>
<path d="M88.1136 11.2598L93.7383 5.63514L108.736 20.6333L103.112 26.2579L88.1136 11.2598Z" fill="#59C4D9"/>
<path d="M33.75 84.375H65.625V91.875H33.75V84.375Z" fill="#4F4FA1"/>
<path d="M59.9897 43.127L84.3613 18.7553L95.6092 30.0033L71.2376 54.3749L59.9897 43.127Z" fill="#59C4D9"/>
<path d="M90 35.625L78.75 46.875H91.875C93.8641 46.875 95.7718 47.6652 97.1783 49.0717C98.5848 50.4782 99.375 52.3859 99.375 54.375V73.125C99.375 75.1141 98.5848 77.0218 97.1783 78.4283C95.7718 79.8348 93.8641 80.625 91.875 80.625H84.375V91.875H95.625C100.598 91.875 105.367 89.8996 108.883 86.3833C112.4 82.8669 114.375 78.0978 114.375 73.125V54.375C114.375 49.4022 112.4 44.6331 108.883 41.1167C105.367 37.6004 100.598 35.625 95.625 35.625H90Z" fill="#4F4FA1"/>
<path d="M75 88.125C74.2583 88.125 73.5333 87.9051 72.9166 87.493C72.2999 87.081 71.8193 86.4953 71.5355 85.8101C71.2516 85.1248 71.1774 84.3708 71.3221 83.6434C71.4668 82.916 71.8239 82.2478 72.3483 81.7233C72.8728 81.1989 73.541 80.8418 74.2684 80.6971C74.9958 80.5524 75.7498 80.6266 76.4351 80.9105C77.1203 81.1943 77.706 81.6749 78.118 82.2916C78.5301 82.9083 78.75 83.6333 78.75 84.375C78.75 85.3696 78.3549 86.3234 77.6517 87.0267C76.9484 87.7299 75.9946 88.125 75 88.125Z" fill="#F59178"/>
<path d="M68.0393 41.8022L75.5395 34.3021L78.1912 36.9537L70.691 44.4539L68.0393 41.8022Z" fill="#C0E8EF"/>
<path d="M77.4137 32.4292L81.1632 28.6798L83.8148 31.3314L80.0654 35.0809L77.4137 32.4292Z" fill="#C0E8EF"/>
<path d="M99.7501 86.2126L99.0001 82.5376L99.3751 84.3751L99.0001 82.5395C99.3113 82.472 106.613 80.747 105.026 69.6414L108.739 69.1089C110.833 83.8126 99.8532 86.192 99.7501 86.2126Z" fill="#C0E8EF"/>
<path d="M26.3887 24.5139C30.0506 20.8539 34.2993 19.2995 35.7637 20.7639L41.3887 26.3889C42.8531 27.8532 41.3006 32.1039 37.6387 35.7639C33.9768 39.4239 29.7281 40.9782 28.2637 39.5139L22.6387 33.8889C21.1743 32.4245 22.7287 28.1757 26.3887 24.5139Z" fill="#4F4FA1"/>
<path d="M29.2106 34.6874L27.3187 31.4549C28.5512 30.7209 29.6853 29.8332 30.6937 28.813C31.7145 27.8051 32.6023 26.6709 33.3356 25.438L36.5625 27.3336C35.6659 28.8403 34.5809 30.2264 33.3337 31.4586C32.1008 32.7042 30.7154 33.789 29.2106 34.6874Z" fill="#F59178"/>
<path d="M18.75 15H22.5V18.75H18.75V15Z" fill="#4F4FA1"/>
<path d="M11.25 24.375H15V28.125H11.25V24.375Z" fill="#4F4FA1"/>
<path d="M18.75 39.375H22.5V43.125H18.75V39.375Z" fill="#4F4FA1"/>
</svg>
