<svg width="120" height="120" viewBox="0 0 120 120" fill="none" xmlns="http://www.w3.org/2000/svg">
<path d="M60 117.422C91.7132 117.422 117.422 91.7132 117.422 60C117.422 28.2868 91.7132 2.57812 60 2.57812C28.2868 2.57812 2.57812 28.2868 2.57812 60C2.57812 91.7132 28.2868 117.422 60 117.422Z" fill="#C0E8EF"/>
<path d="M103 69.5612C103 79.7286 94.4769 88 84 88V33L98.8042 55.5753C101.548 59.7624 103 64.598 103 69.5612Z" fill="#E2614D"/>
<path d="M84 33V88C74.0745 88 66 79.7286 66 69.5612C66 64.598 67.3755 59.7624 69.975 55.5753L84 33Z" fill="#F59178"/>
<path d="M50.4116 29.0884V44.7942L37.3758 48.2111L37.3234 48.1971L34.7058 29.0884H50.4116Z" fill="#E2614D"/>
<path d="M37.3235 29.0884V48.1971L24.2353 44.7942V29.0884H37.3235Z" fill="#F59178"/>
<path d="M50.4116 76.206V91.9118C50.4116 99.1296 44.5394 105 37.3234 105L34.7058 73.6861L37.833 73.5884L50.4116 76.206Z" fill="#E2614D"/>
<path d="M37.3235 73.6855V104.999C30.1075 104.999 24.2353 99.129 24.2353 91.9113V76.2055L37.3235 73.6855Z" fill="#F59178"/>
<path d="M37.3764 76.2056H24.2353V44.7939H37.3764L39.9411 60.6743L37.3764 76.2056Z" fill="#59C4D9"/>
<path d="M37.3763 44.7939H50.5173V76.2056H37.3763V44.7939Z" fill="#2699D6"/>
<path d="M37.3764 57.8823H24.2353V52.647H37.3764L38.1154 55.2646L37.3764 57.8823Z" fill="#4F4FA1"/>
<path d="M24.2353 63.1172H34.7058V68.3525H24.2353V63.1172Z" fill="#4F4FA1"/>
<path fill-rule="evenodd" clip-rule="evenodd" d="M31.2156 16H19V31.7058H31.2156V16ZM37.3764 16H31.2157V31.7058H37.3764V16Z" fill="#4F4FA1"/>
<path fill-rule="evenodd" clip-rule="evenodd" d="M43.4313 16H37.3234V31.7058H43.4313H43.4841H55.6469V16H43.4841H43.4313Z" fill="#4F4FA1"/>
<path d="M37.3763 52.647H39.941V57.8823H37.3763V52.647Z" fill="#4F4FA1"/>
</svg>
