<svg width="35" height="38" viewBox="0 0 35 38" fill="none" xmlns="http://www.w3.org/2000/svg">
<path d="M17 36.9844V20.9844M17 36.9844L30 31.4844V23.3844M17 36.9844L4 31.9844V23.1844M17 20.9844L29 15.9844M17 20.9844L21 26.9844L30 23.3844M17 20.9844L4.5 15.9844M17 20.9844L13.5 26.9844L4 23.1844M29 15.9844L33.5 21.9844L30 23.3844M29 15.9844L20 11.4844M4.5 15.9844L1 21.9844L4 23.1844M4.5 15.9844L14 11.4844" stroke="black"/>
<path d="M17 12.9844V8.48438H15.5H18.5" stroke="black"/>
<path d="M21.5 7.48438H23.5M20 4.48438L21.5 2.98438M17 3.48438V0.984375M14 4.48438L12.5 2.98438M12.5 7.48438H10.5M14.5 13.4844V12.2698C13.2337 11.2134 12 9.56953 12 7.98438C12 5.22295 14.2386 2.98438 17 2.98438C19.7614 2.98438 22 5.22295 22 7.98438C22 9.57899 20.7751 11.2134 19.5 12.2698V13.4844M14.5 13.4844V14.9844M14.5 13.4844H19.5M19.5 13.4844V14.9844M14.5 14.9844V15.2344V16.4844M14.5 14.9844H19.5M19.5 14.9844V16.4844M19.5 16.4844V16.9844C19.5 16.9844 18.0515 17.9844 17 17.9844C15.9485 17.9844 14.5 16.9844 14.5 16.9844V16.4844M19.5 16.4844H14.5" stroke="black"/>
</svg>
