<svg width="63" height="64" viewBox="0 0 63 64" fill="none" xmlns="http://www.w3.org/2000/svg">
<path fill-rule="evenodd" clip-rule="evenodd" d="M43.9164 9.53914C43.9164 4.74375 40.029 0.856323 35.2336 0.856323L27.6102 0.856323C22.8148 0.856323 18.9274 4.74376 18.9274 9.53914V14.0823C18.9274 17.1017 16.4797 19.5493 13.4604 19.5493H8.91719C4.1218 19.5493 0.234375 23.4367 0.234375 28.2321L0.234375 35.8555C0.234375 40.6509 4.12181 44.5383 8.91719 44.5383H13.4604C16.4797 44.5383 18.9274 46.986 18.9274 50.0053V54.5485C18.9274 59.3439 22.8148 63.2313 27.6102 63.2313H35.2336C40.029 63.2313 43.9164 59.3439 43.9164 54.5485V50.0053C43.9164 46.986 46.364 44.5383 49.3834 44.5383H53.9266C58.7219 44.5383 62.6094 40.6509 62.6094 35.8555V28.2321C62.6094 23.4367 58.7219 19.5493 53.9266 19.5493H49.3834C46.364 19.5493 43.9164 17.1017 43.9164 14.0823V9.53914Z" fill="#58C4D9"/>
<path d="M36.373 31.1669C37.2379 31.5994 37.8949 32.1649 38.344 32.8635C38.8098 33.5621 39.0426 34.3688 39.0426 35.2837C39.0426 36.3648 38.7349 37.3129 38.1195 38.128C37.504 38.9264 36.6391 39.5501 35.5247 39.9992C34.4102 40.4317 33.1212 40.6479 31.6574 40.6479C30.1937 40.6479 28.9046 40.4317 27.7902 39.9992C26.6924 39.5501 25.8358 38.9264 25.2203 38.128C24.6215 37.3129 24.3221 36.3648 24.3221 35.2837C24.3221 34.3688 24.5467 33.5621 24.9958 32.8635C25.4615 32.1649 26.1185 31.5994 26.9668 31.1669C26.3181 30.7677 25.8191 30.2687 25.4698 29.6699C25.1205 29.0545 24.9459 28.3559 24.9459 27.5741C24.9459 26.5595 25.2286 25.6779 25.7942 24.9294C26.3597 24.1809 27.1498 23.6071 28.1644 23.2079C29.1791 22.792 30.3434 22.5841 31.6574 22.5841C32.9881 22.5841 34.1607 22.792 35.1754 23.2079C36.2066 23.6071 37.005 24.1809 37.5706 24.9294C38.1361 25.6779 38.4189 26.5595 38.4189 27.5741C38.4189 28.3559 38.2442 29.0545 37.8949 29.6699C37.5456 30.2687 37.0383 30.7677 36.373 31.1669ZM31.6574 25.5532C30.8424 25.5532 30.1854 25.7528 29.6864 26.152C29.204 26.5345 28.9628 27.0668 28.9628 27.7488C28.9628 28.4141 29.204 28.938 29.6864 29.3206C30.1687 29.7032 30.8258 29.8945 31.6574 29.8945C32.4891 29.8945 33.1544 29.7032 33.6534 29.3206C34.1524 28.938 34.4019 28.4141 34.4019 27.7488C34.4019 27.0668 34.1524 26.5345 33.6534 26.152C33.1544 25.7528 32.4891 25.5532 31.6574 25.5532ZM31.6574 37.6789C32.6721 37.6789 33.4705 37.4543 34.0526 37.0052C34.6514 36.5395 34.9508 35.924 34.9508 35.1589C34.9508 34.3938 34.6514 33.7867 34.0526 33.3376C33.4705 32.8885 32.6721 32.6639 31.6574 32.6639C30.6594 32.6639 29.8693 32.8885 29.2872 33.3376C28.705 33.7867 28.4139 34.3938 28.4139 35.1589C28.4139 35.9407 28.705 36.5561 29.2872 37.0052C29.8693 37.4543 30.6594 37.6789 31.6574 37.6789Z" fill="white"/>
</svg>
