<svg width="60" height="60" viewBox="0 0 60 60" fill="none" xmlns="http://www.w3.org/2000/svg">
<path d="M3.19474 37.7626C-0.992317 33.5755 -0.992323 26.787 3.19473 22.5999L22.1539 3.64078C26.3409 -0.546273 33.1295 -0.546277 37.3165 3.64078L56.2757 22.5999C60.4627 26.787 60.4627 33.5755 56.2757 37.7626L37.3165 56.7217C33.1295 60.9088 26.3409 60.9088 22.1539 56.7217L3.19474 37.7626Z" fill="#EDD1A1"/>
<path d="M29.9639 28.2702C32.4256 28.2702 34.2387 28.7609 35.403 29.7422C36.584 30.7236 37.1745 32.0376 37.1745 33.6843C37.1745 34.7489 36.9083 35.7219 36.3761 36.6035C35.8438 37.4684 35.0288 38.167 33.931 38.6993C32.8498 39.2149 31.5108 39.4727 29.914 39.4727C28.6831 39.4727 27.4689 39.3147 26.2713 38.9987C25.0903 38.666 24.084 38.2003 23.2524 37.6015L24.8492 34.5077C25.5145 35.0067 26.2796 35.3976 27.1446 35.6803C28.0095 35.9465 28.8994 36.0795 29.8142 36.0795C30.8288 36.0795 31.6272 35.8799 32.2094 35.4807C32.7916 35.0815 33.0827 34.5243 33.0827 33.8091C33.0827 33.0606 32.7749 32.4951 32.1595 32.1125C31.5607 31.7299 30.5128 31.5386 29.0158 31.5386H24.5498L25.448 21.7083H36.1016V24.9518H28.8162L28.5418 28.2702H29.9639Z" fill="white"/>
</svg>
