<svg width="55" height="56" viewBox="0 0 55 56" fill="none" xmlns="http://www.w3.org/2000/svg">
<path fill-rule="evenodd" clip-rule="evenodd" d="M20.3444 3.49553C16.9536 0.104681 11.4559 0.104679 8.06506 3.49553L2.67448 8.8861C-0.716365 12.277 -0.71636 17.7746 2.67449 21.1655L5.88702 24.378C8.022 26.513 8.02199 29.9745 5.88701 32.1094L2.67449 35.322C-0.716365 38.7128 -0.716365 44.2105 2.67448 47.6013L8.06506 52.9919C11.4559 56.3827 16.9536 56.3827 20.3444 52.9919L23.5569 49.7794C25.6919 47.6444 29.1534 47.6444 31.2884 49.7794L34.5009 52.9919C37.8918 56.3827 43.3894 56.3827 46.7803 52.9919L52.1708 47.6013C55.5617 44.2105 55.5617 38.7128 52.1708 35.322L48.9583 32.1094C46.8233 29.9745 46.8233 26.513 48.9583 24.378L52.1708 21.1655C55.5617 17.7746 55.5617 12.277 52.1708 8.8861L46.7803 3.49553C43.3894 0.10468 37.8918 0.104686 34.5009 3.49554L31.2884 6.70806C29.1534 8.84304 25.6919 8.84304 23.5569 6.70806L20.3444 3.49553Z" fill="#E55D48"/>
<path d="M29.1709 26.1941C30.7011 26.4436 31.8738 27.0174 32.6888 27.9156C33.5038 28.7972 33.9114 29.895 33.9114 31.209C33.9114 32.2237 33.6452 33.1635 33.113 34.0284C32.5807 34.8767 31.7657 35.5587 30.6679 36.0743C29.5867 36.5899 28.256 36.8477 26.6759 36.8477C25.445 36.8477 24.2308 36.6897 23.0332 36.3737C21.8522 36.041 20.8459 35.5753 20.0142 34.9765L21.5861 31.8827C22.2514 32.3817 23.0165 32.7726 23.8815 33.0553C24.763 33.3215 25.6612 33.4545 26.5761 33.4545C27.5907 33.4545 28.3891 33.2633 28.9713 32.8807C29.5534 32.4815 29.8445 31.9243 29.8445 31.209C29.8445 29.7786 28.755 29.0633 26.5761 29.0633H24.7298V26.3937L28.3226 22.3268H20.8875V19.0833H33.113V21.7031L29.1709 26.1941Z" fill="white"/>
</svg>
