<svg width="32" height="32" viewBox="0 0 32 32" fill="none" xmlns="http://www.w3.org/2000/svg">
<path d="M15.9996 0.640234C7.51645 0.640234 0.639648 7.51704 0.639648 16.0002C0.639648 24.4834 7.51645 31.3602 15.9996 31.3602C24.4828 31.3602 31.3596 24.4834 31.3596 16.0002C31.3596 7.51704 24.4828 0.640234 15.9996 0.640234ZM22.2476 13.2226C22.254 13.3538 22.2556 13.485 22.2556 13.613C22.2556 17.613 19.214 22.2226 13.6492 22.2226C12.0049 22.2254 10.3948 21.7531 9.01245 20.8626C9.24765 20.8914 9.48925 20.9026 9.73405 20.9026C11.1516 20.9026 12.4556 20.421 13.4908 19.6082C12.86 19.5958 12.2487 19.387 11.7422 19.0107C11.2357 18.6344 10.8592 18.1094 10.6652 17.509C11.1183 17.5952 11.585 17.5771 12.03 17.4562C11.3453 17.3178 10.7296 16.9468 10.2872 16.4061C9.8448 15.8654 9.60302 15.1884 9.60285 14.4898V14.453C10.0108 14.6786 10.478 14.8162 10.974 14.8322C10.3321 14.4049 9.8777 13.7485 9.70372 12.9972C9.52973 12.246 9.64933 11.4566 10.038 10.7906C10.798 11.725 11.7457 12.4894 12.8198 13.0343C13.8939 13.5792 15.0704 13.8925 16.2732 13.9538C16.1203 13.3047 16.1861 12.6233 16.4605 12.0154C16.7348 11.4076 17.2022 10.9074 17.7902 10.5927C18.3781 10.2779 19.0535 10.1662 19.7115 10.2749C20.3694 10.3836 20.973 10.7067 21.4284 11.1938C22.1055 11.0599 22.7548 10.8115 23.3484 10.4594C23.1228 11.1604 22.6503 11.7557 22.0188 12.1346C22.6186 12.0624 23.2042 11.9012 23.7564 11.6562C23.3508 12.2641 22.8399 12.7945 22.2476 13.2226Z" fill="white"/>
</svg>
