<svg width="32" height="32" viewBox="0 0 32 32" fill="none" xmlns="http://www.w3.org/2000/svg">
<path d="M18.5644 15.733L14.9708 14.0562C14.6572 13.9106 14.3996 14.0738 14.3996 14.421V17.5794C14.3996 17.9266 14.6572 18.0898 14.9708 17.9442L18.5628 16.2674C18.878 16.1202 18.878 15.8802 18.5644 15.733ZM15.9996 0.640234C7.51645 0.640234 0.639648 7.51704 0.639648 16.0002C0.639648 24.4834 7.51645 31.3602 15.9996 31.3602C24.4828 31.3602 31.3596 24.4834 31.3596 16.0002C31.3596 7.51704 24.4828 0.640234 15.9996 0.640234ZM15.9996 22.2402C8.13725 22.2402 7.99965 21.5314 7.99965 16.0002C7.99965 10.469 8.13725 9.76023 15.9996 9.76023C23.862 9.76023 23.9996 10.469 23.9996 16.0002C23.9996 21.5314 23.862 22.2402 15.9996 22.2402Z" fill="white"/>
</svg>
